
        <svg xmlns="http://www.w3.org/2000/svg" xmlns:xlink="http://www.w3.org/1999/xlink" version="1.1" width="3173.913043478261" 
        height="888.1987577639751" viewBox="0 0 3173.913043478261 888.1987577639751">
			
			<g transform="scale(8.695652173913043) translate(10, 10)">
				<defs id="SvgjsDefs1934"></defs><g id="SvgjsG1935" featureKey="xG21Y3-0" transform="matrix(0.8928571428571428,0,0,0.8928571428571428,-7.142857142857142,-5.357142857142857)" fill="#99ddcc"><path xmlns="http://www.w3.org/2000/svg" fill="none" d="M36.558,37.254c0.282,0.152,0.6,0.246,0.942,0.246c0.42,0,0.809-0.131,1.131-0.353  c0.287-0.197,0.515-0.47,0.667-0.787C39.424,36.099,39.5,35.81,39.5,35.5c0-1.105-0.896-2-2-2s-2,0.895-2,2  c0,0.207,0.04,0.401,0.098,0.588C35.754,36.593,36.101,37.008,36.558,37.254z"></path><path xmlns="http://www.w3.org/2000/svg" fill="none" d="M58.702,73.64C58.576,73.901,58.5,74.19,58.5,74.5c0,1.105,0.896,2,2,2s2-0.895,2-2  c0-0.394-0.117-0.758-0.313-1.066c-0.236-0.373-0.593-0.658-1.015-0.81C60.961,72.549,60.737,72.5,60.5,72.5  c-0.42,0-0.81,0.131-1.131,0.353C59.082,73.05,58.854,73.322,58.702,73.64z"></path><path xmlns="http://www.w3.org/2000/svg" fill="none" d="M75,58.392l6.828-8.016c-0.422-0.151-0.778-0.437-1.015-0.81L75,56.392V58.392z"></path><path xmlns="http://www.w3.org/2000/svg" fill="none" d="M35.598,36.088L31,40.087v2l5.558-4.833C36.101,37.008,35.754,36.593,35.598,36.088z"></path><path xmlns="http://www.w3.org/2000/svg" fill="none" d="M62.187,73.434L69,65.435v-2l-7.828,9.189C61.594,72.775,61.95,73.061,62.187,73.434z"></path><path xmlns="http://www.w3.org/2000/svg" fill="none" d="M38.631,37.147L47,52.363v-2l-7.702-14.003C39.146,36.677,38.918,36.95,38.631,37.147z"></path><path xmlns="http://www.w3.org/2000/svg" fill="none" d="M59.369,72.853L53,61.272v2l5.702,10.367C58.854,73.322,59.082,73.05,59.369,72.853z"></path><path xmlns="http://www.w3.org/2000/svg" d="M37.5,37.5c-0.343,0-0.66-0.094-0.942-0.246L31,42.087V98h16V52.363l-8.369-15.216C38.309,37.369,37.92,37.5,37.5,37.5z"></path><path xmlns="http://www.w3.org/2000/svg" d="M31,40.087l4.598-3.999C35.54,35.901,35.5,35.707,35.5,35.5c0-1.105,0.896-2,2-2s2,0.895,2,2  c0,0.31-0.076,0.599-0.202,0.861L47,50.364V23H31V40.087z"></path><path xmlns="http://www.w3.org/2000/svg" d="M62.5,74.5c0,1.105-0.896,2-2,2s-2-0.895-2-2c0-0.31,0.076-0.599,0.202-0.86L53,63.272V98h16V65.435l-6.813,7.999  C62.383,73.742,62.5,74.106,62.5,74.5z"></path><path xmlns="http://www.w3.org/2000/svg" d="M53,61.272l6.369,11.58C59.69,72.631,60.08,72.5,60.5,72.5c0.237,0,0.461,0.049,0.672,0.124L69,63.435V6H53V61.272z"></path><path xmlns="http://www.w3.org/2000/svg" d="M75,98h17V59.552l-8.165-9.572C83.48,50.3,83.016,50.5,82.5,50.5c-0.237,0-0.461-0.048-0.672-0.124L75,58.392V98z"></path><path xmlns="http://www.w3.org/2000/svg" d="M92,57.552V35H75v21.392l5.813-6.825C80.617,49.257,80.5,48.894,80.5,48.5c0-1.105,0.896-2,2-2s2,0.895,2,2  c0,0.079-0.015,0.154-0.023,0.231L92,57.552z"></path><path xmlns="http://www.w3.org/2000/svg" d="M17.5,54.5c0,1.105-0.896,2-2,2s-2-0.895-2-2c0-0.463,0.164-0.884,0.428-1.223L8,38.231V98h17V47.304l-7.598,6.607  C17.46,54.099,17.5,54.294,17.5,54.5z"></path><path xmlns="http://www.w3.org/2000/svg" d="M8,36.231l6.515,16.539c0.292-0.167,0.625-0.27,0.985-0.27c0.343,0,0.66,0.094,0.942,0.246L25,45.304V6H8V36.231z"></path></g><g id="SvgjsG1936" featureKey="n48U4P-0" transform="matrix(3.229139515323581,0,0,3.229139515323581,90.54378863908148,-0.47067581037674344)" fill="#f6f6f6"><path d="M7.5 5.720000000000001 c2.0266 0 3.62 0.62666 4.78 1.88 s1.74 2.98 1.74 5.18 c0 2.28 -0.58334 4.0534 -1.75 5.32 s-2.73 1.9 -4.69 1.9 l-6.2 0 l0 -14.28 l6.12 0 z M7.3 17.36 c1.1333 0 2.0134 -0.37334 2.64 -1.12 s0.94 -1.8067 0.94 -3.18 c0 -1.5733 -0.33666 -2.75 -1.01 -3.53 s-1.71 -1.17 -3.11 -1.17 l-2.24 0 l0 9 l2.78 0 z M20.66 9.38 c3.0134 0.01334 4.52 0.9933 4.52 2.94 l0 5.48 c0 1.0133 0.12 1.7467 0.36 2.2 l-2.88 0 c-0.10666 -0.32 -0.17332 -0.65334 -0.19998 -1 c-0.84 0.85334 -2 1.28 -3.48 1.28 c-1.08 0 -1.9367 -0.27334 -2.57 -0.82 s-0.95 -1.3067 -0.95 -2.28 c0 -0.94666 0.3 -1.68 0.9 -2.2 c0.61334 -0.54666 1.7267 -0.89332 3.34 -1.04 c1.1467 -0.12 1.8733 -0.27 2.18 -0.45 s0.46 -0.45666 0.46 -0.83 c0 -0.46666 -0.14 -0.81332 -0.42 -1.04 s-0.74666 -0.34 -1.4 -0.34 c-0.6 0 -1.0533 0.12334 -1.36 0.37 s-0.48666 0.64332 -0.54 1.19 l-2.84 0 c0.06666 -1.1333 0.53332 -1.9933 1.4 -2.58 s2.0266 -0.88 3.48 -0.88 z M18.3 17.06 c0 0.88 0.58 1.32 1.74 1.32 c1.52 -0.01334 2.2866 -0.79334 2.3 -2.34 l0 -1.1 c-0.22666 0.22666 -0.8 0.39332 -1.72 0.49998 c-0.8 0.09334 -1.3867 0.25668 -1.76 0.49002 s-0.56 0.61 -0.56 1.13 z M30.98 6.5600000000000005 l0.000019531 3.1 l2.08 0 l0 1.9 l-2.08 0 l0 5.12 c0 0.48 0.08 0.8 0.24 0.96 s0.48 0.24 0.96 0.24 c0.34666 0 0.64 -0.02666 0.88 -0.08 l0 2.22 c-0.4 0.06666 -0.96 0.1 -1.68 0.1 c-1.0933 0 -1.9067 -0.18666 -2.44 -0.56 s-0.8 -1.02 -0.8 -1.94 l0 -6.06 l-1.72 0 l0 -1.9 l1.72 0 l0 -3.1 l2.84 0 z M39.18000000000001 9.38 c3.0134 0.01334 4.52 0.9933 4.52 2.94 l0 5.48 c0 1.0133 0.12 1.7467 0.36 2.2 l-2.88 0 c-0.10666 -0.32 -0.17332 -0.65334 -0.19998 -1 c-0.84 0.85334 -2 1.28 -3.48 1.28 c-1.08 0 -1.9367 -0.27334 -2.57 -0.82 s-0.95 -1.3067 -0.95 -2.28 c0 -0.94666 0.3 -1.68 0.9 -2.2 c0.61334 -0.54666 1.7267 -0.89332 3.34 -1.04 c1.1467 -0.12 1.8733 -0.27 2.18 -0.45 s0.46 -0.45666 0.46 -0.83 c0 -0.46666 -0.14 -0.81332 -0.42 -1.04 s-0.74666 -0.34 -1.4 -0.34 c-0.6 0 -1.0533 0.12334 -1.36 0.37 s-0.48666 0.64332 -0.54 1.19 l-2.84 0 c0.06666 -1.1333 0.53332 -1.9933 1.4 -2.58 s2.0266 -0.88 3.48 -0.88 z M36.82 17.06 c0 0.88 0.58 1.32 1.74 1.32 c1.52 -0.01334 2.2866 -0.79334 2.3 -2.34 l0 -1.1 c-0.22666 0.22666 -0.8 0.39332 -1.72 0.49998 c-0.8 0.09334 -1.3867 0.25668 -1.76 0.49002 s-0.56 0.61 -0.56 1.13 z M48.02000000000001 5.720000000000001 l2.26 9.72 l0.04 0 l2.48 -9.72 l2.94 0 l2.44 9.84 l0.04 0 l2.34 -9.84 l3.08 0 l-3.84 14.28 l-3.12 0 l-2.42 -9.72 l-0.04 0 l-2.38 9.72 l-3.18 0 l-3.78 -14.28 l3.14 0 z M67.7 5.720000000000001 l0 2.34 l-2.84 0 l0 -2.34 l2.84 0 z M67.7 9.66 l0 10.34 l-2.84 0 l0 -10.34 l2.84 0 z M78.42 9.66 l0 2.14 l-5.38 6.06 l5.76 0 l0 2.14 l-9.5 0 l0 -2.14 l5.38 -6.06 l-4.98 0 l0 -2.14 l8.72 0 z"></path></g>
			</g>
		</svg>
	