<svg xmlns="http://www.w3.org/2000/svg" version="1.1" xmlns:xlink="http://www.w3.org/1999/xlink" xmlns:svgjs="http://svgjs.dev/svgjs" width="1000" height="1260" viewBox="0 0 1000 1260"><g transform="matrix(1,0,0,1,0.11635540870366867,0.5101214574898449)"><svg viewBox="0 0 196 247" data-background-color="#ffffff" preserveAspectRatio="xMidYMid meet" height="1260" width="1000" xmlns="http://www.w3.org/2000/svg" xmlns:xlink="http://www.w3.org/1999/xlink"><g id="tight-bounds" transform="matrix(1,0,0,1,-0.02280566010591656,-0.09999999999999432)"><svg viewBox="0 0 196.04561132021183 247.2" height="247.2" width="196.04561132021183"><g><svg viewBox="0 0 488.86271999999997 616.4221865013561" height="247.2" width="196.04561132021183"><g><rect width="397.4975999999999" height="17.579095283935708" x="45.682560000000024" y="357.8933338206974" fill="#5593f7" opacity="1" stroke-width="0" stroke="transparent" fill-opacity="1" class="rect-o-0" data-fill-palette-color="primary" rx="1%" id="o-0" data-palette-color="#5593f7"></rect></g><g transform="matrix(1,0,0,1,46.67135999999999,421.49100314634967)"><svg viewBox="0 0 395.52 194.93118335500648" height="194.93118335500648" width="395.52"><g><svg viewBox="0 0 395.52 194.93118335500648" height="194.93118335500648" width="395.52"><g><svg viewBox="0 0 395.52 194.93118335500648" height="194.93118335500648" width="395.52"><g transform="matrix(1,0,0,1,0,0)"><svg width="395.52" viewBox="4.449999809265137 -36.25 78.10000610351562 37.900001525878906" height="194.93118335500648" data-palette-color="#5593f7"><g class="undefined-text-0" data-fill-palette-color="primary" id="text-0"><path d="M4.45 0L4.45-36.25 13.55-36.25Q19.05-36.25 22.85-34.6 26.65-32.95 29.03-30.28 31.4-27.6 32.48-24.28 33.55-20.95 33.55-17.65L33.55-17.65Q33.55-13.6 32.1-10.33 30.65-7.05 28.15-4.75 25.65-2.45 22.35-1.23 19.05 0 15.35 0L15.35 0 4.45 0ZM9.9-5.2L14.55-5.2Q17.45-5.2 19.93-6.05 22.4-6.9 24.23-8.53 26.05-10.15 27.08-12.53 28.1-14.9 28.1-18L28.1-18Q28.1-21.3 26.95-23.75 25.8-26.2 23.95-27.83 22.1-29.45 19.78-30.23 17.45-31 15.05-31L15.05-31 9.9-31 9.9-5.2ZM76.85-36.1L82.55-36.1Q80.75-31.35 78.72-26.13 76.7-20.9 74.72-15.85 72.75-10.8 71-6.25 69.25-1.7 68.05 1.6L68.05 1.6 59.95-18.65Q59.8-19.05 59.7-19.25 59.6-19.45 59.5-19.85L59.5-19.85Q59.5-19.65 59.45-19.48 59.4-19.3 59.35-19.1L59.35-19.1Q59.3-18.9 59.25-18.7L59.25-18.7Q57.55-14.8 55.9-11.05L55.9-11.05Q55.2-9.45 54.45-7.75 53.7-6.05 53-4.38 52.3-2.7 51.62-1.15 50.95 0.4 50.4 1.65L50.4 1.65Q46.8-7.8 43.15-17.2 39.5-26.6 35.9-36.1L35.9-36.1 42.05-36.1Q43.25-32.8 44.52-29.45 45.8-26.1 46.92-23 48.05-19.9 48.95-17.25 49.85-14.6 50.35-12.75L50.35-12.75 50.75-11Q50.8-11.25 51-11.83 51.2-12.4 51.3-12.65L51.3-12.65Q51.35-12.85 51.65-13.55 51.95-14.25 52.35-15.23 52.75-16.2 53.25-17.35 53.75-18.5 54.25-19.7L54.25-19.7Q55.45-22.45 56.9-25.8L56.9-25.8Q56.05-28.15 55.4-30.2L55.4-30.2Q54.8-31.95 54.27-33.65 53.75-35.35 53.5-36.1L53.5-36.1 58.75-36.1Q60.9-30.45 62.75-25.65L62.75-25.65Q63.5-23.6 64.27-21.55 65.05-19.5 65.72-17.75 66.4-16 66.9-14.68 67.4-13.35 67.6-12.75L67.6-12.75Q67.75-12.3 67.82-11.88 67.9-11.45 68-11L68-11Q68.1-11.45 68.17-11.9 68.25-12.35 68.35-12.75L68.35-12.75Q68.8-14.7 69.75-17.4 70.7-20.1 71.87-23.2 73.05-26.3 74.35-29.63 75.65-32.95 76.85-36.1L76.85-36.1Z" fill="#5593f7" data-fill-palette-color="primary"></path></g></svg></g></svg></g></svg></g></svg></g><g><svg viewBox="0 0 488.86271999999997 311.8747597789809" height="311.8747597789809" width="488.86271999999997"><g><svg xmlns="http://www.w3.org/2000/svg" xmlns:xlink="http://www.w3.org/1999/xlink" version="1.1" x="0" y="0" viewBox="8 24 83.83600616455078 53.48400115966797" enable-background="new 0 0 100 100" xml:space="preserve" height="311.8747597789809" width="488.86271999999997" class="icon-icon-0" data-fill-palette-color="accent" id="icon-0"><path d="M83.924 24c-4.363 0-7.913 3.55-7.913 7.913 0 1.461 0.405 2.825 1.098 4.001L64.486 48.536c-1.13-0.622-2.426-0.978-3.804-0.978-3.191 0-5.942 1.903-7.192 4.631L41.195 49.8c-0.803-3.519-3.951-6.154-7.709-6.154-4.363 0-7.913 3.55-7.913 7.913 0 1.309 0.325 2.543 0.89 3.631l-7.214 7.216c-1.016-0.475-2.143-0.747-3.335-0.747C11.55 61.658 8 65.208 8 69.571s3.55 7.913 7.913 7.913c4.364 0 7.914-3.55 7.914-7.913 0-1.207-0.279-2.347-0.765-3.371l7.35-7.351c0.945 0.4 1.984 0.622 3.074 0.622 3.07 0 5.73-1.76 7.042-4.32l12.538 2.437c0.929 3.337 3.988 5.797 7.617 5.797 4.363 0 7.913-3.55 7.913-7.913 0-1.019-0.2-1.989-0.553-2.885l13.229-13.228c0.83 0.296 1.721 0.467 2.651 0.467 4.363 0 7.913-3.55 7.913-7.913S88.287 24 83.924 24zM15.913 72.104c-1.397 0-2.533-1.137-2.533-2.533 0-1.397 1.136-2.533 2.533-2.533 1.397 0 2.534 1.136 2.534 2.533C18.447 70.968 17.311 72.104 15.913 72.104zM33.486 54.092c-1.397 0-2.534-1.137-2.534-2.533 0-1.397 1.137-2.533 2.534-2.533s2.534 1.136 2.534 2.533C36.02 52.955 34.883 54.092 33.486 54.092zM60.683 58.005c-1.397 0-2.533-1.137-2.533-2.533 0-1.397 1.136-2.533 2.533-2.533 1.396 0 2.533 1.136 2.533 2.533C63.216 56.868 62.079 58.005 60.683 58.005zM83.924 34.446c-1.397 0-2.533-1.136-2.533-2.533s1.136-2.533 2.533-2.533c1.396 0 2.533 1.136 2.533 2.533S85.32 34.446 83.924 34.446z" fill="#5593f7" data-fill-palette-color="accent"></path></svg></g></svg></g><g></g></svg></g><defs></defs></svg><rect width="196.04561132021183" height="247.2" fill="none" stroke="none" visibility="hidden"></rect></g></svg></g></svg>