<svg data-v-423bf9ae="" xmlns="http://www.w3.org/2000/svg" viewBox="0 0 398 95" class="iconLeft"><!----><!----><!----><g data-v-423bf9ae="" id="f0b84619-a192-4b20-bbd6-9536e8bfb500" fill="#253D52" transform="matrix(5.934717742604922,0,0,5.934717742604922,98.44827679757444,12.867921302333052)"><path d="M1.25 10.64L3.61 10.64C5.08 10.64 5.61 10.54 6.34 10.29C8.29 9.62 8.85 7.52 8.85 5.56C8.85 3.05 8.06 1.50 6.40 1.04C5.77 0.85 4.97 0.76 3.82 0.76L1.25 0.76ZM2.37 1.44L3.78 1.44C4.80 1.44 5.60 1.57 6.12 1.83C7.31 2.45 7.66 3.92 7.66 5.56C7.66 7.50 7.13 8.82 6.26 9.42C5.71 9.80 4.96 9.95 3.84 9.95L2.37 9.95ZM14.73 10.64L15.75 10.64C15.58 10.11 15.57 9.56 15.57 9.09L15.57 5.80C15.57 4.79 15.37 4.33 15.01 3.95C14.57 3.51 13.87 3.40 13.17 3.40C12.49 3.40 11.58 3.56 10.84 3.91L10.84 4.72C11.70 4.24 12.46 4.14 13.05 4.14C13.57 4.14 13.97 4.28 14.21 4.59C14.45 4.90 14.53 5.39 14.53 5.91L14.53 6.54C14.28 6.52 13.92 6.51 13.65 6.51C11.20 6.51 10.16 7.28 10.16 8.65C10.16 9.90 10.99 10.81 12.42 10.81C13.54 10.81 14.20 10.32 14.56 9.66C14.57 9.93 14.66 10.40 14.73 10.64ZM14.53 7.11L14.53 8.11C14.53 8.57 14.46 9.03 14.20 9.34C13.83 9.79 13.29 10.09 12.63 10.09C11.73 10.09 11.23 9.52 11.23 8.62C11.23 7.78 11.83 7.10 13.85 7.10C14.07 7.10 14.34 7.10 14.53 7.11ZM20.97 10.58L20.97 9.88C20.73 9.97 20.36 10.01 20.08 10.01C19.70 10.01 19.39 9.87 19.28 9.62C19.19 9.42 19.14 9.11 19.14 8.51L19.14 4.21L20.72 4.21L20.72 3.58L19.14 3.58L19.14 1.76L18.19 1.76C18.12 2.79 18.09 3.58 18.09 3.58L17.01 3.58L17.01 4.21L18.09 4.21L18.09 8.53C18.09 9.21 18.12 9.65 18.33 10.02C18.58 10.50 19.07 10.74 19.88 10.74C20.23 10.74 20.68 10.67 20.97 10.58ZM26.32 10.64L27.34 10.64C27.17 10.11 27.16 9.56 27.16 9.09L27.16 5.80C27.16 4.79 26.96 4.33 26.60 3.95C26.17 3.51 25.47 3.40 24.77 3.40C24.08 3.40 23.17 3.56 22.43 3.91L22.43 4.72C23.30 4.24 24.05 4.14 24.64 4.14C25.16 4.14 25.56 4.28 25.80 4.59C26.04 4.90 26.12 5.39 26.12 5.91L26.12 6.54C25.87 6.52 25.51 6.51 25.24 6.51C22.79 6.51 21.76 7.28 21.76 8.65C21.76 9.90 22.58 10.81 24.01 10.81C25.13 10.81 25.79 10.32 26.15 9.66C26.17 9.93 26.25 10.40 26.32 10.64ZM26.12 7.11L26.12 8.11C26.12 8.57 26.05 9.03 25.79 9.34C25.42 9.79 24.88 10.09 24.22 10.09C23.32 10.09 22.82 9.52 22.82 8.62C22.82 7.78 23.42 7.10 25.44 7.10C25.66 7.10 25.93 7.10 26.12 7.11ZM38.44 10.64L41.05 0.76L39.91 0.76C38.61 6.13 38.21 7.97 37.88 9.28C37.59 8.09 37.06 6.20 35.55 0.76L34.41 0.76C32.83 6.17 32.42 7.59 31.98 9.25C31.68 7.85 31.25 5.96 30.02 0.76L28.77 0.76L31.32 10.64L32.42 10.64C34.29 4.47 34.64 3.25 34.90 2.21C35.20 3.28 35.53 4.51 37.25 10.64ZM43.27 10.64L43.27 3.58L42.21 3.58L42.21 10.64ZM43.39 1.40C43.39 0.87 43.19 0.70 42.76 0.70C42.31 0.70 42.08 0.88 42.08 1.40C42.08 1.95 42.29 2.10 42.73 2.10C43.18 2.10 43.39 1.92 43.39 1.40ZM44.88 10.64L50.44 10.64L50.44 10.00L46.16 10.00C46.83 9.09 47.33 8.39 50.33 4.14L50.33 3.58L45.16 3.58L45.16 4.23L49.07 4.23C48.48 5.03 47.88 5.88 44.88 10.14Z"></path></g><defs data-v-423bf9ae=""><linearGradient data-v-423bf9ae="" gradientTransform="rotate(25)" id="abb88c3b-7777-422d-9a23-6c422cdec588" x1="0%" y1="0%" x2="100%" y2="0%"><stop data-v-423bf9ae="" offset="0%" style="stop-color: rgb(0, 125, 232); stop-opacity: 1;"></stop><stop data-v-423bf9ae="" offset="100%" style="stop-color: rgb(161, 195, 219); stop-opacity: 1;"></stop></linearGradient></defs><g data-v-423bf9ae="" id="c87da17a-2014-4ffc-840e-311558651fcf" transform="matrix(1.0222222222222221,0,0,1.0222222222222221,-8.111111111111107,-5.1555555555555515)" stroke="none" fill="url(#abb88c3b-7777-422d-9a23-6c422cdec588)"><path d="M36.558 37.254c.282.152.6.246.942.246a1.985 1.985 0 0 0 1.798-1.14c.126-.261.202-.55.202-.86a2 2 0 0 0-4 0c0 .207.04.401.098.588.156.505.503.92.96 1.166zM58.702 73.64c-.126.261-.202.55-.202.86a2 2 0 0 0 4 0 2 2 0 0 0-1.328-1.876 1.998 1.998 0 0 0-.672-.124 1.983 1.983 0 0 0-1.798 1.14zM75 58.392l6.828-8.016a2 2 0 0 1-1.015-.81L75 56.392v2z"></path><path d="M35.598 36.088L31 40.087v2l5.558-4.833a1.99 1.99 0 0 1-.96-1.166zM62.187 73.434L69 65.435v-2l-7.828 9.189a2 2 0 0 1 1.015.81zM38.631 37.147L47 52.363v-2L39.298 36.36c-.152.317-.38.59-.667.787zM59.369 72.853L53 61.272v2l5.702 10.367c.152-.317.38-.589.667-.786z"></path><path d="M37.5 37.5c-.343 0-.66-.094-.942-.246L31 42.087V98h16V52.363l-8.369-15.216a1.985 1.985 0 0 1-1.131.353z"></path><path d="M31 40.087l4.598-3.999a1.969 1.969 0 0 1-.098-.588 2 2 0 0 1 4 0c0 .31-.076.599-.202.861L47 50.364V23H31v17.087zM62.5 74.5a2 2 0 0 1-4 0c0-.31.076-.599.202-.86L53 63.272V98h16V65.435l-6.813 7.999c.196.308.313.672.313 1.066z"></path><path d="M53 61.272l6.369 11.58A1.99 1.99 0 0 1 60.5 72.5c.237 0 .461.049.672.124L69 63.435V6H53v55.272zM75 98h17V59.552l-8.165-9.572c-.355.32-.819.52-1.335.52-.237 0-.461-.048-.672-.124L75 58.392V98z"></path><path d="M92 57.552V35H75v21.392l5.813-6.825A1.986 1.986 0 0 1 80.5 48.5a2 2 0 0 1 4 0c0 .079-.015.154-.023.231L92 57.552zM17.5 54.5a2 2 0 0 1-4 0c0-.463.164-.884.428-1.223L8 38.231V98h17V47.304l-7.598 6.607c.058.188.098.383.098.589z"></path><path d="M8 36.231l6.515 16.539c.292-.167.625-.27.985-.27.343 0 .66.094.942.246L25 45.304V6H8v30.231z"></path></g><!----></svg>