
        <svg xmlns="http://www.w3.org/2000/svg" xmlns:xlink="http://www.w3.org/1999/xlink" version="1.1" width="2848.5759369989632" 
        height="3321.7125636474184" viewBox="0 0 2848.5759369989632 3321.7125636474184">
			<rect fill="#111111" width="2848.5759369989632" height="3321.7125636474184"/>
			<g transform="scale(16.08562818237092) translate(10, 10)">
				<defs id="SvgjsDefs1883"></defs><g id="SvgjsG1884" featureKey="symbolFeature-0" transform="matrix(1.619967618445127,0,0,1.619967618445127,-1.619967618445127,-0.45845082366059886)" fill="#49beb7"><path xmlns="http://www.w3.org/2000/svg" d="M94.273,62.561l-4.411-26.07c1.115-0.836,1.847-2.156,1.847-3.657c0-2.531-2.052-4.583-4.584-4.583  c-0.617,0-1.205,0.126-1.742,0.348L72.105,14.91c1.107-0.986,1.819-2.407,1.819-4.007c0-2.971-2.405-5.379-5.379-5.379  c-1.854,0-3.487,0.939-4.457,2.368L42.86,3.369c-0.359-1.761-1.916-3.086-3.784-3.086c-2.134,0-3.862,1.729-3.862,3.862  c0,0.676,0.19,1.304,0.496,1.857L18.896,23.405c-0.239-0.036-0.479-0.073-0.729-0.073c-2.669,0-4.833,2.164-4.833,4.834  c0,1.788,0.982,3.332,2.426,4.168L7.01,54.818c-0.223-0.031-0.445-0.068-0.677-0.068c-2.669,0-4.833,2.164-4.833,4.834  c0,2.016,1.235,3.74,2.988,4.465L4.162,87.48C2.32,88.164,1,89.921,1,92.001c0,2.67,2.164,4.834,4.833,4.834  c2.442,0,4.441-1.817,4.766-4.172l40.078-2.649c0.705,1.5,2.218,2.545,3.985,2.545c1.021,0,1.947-0.359,2.695-0.941l19.896,6.713  c0.665,1.162,1.903,1.954,3.338,1.954c2.133,0,3.862-1.729,3.862-3.862c0-0.268-0.026-0.525-0.079-0.777l9.846-24.393  c2.121-0.322,3.75-2.138,3.75-4.35C97.973,64.71,96.369,62.904,94.273,62.561z M51.657,39.797L67.333,60  c-0.463,0.561-0.812,1.205-1.024,1.918l-30.252-2.072c-0.182-0.445-0.439-0.847-0.738-1.214l11.368-18.284  c0.597,0.202,1.233,0.317,1.898,0.317C49.711,40.665,50.762,40.344,51.657,39.797z M53.641,37.81c0.324-0.537,0.558-1.133,0.7-1.763  l28.458-1.763c0.188,0.562,0.479,1.07,0.854,1.511L72.047,58.029c-0.16-0.014-0.314-0.049-0.479-0.049  c-0.711,0-1.385,0.146-2.008,0.391L53.641,37.81z M65.459,15.297c0.875,0.616,1.938,0.985,3.088,0.985  c0.373,0,0.739-0.039,1.092-0.111l13.624,14.215c-0.27,0.425-0.471,0.896-0.589,1.399l-28.312,1.762  c-0.17-0.814-0.495-1.572-0.963-2.227L65.459,15.297z M42.395,6.091l20.812,4.433c-0.01,0.128-0.039,0.25-0.039,0.379  c0,0.813,0.193,1.577,0.518,2.268L51.354,29.522c-0.681-0.362-1.44-0.594-2.249-0.664c-0.27-0.042-0.545-0.065-0.827-0.065  c-0.183,0-0.354,0.036-0.531,0.054L41.208,7.362C41.698,7.037,42.097,6.598,42.395,6.091z M37.964,7.824  c0.173,0.052,0.349,0.096,0.531,0.124l6.653,21.823c-1.042,0.72-1.799,1.796-2.151,3.043c-0.03,0.086-0.06,0.171-0.086,0.259l0,0  L22.92,27.378c-0.184-1.117-0.749-2.095-1.559-2.814L37.964,7.824z M22.583,30.117l20.178,5.65c0.224,1.291,0.865,2.436,1.782,3.295  L33.291,57.159c-0.532-0.202-1.104-0.326-1.708-0.326c-0.123,0-0.238,0.026-0.358,0.036l-10.108-24.9  C21.746,31.48,22.257,30.853,22.583,30.117z M18.184,32.997c0.218,0,0.426-0.035,0.636-0.064l10.043,24.74  c-0.918,0.627-1.589,1.569-1.904,2.663l-15.881-1.637c-0.218-1.176-0.866-2.188-1.767-2.897L18.184,32.997z M8.293,87.859  c-0.418-0.248-0.871-0.44-1.358-0.555l0.301-22.979c1.701-0.322,3.07-1.536,3.636-3.137l16.04,1.652  c0.144,0.573,0.38,1.108,0.709,1.58L8.293,87.859z M50.338,87.273l-40.156,2.652c-0.042-0.089-0.092-0.173-0.14-0.259l19.494-23.638  c0.624,0.294,1.312,0.471,2.047,0.471c0.438,0,0.853-0.077,1.256-0.186L50.95,85.775C50.661,86.227,50.446,86.729,50.338,87.273z   M56.46,84.12c-0.55-0.246-1.155-0.39-1.797-0.39c-0.558,0-1.083,0.112-1.573,0.302L35.199,64.844  c0.547-0.621,0.95-1.371,1.12-2.215l29.865,2.047c0.142,0.646,0.397,1.248,0.743,1.787L56.46,84.12z M76.915,95.302l-17.99-6.071  c0.089-0.35,0.15-0.709,0.15-1.086c0.001-0.787-0.222-1.516-0.583-2.154L68.96,68.332c0.78,0.422,1.658,0.684,2.606,0.684  c0.065,0,0.129-0.018,0.191-0.02l6.979,24.056C77.866,93.533,77.209,94.333,76.915,95.302z M82.447,93.052  c-0.305-0.167-0.627-0.303-0.975-0.384l-7.06-24.465c1.251-0.76,2.177-1.988,2.519-3.455L89.5,68.635  c0.389,0.911,1.085,1.647,1.947,2.122L82.447,93.052z M89.275,65.884L76.85,61.99c-0.354-1.24-1.111-2.307-2.146-3.022  l11.295-21.707c-1.457-0.511,0.734,0.156,1.127,0.156c0.035,0,0.068-0.01,0.104-0.01l4.317,25.589  C90.419,63.579,89.575,64.62,89.275,65.884z"></path></g><g id="SvgjsG1885" featureKey="nameFeature-0" transform="matrix(0.16369063229802805,0,0,0.16369063229802805,73.19395083236547,179.9142176513931)" fill="#eafff7"><path d="M7.68 39.8 l-0.12 0 c-0.12 0.2 -0.2 0.08 -0.32 0 c-0.2 -0.12 -0.4 -0.12 -0.56 -0.28 c-0.04 -0.04 -0.12 -0.04 -0.12 0.08 c0 0 0.08 0.08 0 0.08 c0 0 -0.04 0 -0.08 -0.04 c-0.16 -0.16 -0.32 -0.24 -0.56 -0.24 c-0.16 0 -0.32 -0.12 -0.48 -0.28 c-0.28 -0.28 -0.4 -0.6 -0.4 -0.96 c0 -0.76 -0.04 -1.52 -0.04 -2.28 c0 -0.12 -0.04 -0.32 0.04 -0.4 s0 -0.16 0 -0.24 c0 -0.24 -0.08 -0.48 0 -0.68 s-0.04 -0.36 0 -0.52 c0.08 -0.28 -0.04 -0.52 -0.04 -0.76 c0 -0.36 0.08 -0.72 0.16 -1.08 c0.04 -0.16 -0.04 -0.28 -0.04 -0.44 c0 -0.32 -0.08 -0.64 0.04 -0.92 c0.08 -0.2 0.2 -0.44 0.04 -0.6 c-0.04 -0.04 -0.04 -0.2 0.04 -0.2 l0.08 0 s0 0.04 0.08 0.04 c0.04 0 0.04 -0.04 0.04 -0.04 c-0.04 -0.08 -0.08 -0.08 -0.12 -0.08 c-0.08 0 -0.12 0 -0.08 -0.12 c0.04 -0.08 -0.12 -0.16 -0.08 -0.28 c0.04 -0.16 0.04 -0.32 0.2 -0.48 c0.04 -0.04 0.08 -0.08 -0.04 -0.04 c0 0 -0.16 -0.04 -0.16 -0.08 c0 -0.12 0.24 -0.2 0.04 -0.32 c-0.08 -0.04 -0.12 -0.36 0.04 -0.36 c0.04 0 0 -0.04 0 -0.04 c-0.08 -0.12 -0.04 -0.2 0 -0.32 c0.04 -0.08 0 -0.16 0 -0.24 c0 -0.04 -0.16 -0.12 0.04 -0.12 c0.04 0 0 0 0 -0.04 l0 -0.56 c0 -0.04 -0.04 -0.08 -0.04 -0.12 c0 -0.08 -0.12 -0.08 0 -0.2 c0.04 -0.04 0 -0.08 0 -0.08 c-0.04 -0.24 0 -0.44 0 -0.64 c0 -0.08 0 -0.16 -0.04 -0.24 s0 -0.12 0.04 -0.16 s0.08 -0.04 0.12 0 s0.12 0.08 0.16 0.04 c0.08 -0.08 -0.04 -0.08 -0.04 -0.12 c0 -0.08 0.16 -0.08 0 -0.16 c-0.08 -0.04 -0.08 0.12 -0.12 0.12 s-0.12 0.04 -0.12 0 c0 -0.16 -0.08 -0.28 -0.08 -0.4 c0 -0.16 0.04 -0.2 0.12 -0.28 c0.04 -0.04 0.08 -0.04 0.08 -0.08 c0 0 -0.04 0 -0.08 -0.04 c0 0 -0.12 0.04 -0.08 0 s0.08 -0.04 0.08 -0.04 c0.12 -0.04 0.12 -0.08 0.04 -0.16 c-0.16 -0.16 -0.08 -0.36 -0.08 -0.52 c0 -0.04 0.08 -0.08 0.04 -0.12 c-0.16 -0.16 0 -0.32 -0.04 -0.48 c-0.08 -0.24 -0.04 -0.48 -0.04 -0.68 c0 -0.04 0 -0.08 0.04 -0.12 c0.16 -0.16 0.12 -0.16 -0.04 -0.32 c-0.08 -0.08 -0.04 -0.24 -0.08 -0.36 c-0.04 -0.08 0.04 -0.2 -0.04 -0.28 c-0.04 -0.04 0 -0.12 0.04 -0.08 s0.12 0.04 0.12 0 c0 -0.08 -0.04 -0.04 -0.08 -0.08 s-0.08 -0.08 -0.08 -0.12 l0 -0.84 c0 -0.08 0.08 -0.2 0.16 -0.2 c0.04 0 0.04 0 0.04 -0.04 c0 -0.08 -0.04 -0.04 -0.08 -0.04 s-0.08 -0.04 -0.08 -0.12 c0 -0.44 0 -0.84 0.08 -1.28 c0.04 -0.2 0 -0.4 -0.04 -0.64 c-0.04 -0.28 -0.04 -0.52 0.04 -0.8 c0.04 -0.12 0.08 -0.2 -0.04 -0.32 l0 -0.08 c0.16 -0.08 0.04 -0.16 0 -0.28 l-0.04 -0.04 c0.16 -0.16 -0.04 -0.28 -0.04 -0.4 l0 -0.48 c0 -0.04 0 0 0.04 -0.04 s0.08 -0.04 0.08 -0.12 s-0.08 0 -0.08 0 c0 -0.08 -0.12 -0.16 -0.12 -0.24 c0 -0.12 -0.08 -0.28 -0.04 -0.44 s0.04 -0.36 0 -0.56 c-0.04 -0.24 -0.08 -0.44 0.08 -0.6 c0.04 -0.04 0.04 0 0.08 0 c0.12 0 0.12 0 0.16 -0.12 c0.08 -0.24 0.36 -0.76 0.08 -0.76 c-0.04 0 -0.04 -0.04 0 -0.04 c0.12 0 0.28 0.04 0.36 0.16 c0.16 0.2 0.24 0.4 0.4 0.56 c0.08 0.08 0.08 0.08 0.16 0 s0.16 -0.04 0.24 -0.04 s0.2 -0.04 0.2 0.12 l0.04 0.04 c0.04 0 0.08 -0.04 0.04 -0.08 c-0.08 -0.08 0 -0.16 0.08 -0.16 s0.12 0.08 0.08 0.16 s0.04 0.16 0.12 0.12 s0.12 -0.08 0.2 -0.08 c0.04 0 0.12 -0.04 0.12 0 c0 0.08 -0.04 0.08 -0.08 0.08 s-0.08 0.04 -0.04 0.08 c0.08 0.08 0.04 0 0.08 0 c0.08 0 0.08 0 0.12 0.08 c0.04 0.12 0 0.12 0.2 0.12 c0.16 0 0.16 -0.08 0.24 -0.16 s0.16 -0.16 0.28 -0.04 c0 0 0.04 0.04 0.08 0 c0 0 0 -0.04 -0.04 -0.08 c-0.08 -0.08 -0.04 -0.16 0.04 -0.24 c0.04 -0.04 0.04 -0.12 0.12 -0.12 c0.04 0 -0.04 0.16 -0.04 0.2 s-0.12 0.04 -0.04 0.12 c0.04 0.04 0.08 0.12 0.16 0.04 c0.04 -0.04 0.16 0.04 0.16 -0.04 c0 -0.32 0.16 -0.12 0.24 -0.08 s0.12 0.16 0.16 0 c0.04 -0.12 0.2 -0.08 0.32 0 c0 0 0.2 0 0.24 -0.04 c0 0 0 0.04 0.04 0 s0.04 -0.2 0.16 -0.12 c0.08 0.04 0.04 0.08 0.04 0.2 c0 0.04 -0.04 0.12 0 0.08 s0.12 -0.08 0.16 -0.08 s0 -0.04 0 -0.08 c0 -0.08 -0.16 -0.08 -0.08 -0.16 c0.04 -0.04 0.12 0 0.2 0 c0.24 0 0.4 0.04 0.64 0.04 c0.04 0 0.08 -0.04 0.12 -0.08 s0.12 -0.12 0.12 0.04 c0 0.08 0.08 0.04 0.12 0.04 c0.12 0 0.16 0 0.16 0.16 c0 0.04 0.04 0.12 0.08 0.12 c0.08 0 0.08 -0.08 0.08 -0.12 c0 -0.2 0.12 -0.36 0.36 -0.36 c0.36 0 0.72 -0.04 1.12 0.04 s0.84 0.04 1.24 0.12 c0.32 0.08 0.64 0.16 0.96 0.16 s0.6 0.08 0.84 0.2 c0.16 0.08 0.36 0.04 0.52 0.08 c0.44 0.12 0.8 0.28 1.2 0.44 c0.52 0.2 1.08 0.32 1.56 0.64 c0.32 0.2 0.68 0.36 1 0.6 c0.2 0.16 0.24 0.4 0.44 0.52 c0.4 0.24 0.8 0.48 1.16 0.72 c0.32 0.2 0.6 0.44 0.8 0.8 c0.08 0.16 0.24 0.28 0.36 0.36 c0.36 0.24 0.56 0.6 0.76 1 c0.16 0.32 0.32 0.64 0.48 0.92 c0.12 0.2 0.16 0.44 0.24 0.64 c0.08 0.24 0.16 0.48 0.28 0.72 c0.08 0.16 0.04 0.32 0.12 0.44 c0.12 0.16 0.08 0.28 0.16 0.44 s0.08 0.32 0.16 0.48 c0.08 0.2 0.28 0.64 0.04 0.64 c-0.04 0 -0.04 0.04 -0.04 0.04 c0.2 0.12 0.08 0.24 0.04 0.32 s-0.08 0.08 -0.12 0.08 c-0.08 0 -0.08 0.16 -0.12 0.24 s0.04 0.12 0.12 0.08 c0.16 -0.08 0.36 0.08 0.24 0.08 c-0.16 0 -0.36 0.2 -0.24 0.24 c0.08 0.04 0.04 0.12 0.16 0.16 c0.36 0.12 0.28 0.48 0.28 0.76 c0 0.56 0.12 1.12 0.08 1.72 c-0.04 0.72 -0.2 1.48 -0.36 2.2 c-0.12 0.6 -0.32 1.12 -0.44 1.72 s-0.32 1.12 -0.52 1.68 c-0.12 0.32 -0.24 0.64 -0.48 0.88 c-0.04 0.04 -0.08 0.08 -0.12 0.08 c-0.12 0 -0.08 0.08 0 0.08 c0.12 0 0.08 0.08 0.04 0.12 c-0.16 0.16 -0.24 0.36 -0.36 0.52 c-0.12 0.2 -0.4 0.32 -0.4 0.6 c0 0.04 -0.04 0.08 -0.08 0.04 s-0.08 0 -0.08 0 c0.04 0.16 -0.08 0.16 -0.16 0.16 c-0.04 0 -0.04 0.04 -0.04 0.04 c-0.08 0.28 -0.12 0.44 -0.36 0.6 s-0.4 0.44 -0.64 0.56 c-0.16 0.08 -0.28 0.32 -0.52 0.28 l-0.04 0.04 c0 0.04 0.04 0 0.04 0 c0.04 0 0.12 -0.04 0.12 0.04 s-0.04 0.12 -0.08 0.12 c-0.08 0 -0.16 0 -0.2 0.04 s-0.2 -0.04 -0.12 0.12 c0.04 0.08 -0.08 0.04 -0.16 0.12 c-0.12 0.12 -0.28 0.2 -0.48 0.2 c-0.04 0 -0.12 0 -0.12 0.04 c0 0.2 -0.12 0.32 -0.36 0.44 c-0.08 0.04 -0.12 0.2 -0.28 0.2 c-0.08 0 -0.12 0.04 -0.16 0 c-0.16 -0.16 -0.24 -0.04 -0.36 -0.04 c-0.08 0 -0.08 0.08 -0.04 0.12 s0.08 0.08 0.04 0.12 s-0.08 0 -0.12 -0.04 c-0.16 -0.16 -0.28 -0.12 -0.28 0.08 c0 0.16 -0.16 0.2 -0.24 0.12 c-0.04 -0.04 -0.08 -0.08 -0.04 -0.08 c0.2 0 0.12 -0.12 0.04 -0.2 l-0.04 -0.04 c-0.08 0 -0.08 0.04 -0.08 0.08 c0 0.12 -0.08 0.24 -0.24 0.24 c-0.08 0 -0.12 0.04 -0.12 0.2 c0 0.04 -0.24 0.32 -0.32 0.32 c-0.04 0 -0.12 0 -0.08 -0.08 c0.08 -0.16 -0.12 -0.12 -0.16 -0.12 c-0.08 0 -0.24 0 -0.24 0.08 c0 0.04 -0.04 0.12 0 0.12 s0.04 -0.04 0.08 -0.08 s0.12 -0.04 0.12 0 c0 0.12 -0.04 0.12 -0.08 0.12 c-0.12 0 -0.4 -0.12 -0.44 0.04 c-0.04 0.12 -0.2 0.08 -0.32 0.2 c-0.04 0.04 -0.08 0.04 -0.12 0.04 c-0.16 0 -0.32 0.04 -0.48 0 l-0.04 0.04 c-0.04 0.24 -0.2 0.2 -0.4 0.2 c-0.08 0 -0.16 0.04 -0.16 0.08 s-0.04 0.08 -0.08 0.08 c-0.12 0 -0.28 0 -0.4 0.12 c-0.04 0.04 -0.16 0 -0.08 -0.08 c0.04 -0.04 0 -0.08 -0.04 -0.08 s-0.04 0.04 -0.04 0.08 c0 0.2 -0.2 0.24 -0.36 0.16 s-0.24 0.04 -0.36 0.08 c-0.2 0.08 -0.4 0.08 -0.6 0 c-0.12 -0.04 -0.24 -0.04 -0.4 0 c-0.12 0.04 -0.24 0 -0.36 -0.04 s-0.24 -0.04 -0.32 -0.04 c-0.4 0 -0.76 0.04 -1.16 0.04 c-0.04 0 -0.2 0.04 -0.2 -0.04 c0 -0.04 -0.04 -0.04 -0.04 -0.04 c-0.12 0.16 -0.32 0.08 -0.44 0.08 c-0.36 0 -0.64 0.08 -0.96 0.16 c-0.56 0.12 -1.08 0.04 -1.64 0.04 z M19.6 37.4 c0.04 0 0.12 -0.04 0.12 -0.08 l0 -0.16 s0.04 -0.08 -0.04 -0.08 c-0.04 0 -0.04 0.04 -0.04 0.08 s0 0.08 -0.04 0.12 s-0.08 0.08 -0.04 0.12 l0.04 0 z M20.04 36.56 c0.12 0 0.2 -0.2 0.12 -0.2 s0.04 -0.16 -0.08 -0.12 c-0.08 0.04 -0.04 0.2 -0.12 0.2 c-0.04 0 0.04 0.12 0.08 0.12 z M20.24 36.12 c0.08 0.08 0.08 -0.08 0.08 -0.12 c0 -0.08 0.08 -0.04 0.08 0 c0 0.08 0.08 0.08 0.12 0.08 c0.08 0 0 -0.08 0.08 -0.16 c0.04 -0.04 -0.04 0 -0.08 -0.04 c-0.08 -0.08 -0.12 -0.04 -0.12 -0.2 c0 -0.04 0 -0.08 -0.04 -0.04 c-0.08 0.08 -0.24 0.08 -0.24 0.28 c0 0.08 0.08 0.16 0.12 0.2 z M20.96 35.96 c0.04 -0.04 0.04 -0.12 0.04 -0.16 s0 -0.12 -0.08 -0.12 s-0.16 -0.04 -0.24 -0.12 c-0.04 -0.04 -0.04 -0.12 -0.12 -0.04 c-0.04 0.04 0 0.08 0.08 0.12 c0.12 0.04 0.2 0.12 0.28 0.2 c0.04 0.04 0 0.16 0.04 0.12 z M20.8 35.28 c0.04 -0.08 0.12 -0.16 0.12 -0.24 c0 -0.04 -0.04 -0.04 -0.08 -0.04 c-0.08 0 -0.16 0 -0.16 0.08 s0.08 0.28 0.12 0.2 z M13.8 35.4 c0.2 0 0.4 -0.04 0.6 -0.04 c0.08 0 0.16 0 0.24 -0.08 s0.2 -0.04 0.2 -0.16 c0 -0.04 -0.16 0.08 -0.2 0.08 c-0.2 0 -0.4 -0.08 -0.44 -0.24 c0 0 -0.04 -0.08 0 -0.08 l0.24 0 l0 0.04 c0 0 -0.08 0.08 -0.04 0.08 s0.08 0 0.12 -0.04 c0.24 -0.24 0.52 -0.12 0.76 -0.12 c0.16 0 0.32 -0.04 0.48 -0.08 c0.24 -0.08 0.48 -0.16 0.68 -0.24 c0.08 -0.04 0.16 0 0.2 -0.04 c0.12 -0.12 -0.08 -0.04 -0.04 -0.12 l0.08 0 c0.16 0 0.4 0.08 0.48 -0.2 l0.04 0 c0.2 0.04 0.36 -0.08 0.52 -0.16 c0.08 -0.04 0.28 -0.12 0.28 -0.12 c-0.04 -0.24 0.12 -0.2 0.2 -0.16 c0.12 0.04 0.08 -0.04 0.04 -0.08 c-0.08 -0.08 -0.04 -0.16 0.04 -0.16 c0.28 0 0.44 -0.28 0.64 -0.48 c0.32 -0.32 0.68 -0.56 0.88 -1 c0.04 -0.08 0.12 -0.16 0.16 -0.32 c0 0 0 -0.08 0.04 -0.04 c0.12 0.12 0.12 -0.04 0.16 -0.12 c0.12 -0.24 0.16 -0.48 0.44 -0.6 c0.08 -0.04 0.12 -0.12 0.04 -0.12 c-0.24 0 -0.16 -0.2 -0.08 -0.28 s0.12 -0.2 0.16 -0.28 c0.04 -0.12 0.2 -0.4 0.2 -0.24 c0 0.04 -0.04 0.12 -0.04 0.16 s0.04 0.12 0.08 0.08 c0.08 -0.08 0.2 -0.12 0.16 -0.2 s-0.16 0.04 -0.2 -0.04 s-0.04 -0.16 0.04 -0.24 s0.36 -0.36 0.16 -0.36 c-0.04 0 0 -0.04 0 -0.04 c0.12 -0.08 0.08 -0.2 0.08 -0.32 c0 -0.08 -0.04 -0.16 0.08 -0.2 s0.2 -0.24 0.2 -0.32 c0 -0.24 -0.04 -0.48 -0.12 -0.72 c-0.04 -0.12 -0.2 -0.44 0.08 -0.44 c0.04 0 -0.16 -0.08 -0.08 -0.08 l0.12 0 c0.08 0 0 -0.08 0 -0.08 c-0.04 -0.12 -0.08 -0.16 -0.08 -0.28 c0 -0.28 0.08 -0.56 0.08 -0.84 c0 -0.08 -0.04 -0.2 0.16 -0.2 c0.04 0 0.04 0 0 -0.04 c-0.16 -0.16 -0.16 -0.36 -0.16 -0.52 c0 -0.56 -0.24 -1.04 -0.32 -1.52 c-0.08 -0.44 -0.44 -0.8 -0.4 -1.28 l-0.04 0 c0 -0.12 -0.08 -0.28 -0.16 -0.32 c-0.28 -0.12 -0.32 -0.48 -0.4 -0.76 c-0.16 -0.6 -0.76 -0.88 -1.2 -1.32 c-0.12 -0.12 -0.28 -0.24 -0.44 -0.36 c-0.2 -0.12 -0.28 -0.32 -0.48 -0.44 c-0.16 -0.12 -0.4 -0.12 -0.52 -0.36 c0 0 -0.12 -0.04 -0.12 0.04 c0 0.04 -0.08 0.04 -0.08 0 c0 -0.16 -0.4 0.08 -0.4 -0.24 l-0.04 0 c-0.12 0.12 -0.16 -0.08 -0.24 -0.08 c-0.04 0 -0.04 0 -0.04 0.04 c0 0.16 -0.12 0.04 -0.16 0.04 c-0.08 0 -0.12 -0.04 -0.16 -0.04 c-0.2 0 -0.32 -0.08 -0.4 -0.2 c-0.04 -0.08 -0.08 -0.12 -0.16 -0.08 c-0.2 0.08 -0.4 -0.04 -0.6 -0.04 c-0.04 0 -0.08 -0.04 -0.12 -0.08 c-0.12 -0.12 -0.28 -0.16 -0.4 -0.04 c-0.04 0.04 -0.08 0.04 -0.12 0 c-0.12 -0.12 -0.2 -0.08 -0.24 -0.04 s-0.12 0.04 -0.2 0.04 s-0.04 0.04 -0.04 -0.04 c0 -0.04 0.04 -0.12 0 -0.12 s-0.16 -0.04 -0.16 0 c0 0.12 -0.12 0.08 -0.16 0 c-0.12 -0.24 -0.48 -0.2 -0.68 -0.08 c-0.12 0.08 -0.2 0.12 -0.28 0 c-0.12 -0.16 -0.36 -0.28 -0.48 -0.16 c-0.04 0.04 -0.08 0 -0.08 0.08 c0 0.12 -0.12 0.12 -0.16 0.04 c-0.08 -0.12 -0.16 -0.08 -0.24 -0.04 s-0.16 0.04 -0.28 0.08 c-0.08 0.04 -0.32 -0.08 -0.32 0.12 c0 0.04 -0.08 0.04 -0.12 0.04 c-0.16 0 -0.32 -0.12 -0.48 -0.04 c-0.08 0.04 -0.08 0.04 -0.16 0 c-0.2 -0.08 -0.4 0 -0.4 0.2 c0 0.28 0.08 0.52 0.04 0.8 c-0.04 0.36 0.12 0.68 0.12 1.08 c0 0.36 0.08 0.72 0.04 1.12 c-0.08 0.72 -0.08 1.44 -0.2 2.16 c-0.16 0.88 -0.24 1.76 -0.16 2.64 c0.04 0.44 0.12 0.84 0.08 1.28 c-0.04 0.64 -0.04 1.24 0.04 1.88 c0.12 0.96 0.04 1.96 0.04 2.92 c0 0.4 -0.12 0.76 -0.08 1.12 c0.04 0.48 0.08 0.96 0.08 1.4 c0 0.12 0.08 0.16 0.2 0.2 c0.16 0.04 0.36 0.04 0.56 0.12 c0.24 0.08 0.52 0.04 0.8 0 c0.24 -0.04 0.52 -0.08 0.76 -0.08 c0.16 0 0.36 -0.08 0.52 0.04 s0.28 0 0.44 -0.04 s0.32 0 0.48 0 s0.2 0.04 0.2 0.2 c0 0.04 0.04 0.08 0 0.12 s-0.12 0 -0.12 -0.04 s-0.08 0 -0.12 0 s-0.04 0.04 -0.04 0.08 c0 0.08 0.08 0.04 0.12 0.04 z M9.44 13.440000000000001 c-0.04 0 -0.16 -0.04 -0.12 -0.08 s0 -0.2 0.08 -0.12 c0.04 0.04 0.28 0 0.2 0.08 c-0.04 0.04 -0.08 0.12 -0.16 0.12 z M24.44 24.68 c0.04 0 0.04 -0.04 0.04 -0.12 c0 -0.04 0 -0.08 -0.08 -0.08 c-0.04 0 -0.12 0.04 -0.12 0.08 s0.08 0.12 0.16 0.12 z M25.04 24.64 c0.04 0 0.12 0 0.12 -0.04 c0 -0.08 -0.12 -0.12 -0.2 -0.12 c-0.04 0 -0.08 0 -0.08 0.04 c0 0.08 0.12 0.12 0.16 0.12 z M46.055 40.2 c-1.08 0.12 -2.16 -0.04 -3.24 -0.04 c-0.6 0 -1.2 -0.08 -1.8 -0.12 c-0.2 -0.04 -0.36 0 -0.56 0 c-0.28 -0.04 -0.52 -0.12 -0.68 -0.36 c-0.08 -0.12 -0.24 -0.2 -0.36 -0.32 c0.16 -0.08 0.16 -0.24 0.2 -0.36 c0.04 -0.16 0.12 -0.36 -0.12 -0.44 c-0.08 -0.04 -0.04 -0.08 0 -0.08 c0.12 -0.08 0.08 -0.16 0.04 -0.24 c-0.04 -0.24 -0.04 -0.44 -0.08 -0.68 c-0.08 -0.36 -0.12 -0.72 -0.2 -1.08 c-0.04 -0.12 -0.12 -0.2 -0.16 -0.32 c-0.12 -0.32 -0.2 -0.64 -0.12 -1 l0 -0.04 c-0.16 -0.2 -0.12 -0.44 -0.16 -0.64 c-0.08 -0.32 -0.12 -0.68 -0.16 -1 c-0.08 -0.44 -0.2 -0.92 -0.2 -1.4 c-0.04 -0.64 -0.24 -1.24 -0.32 -1.84 c-0.08 -0.64 -0.2 -1.28 -0.28 -1.88 c-0.08 -0.64 -0.16 -1.24 -0.2 -1.88 c-0.04 -0.44 -0.04 -0.96 -0.12 -1.4 c-0.16 -0.96 -0.32 -1.88 -0.52 -2.84 l-0.12 -0.96 c-0.04 -0.24 -0.12 -0.52 -0.16 -0.76 c0 -0.04 0 -0.08 -0.04 -0.08 c-0.12 -0.08 -0.16 -0.16 -0.04 -0.28 c0 -0.04 0.04 -0.08 0.04 -0.12 c-0.08 -0.24 -0.04 -0.48 -0.08 -0.76 c-0.12 -0.48 -0.24 -1 -0.32 -1.48 c-0.08 -0.4 -0.08 -0.76 -0.16 -1.12 c-0.08 -0.2 -0.04 -0.4 -0.12 -0.6 c-0.04 -0.08 -0.04 -0.16 0.04 -0.24 c0.12 -0.12 0.12 -0.36 0.16 -0.52 c0.04 -0.08 -0.04 -0.08 -0.12 -0.12 c-0.04 -0.04 -0.08 0 -0.08 0.08 c0 0.04 0 0.12 -0.04 0.2 c0 0 0.04 0.08 0 0.08 s-0.04 -0.08 -0.04 -0.12 c0 0 -0.04 -0.04 -0.04 -0.08 c0.04 -0.12 0.08 -0.24 -0.16 -0.2 c-0.2 0.04 -0.32 -0.24 -0.24 -0.44 c0.08 -0.12 0.12 -0.28 0.32 -0.16 c0 0 0.04 0 0.04 -0.04 c0.04 0 0 -0.04 0 -0.04 c-0.04 0 -0.04 -0.04 -0.08 -0.04 c-0.04 -0.04 -0.16 -0.08 -0.12 -0.08 c0.04 -0.08 0.12 0 0.16 0 c0.12 0.04 0.2 0.12 0.36 0.12 c0.12 -0.04 0.16 -0.08 0.08 -0.2 s-0.16 -0.24 -0.36 -0.24 c-0.04 0 -0.12 0.04 -0.12 -0.04 s0.04 -0.08 0.08 -0.12 c0.04 0 0.08 -0.04 0.04 -0.08 c0 -0.08 -0.04 -0.08 -0.08 -0.08 l-0.72 -0.12 c-0.04 0 -0.08 0 -0.08 -0.04 s0.04 -0.04 0.08 -0.04 c0.24 0 0.48 -0.04 0.68 -0.08 c0.04 -0.04 0.08 0 0.08 -0.04 c0 0 -0.04 -0.04 -0.08 -0.04 c-0.04 -0.04 -0.16 -0.04 -0.2 -0.08 s-0.08 -0.04 -0.08 -0.08 s0.04 -0.04 0.08 -0.04 c0.44 -0.08 0.92 -0.12 1.4 -0.08 c0.2 0.04 0.4 -0.04 0.6 -0.04 l1.2 -0.12 c0.08 0 0.2 0.04 0.28 0.08 s0.16 0.12 0.24 0 l0.08 0 c0.04 0.12 0.12 0.16 0.24 0.16 c0.04 0 0.08 0.08 0.04 0.12 s-0.08 0.08 -0.04 0.12 c0.04 0.08 0.08 0 0.12 0 c0.24 -0.08 0.36 0 0.36 0.2 c0 0.08 0.04 0.08 -0.04 0.12 c-0.32 0.04 -0.4 0.28 -0.24 0.52 c0.04 0.08 0.04 0.16 0.04 0.24 c-0.04 0.16 0.04 0.32 0.08 0.44 c0.04 0.2 0.12 0.36 0.04 0.56 c-0.08 0.12 0.16 -0.04 0.08 0.08 s0 0.2 0.04 0.28 c0.04 0.12 0.16 0.28 0.16 0.44 c0 0.04 0.04 0.12 -0.08 0.12 l0 0 c0 -0.12 0 -0.2 -0.16 -0.28 c-0.04 -0.04 -0.08 -0.04 -0.12 0 c-0.04 0 -0.08 0.04 -0.04 0.12 c0.08 0.16 -0.04 0.32 0 0.48 c-0.2 0.08 -0.16 0.28 -0.16 0.44 c0 0.08 0.04 0.12 0.08 0.2 c0 0.12 0.08 0.2 0.08 0.36 c-0.04 0.12 0.08 0.2 0.2 0.24 c-0.04 0.08 -0.2 0.08 -0.16 0.24 c0.08 0.24 0.2 0.44 0.2 0.68 l0 0.04 c0.12 0.16 0.12 0.16 0.12 0.28 c0 0.04 0 0.08 0.04 0.12 c0 -0.04 0 -0.08 0.04 -0.12 c0 -0.04 -0.04 -0.08 0 -0.12 c0.08 0 0.08 0.08 0.08 0.12 c0.24 0.04 0.4 0.16 0.44 0.44 l0.08 0 l0.04 0 l0 0.04 c-0.08 0.04 -0.16 0.08 -0.28 0.08 c0 -0.04 -0.04 -0.04 0 -0.08 c0.08 -0.12 -0.04 -0.08 -0.08 -0.08 c-0.04 -0.04 -0.16 -0.08 -0.16 0.04 c0 0.04 -0.04 0.16 0.08 0.12 c0.04 0 0.08 0.04 0.12 0.04 c0.2 0.08 0.2 0.16 0.04 0.28 c-0.08 0.04 -0.08 0.08 0.04 0.12 c0.08 0.04 0.24 0.08 0.2 0.24 c0 0.04 0.04 0.08 -0.04 0.08 s-0.12 0 -0.08 -0.08 c0.04 -0.12 -0.08 -0.08 -0.12 -0.08 c-0.08 0 -0.04 0.08 -0.04 0.12 c0.08 0.12 0.04 0.24 0.12 0.36 c0.04 0.08 0 0.24 0.2 0.28 c0.12 0 0.16 0.2 0.28 0.28 c0.04 0.04 -0.08 0.08 -0.12 0.08 s-0.12 0 -0.08 0.04 c0.04 0.08 0.12 0.04 0.2 0 c0.04 0 0.16 -0.04 0.12 -0.12 s-0.12 -0.08 -0.04 -0.16 c0.04 -0.04 -0.04 -0.08 -0.08 -0.08 s-0.12 -0.04 -0.12 -0.08 c0.04 -0.04 0.12 -0.04 0.2 -0.08 c0.04 -0.04 0.08 0 0.08 0.08 c0.04 0.08 0.08 0.2 0.08 0.32 c-0.08 0.12 0.08 0.32 -0.12 0.44 c0.04 -0.08 0 -0.12 0 -0.16 s0.04 -0.12 -0.04 -0.12 c-0.04 0 -0.12 0.04 -0.12 0.12 s0.04 0.2 0.16 0.16 c-0.08 0.04 0.12 0.24 -0.08 0.16 c-0.04 0 -0.04 0.08 0 0.08 c0.16 0.04 0.12 0.2 0.24 0.28 l-0.04 0 c-0.08 0.04 -0.16 0.08 -0.12 0.2 c0 0.04 -0.04 0.08 -0.08 0.08 c-0.08 0 -0.08 -0.04 -0.08 -0.08 l0 -0.04 c-0.04 -0.08 0.04 -0.2 -0.04 -0.2 s-0.08 0.16 -0.08 0.24 c-0.04 0.08 -0.04 0.24 0.04 0.28 c0.12 0.08 0.16 -0.12 0.24 -0.16 c0.04 -0.04 0.08 -0.16 0.2 -0.12 c0.08 0.08 0.16 0.16 0.16 0.28 c0 0.16 0.08 0.28 0.08 0.44 c0.12 0.64 0.28 1.32 0.4 1.96 c0.08 0.68 0.24 1.36 0.32 2.04 c0 0.2 0.04 0.4 0.08 0.6 c0.08 0.44 0.12 0.88 0.12 1.28 c0 0.16 0.08 0.32 0.08 0.48 c0 0.56 0.16 1.08 0.24 1.64 c0.04 0.4 0.24 0.76 0.28 1.2 c0.04 0.16 0 0.36 0.08 0.56 c0.04 0 0 0.08 0.08 0.04 c0.04 0 0 -0.04 0.04 -0.04 c0.12 -0.64 0.32 -1.28 0.4 -1.92 c0.04 -0.52 0.16 -1 0.24 -1.52 c0.08 -0.4 0.24 -0.8 0.32 -1.2 c0.08 -0.36 0.16 -0.76 0.24 -1.12 c0.2 -0.76 0.28 -1.52 0.6 -2.24 c0 -0.04 -0.04 -0.08 -0.04 -0.12 c0.04 -0.08 0.04 -0.16 0.12 -0.08 c0.04 0 0.12 -0.04 0.08 -0.08 c-0.2 -0.16 0 -0.12 0.08 -0.12 c0.08 -0.04 0.08 -0.24 0 -0.28 s-0.08 -0.12 -0.04 -0.2 l0.12 -0.6 c0 -0.08 0 -0.16 0.12 -0.16 c0.04 -0.04 0.04 -0.04 0.04 -0.08 c-0.04 -0.16 -0.04 -0.32 0.16 -0.44 c0.04 -0.04 -0.04 -0.04 -0.04 -0.08 c-0.08 -0.04 -0.12 -0.08 0 -0.12 l0.04 -0.04 c-0.16 -0.28 0 -0.44 0.16 -0.64 c0 -0.04 0.04 -0.08 -0.04 -0.08 l0 -0.04 c-0.04 -0.08 0.24 -0.64 0.28 -0.68 c0.08 0 0.08 -0.04 0 -0.08 l0 -0.04 c0.16 -0.16 0.08 -0.4 0.16 -0.6 c0.04 -0.04 0.04 -0.16 0.16 -0.08 c0.08 0.04 0.08 -0.04 0.04 -0.08 c-0.08 -0.36 0.12 -0.68 0.16 -1 c0 -0.04 0.04 -0.04 0.08 -0.08 c0.08 0 0.08 -0.04 0.04 -0.12 l0 -0.04 c0.16 -0.08 0.16 -0.2 0.16 -0.32 c0.04 -0.2 0.24 -0.36 0.24 -0.52 c-0.04 -0.2 0.08 -0.28 0.08 -0.44 c-0.04 -0.08 0 -0.16 0.04 -0.2 c0.12 -0.2 0.12 -0.44 0.2 -0.64 c0.12 -0.28 0.12 -0.52 0.2 -0.76 c0.04 -0.16 0.16 -0.28 0.24 -0.4 c0.08 -0.2 0.12 -0.44 0.2 -0.64 c0.04 -0.12 0.12 -0.2 0.16 -0.36 c0 -0.04 0.04 0 0.08 0 c0 0.04 -0.04 0.16 0.08 0.08 c0.04 -0.04 0.04 -0.12 -0.04 -0.16 c-0.04 0 -0.04 -0.04 -0.04 -0.04 c-0.2 -0.12 -0.2 -0.2 -0.08 -0.4 c0.08 -0.08 0.2 -0.2 0.16 -0.32 s-0.2 -0.08 -0.32 -0.08 c-0.36 0 -0.64 -0.12 -0.92 -0.28 c-0.04 -0.04 -0.12 -0.08 -0.12 -0.12 c0.04 -0.08 0.08 -0.12 0.16 -0.12 l0.68 0 c0.08 0 0.16 -0.04 0.16 -0.16 c-0.04 -0.12 0.04 -0.12 0.12 -0.16 c0.12 0 0.24 -0.04 0.4 0 c0.08 0 0.16 0 0.24 -0.08 c0.04 -0.04 0.08 -0.08 0.16 -0.08 c0.32 0.04 0.6 -0.12 0.92 -0.04 c0.16 0 0.28 0 0.44 -0.04 c0.28 -0.04 0.56 -0.04 0.8 0 c0.32 0.08 0.6 -0.08 0.88 -0.04 c0.2 0 0.4 -0.04 0.56 0 c0.2 0.08 0.4 0.16 0.48 0.4 c0 0.08 0.04 0.2 0.08 0.28 c0.04 0.04 0.04 0.12 -0.04 0.16 c-0.12 0.12 -0.28 0.16 -0.44 0.2 c-0.12 0.04 -0.2 0.08 -0.12 0.2 c0 0.08 -0.04 0.16 -0.12 0.2 l-0.24 0.24 c-0.12 0.08 -0.04 0.16 0 0.2 s0.04 0.04 0.12 0 c0.04 -0.04 0.08 -0.04 0.08 0 c0 0.12 0.12 0.2 -0.04 0.28 c-0.04 0 0 0.04 0.04 0.04 c0.08 0.08 0.2 0.12 0 0.2 l0 0.04 c0 0.04 0.04 0.04 0.04 0.04 c0.08 -0.04 0.12 -0.08 0.16 -0.08 c0.08 -0.04 0.12 -0.04 0.12 0.04 c0.04 0.04 0.08 0.08 -0.04 0.12 c-0.04 0 -0.04 0.04 -0.04 0.04 c0.2 0.16 0.04 0.36 0.12 0.52 c0.04 0.04 0.04 0.12 0.08 0.08 c0.04 0 0.04 -0.08 0.04 -0.12 l0 0 c-0.04 -0.08 0 -0.16 0 -0.24 l0.04 0.04 c0 0.08 0.12 0.16 0.04 0.24 c-0.12 0.28 0 0.44 0.16 0.6 c0.2 0.16 0.32 0.4 0.36 0.64 c0.04 0.4 0.24 0.8 0.28 1.2 s0.24 0.72 0.32 1.12 c0.04 0.36 0.2 0.76 0.32 1.12 c0.04 0.12 0.08 0.28 0.04 0.44 c-0.04 0.08 0.04 0.08 0.08 0.12 c0.04 0.2 0.08 0.44 0.16 0.64 c0.04 0.2 0.12 0.36 0.16 0.56 c0.08 0.32 0.12 0.68 0.24 1 c0.16 0.56 0.32 1.12 0.52 1.72 c0.08 0.24 0.16 0.48 0.2 0.72 c0.04 0.4 0.2 0.8 0.28 1.24 c0.2 0.8 0.44 1.56 0.64 2.36 c0.12 0.52 0.16 1.04 0.28 1.56 c0.04 0.32 0.12 0.68 0.24 1 c0 0.04 0 0.16 0.08 0.16 c0.08 -0.04 0.08 -0.12 0.08 -0.16 c0.16 -0.64 0.28 -1.24 0.44 -1.88 c0.12 -0.52 0.16 -1.08 0.28 -1.6 c0.12 -0.64 0.24 -1.24 0.36 -1.88 c0.08 -0.36 0.08 -0.76 0.2 -1.12 c0.04 -0.2 0.04 -0.36 0.16 -0.52 c0.04 -0.04 0.04 -0.12 0.04 -0.2 c0 -0.04 0 -0.12 0.08 -0.12 c0.04 -0.04 0.04 -0.08 0 -0.12 c-0.16 -0.12 0.04 -0.28 0.04 -0.4 c0 -0.2 0.12 -0.2 0.24 -0.28 c0.04 -0.04 0 -0.2 0.08 -0.32 c0.04 0 -0.04 -0.04 -0.08 -0.04 c-0.08 0 -0.12 -0.04 -0.12 -0.12 c0 -0.04 -0.04 -0.12 0 -0.12 c0.08 -0.04 0.08 0.04 0.12 0.08 l0 0.08 c0.04 0 0.08 -0.04 0.08 -0.08 c0.04 -0.08 0.08 -0.2 0 -0.32 c-0.04 -0.04 0.04 -0.2 0.08 -0.28 c0.12 -0.12 0.16 -0.24 0.12 -0.4 c-0.04 -0.08 -0.04 -0.24 0 -0.32 c0.16 -0.16 0.08 -0.4 0.24 -0.56 c0.04 -0.04 0.16 -0.2 0.04 -0.36 c-0.12 -0.12 -0.12 -0.36 0.08 -0.48 c0.04 -0.04 0 -0.08 0 -0.12 c0.12 -0.36 0.16 -0.72 0.2 -1.12 c0.04 -0.12 0.16 -0.2 0.16 -0.36 c0.04 -0.12 0 -0.28 0.04 -0.4 c0.04 -0.44 0.16 -0.84 0.28 -1.24 c0.04 0 0.04 -0.04 0.08 -0.08 c0.2 -0.04 0.16 -0.2 0.08 -0.32 c-0.04 -0.08 -0.08 -0.12 0 -0.24 c0.08 -0.08 0.12 -0.24 0.12 -0.36 c0.08 -0.28 0.16 -0.52 0.04 -0.8 c0 -0.04 -0.08 -0.16 0.08 -0.08 c0.08 0.04 0.12 -0.04 0.12 -0.08 c-0.04 -0.24 0.12 -0.44 0.2 -0.68 c0.04 -0.16 0.16 -0.32 0.36 -0.4 c0.16 -0.04 0.16 0 0.2 0.12 c0 0 -0.04 0.04 -0.04 0.08 c0 0.08 -0.04 0.2 0.04 0.2 c0.04 0.04 0.08 -0.08 0.08 -0.16 c0 -0.04 0.04 -0.04 0.08 -0.04 s0.08 0.04 0.08 0.08 s0 0.08 -0.04 0.08 c0 0.08 0 0.12 0.08 0.12 c0.04 0 0.08 -0.04 0.08 -0.12 c-0.04 -0.08 0 -0.12 0 -0.2 c0.12 -0.2 0.04 -0.36 -0.24 -0.36 c-0.2 -0.04 -0.36 -0.12 -0.6 -0.08 c-0.08 0.04 -0.08 -0.04 -0.04 -0.08 c0.08 -0.08 0.16 -0.16 0.24 -0.2 s0.16 0 0.16 -0.12 c0 -0.08 -0.04 -0.16 -0.12 -0.2 c-0.04 0 -0.08 -0.04 -0.12 -0.04 c-0.08 0 -0.12 0 -0.12 -0.08 s0.04 -0.12 0.08 -0.12 c0.28 0 0.56 -0.16 0.8 0 c0.08 0.04 0.16 0 0.2 0 c0.16 0 0.24 0.12 0.16 0.24 c-0.16 0.28 -0.04 0.6 -0.16 0.88 c-0.04 0.04 0 0.08 0.04 0.12 c0 0 0.04 0 0.08 -0.04 c0.04 0 0 -0.04 0 -0.08 c0 -0.16 0.08 -0.32 0.08 -0.48 l0.04 -0.04 c0.2 0.16 0.16 -0.04 0.2 -0.12 c0.04 -0.04 0.08 -0.12 -0.04 -0.16 c-0.04 0 -0.12 -0.04 -0.08 -0.12 c0.04 -0.04 0.08 0 0.12 0.04 c0.08 0.04 0.2 0.04 0.24 -0.08 c0.04 -0.24 0.2 -0.16 0.32 -0.2 c0.04 0 0.08 0.04 0.08 0.04 c-0.12 0.16 -0.04 0.24 0.08 0.32 c-0.08 0.2 0.12 0.24 0.2 0.32 c0.16 0.2 0.32 0.16 0.52 0.08 s0.2 -0.36 0 -0.52 l-0.04 -0.04 s0.04 0 0.04 -0.04 c0.44 -0.08 0.84 0.04 1.24 0.2 c0.16 0.04 0.16 0.2 0.24 0.32 c0 0.12 -0.12 0.16 -0.2 0.2 c-0.16 0.16 -0.24 0.32 -0.32 0.56 c-0.08 0.36 -0.08 0.72 -0.2 1.04 c-0.04 0.08 0.04 0.24 0.12 0.28 c0.04 0 0 0.04 0 0.08 c-0.08 0.28 -0.12 0.64 -0.32 0.88 l0 0.12 c0.12 0.2 0.08 0.28 -0.12 0.4 c-0.04 0.04 -0.04 0.12 0 0.12 c0.08 0.08 0.04 0.16 0.04 0.28 c-0.04 0.36 -0.2 0.72 -0.24 1.12 c-0.04 0.16 -0.12 0.36 -0.2 0.56 c-0.04 0.12 0 0.28 -0.2 0.32 c-0.04 0 0.04 0 0.04 0 c0.2 0.04 0.12 0.2 0.08 0.28 c-0.16 0.24 -0.2 0.52 -0.2 0.76 c0 0.56 -0.12 1.12 -0.2 1.64 c-0.04 0.24 -0.08 0.48 -0.08 0.72 c-0.04 0.08 -0.08 0.2 -0.08 0.28 c-0.08 0.44 -0.2 0.84 -0.24 1.28 c0 0.16 -0.08 0.24 -0.12 0.4 c-0.04 0.4 -0.04 0.8 -0.16 1.2 c-0.12 0.52 -0.2 1.08 -0.32 1.6 c-0.08 0.32 -0.08 0.64 -0.16 0.96 c-0.08 0.64 -0.24 1.28 -0.32 1.92 c-0.16 1.08 -0.44 2.12 -0.68 3.2 c-0.04 0.32 -0.12 0.6 -0.2 0.92 c-0.2 0.6 -0.2 1.24 -0.28 1.88 c-0.08 0.6 -0.16 1.16 -0.32 1.76 c-0.04 0.12 -0.04 0.2 0.04 0.28 c0.2 0.24 0.16 0.68 -0.04 0.8 c-0.04 0 -0.08 0.04 -0.08 0.04 c-0.12 -0.16 -0.2 0.04 -0.28 0.04 l-0.44 0 c-0.12 0 -0.28 -0.04 -0.4 -0.08 c-0.12 0 -0.24 -0.12 -0.36 -0.16 c-0.08 -0.04 -0.08 -0.08 -0.08 -0.12 s0.04 -0.08 0.08 -0.08 c0.08 -0.04 0.04 0.04 0.08 0.08 c0 0 0.04 0.04 0.08 0 l0 -0.04 c0 -0.12 -0.12 -0.12 -0.2 -0.12 s-0.08 0.04 -0.12 0.12 c0 0.16 -0.08 0.2 -0.2 0.16 s-0.2 -0.08 -0.28 -0.16 l-0.12 0 c-0.4 0.2 -0.84 0.12 -1.28 0.16 l-0.32 0 c-0.08 0 -0.2 0.04 -0.2 0.16 c0 0.08 -0.08 0.08 -0.12 0.08 c-0.28 0.12 -0.52 0.16 -0.76 -0.04 c-0.12 -0.12 -0.32 -0.12 -0.44 -0.2 c-0.2 -0.12 -0.44 -0.12 -0.68 -0.16 c0 0 -0.04 0.04 -0.04 0 s0.04 -0.04 0.04 -0.04 c0.04 0 0.12 -0.04 0.16 -0.04 c0.08 0 0.12 -0.04 0.08 -0.2 c-0.08 -0.64 -0.28 -1.28 -0.48 -1.92 c-0.24 -0.8 -0.36 -1.68 -0.56 -2.52 c-0.12 -0.48 -0.28 -0.96 -0.4 -1.4 c-0.16 -0.36 -0.2 -0.72 -0.32 -1.08 c-0.28 -0.76 -0.4 -1.52 -0.48 -2.32 c-0.04 -0.28 -0.16 -0.52 -0.24 -0.8 c-0.08 -0.56 -0.2 -1.08 -0.32 -1.6 c-0.12 -0.44 -0.2 -0.88 -0.28 -1.28 c-0.16 -0.76 -0.4 -1.52 -0.6 -2.28 c-0.32 -1.24 -0.68 -2.44 -0.84 -3.72 c-0.04 -0.12 -0.08 -0.28 -0.08 -0.44 c0 -0.04 -0.04 -0.08 -0.12 -0.08 c-0.04 0 -0.04 0.04 -0.04 0.08 c0 0.16 -0.08 0.36 -0.12 0.52 c0 0.28 -0.08 0.56 -0.08 0.84 c0.04 0.08 0 0.12 0 0.2 c-0.04 0.24 -0.12 0.48 -0.16 0.76 c-0.04 0.2 -0.12 0.4 -0.16 0.64 c-0.12 0.56 -0.28 1.08 -0.4 1.64 c-0.04 0.2 -0.16 0.44 -0.24 0.64 c-0.12 0.48 -0.32 0.92 -0.44 1.4 c-0.16 0.52 -0.28 1.04 -0.36 1.56 c-0.16 0.8 -0.28 1.6 -0.44 2.36 c-0.12 0.52 -0.2 1.04 -0.36 1.56 c-0.12 0.52 -0.32 1.04 -0.4 1.6 c-0.12 0.44 -0.2 0.92 -0.32 1.4 c-0.08 0.2 -0.16 0.44 -0.28 0.64 c-0.24 0.52 -0.36 1.08 -0.36 1.64 c-0.04 0.28 -0.12 0.56 -0.2 0.8 c-0.12 0.32 -0.2 0.64 -0.16 1 c0.04 0.04 -0.04 0.16 0.08 0.16 c-0.04 0.08 -0.12 0.12 -0.16 0.12 c-0.04 0.04 -0.08 0.08 0 0.08 c0.28 0.12 0.36 0.4 0.36 0.64 c0.04 0.24 -0.04 0.28 -0.24 0.32 z M44.175 36.44 c0.04 -0.04 0.2 0.04 0.2 -0.12 c0 -0.04 0 -0.16 -0.12 -0.12 c-0.12 0 -0.12 0.08 -0.12 0.16 c0 0.04 -0.04 0.12 0.04 0.08 z M44.334999999999994 35.8 c0.04 0.04 0.04 0 0.04 -0.04 c0.08 -0.04 0.04 -0.16 0.12 -0.12 c0.08 0.08 0.08 0.04 0.08 -0.04 c0.04 -0.04 0.08 -0.12 0.12 -0.12 c0.2 0 0.2 -0.12 0.2 -0.24 c0.04 -0.16 0.08 -0.28 0.08 -0.44 c0 0 -0.08 0 -0.04 -0.04 s0.08 -0.08 0.12 -0.04 c0.24 0.24 0.08 -0.12 0.16 -0.12 c0 -0.12 -0.08 -0.12 -0.12 -0.08 c-0.08 0.04 -0.16 0 -0.16 -0.04 c-0.04 -0.04 -0.04 -0.12 -0.08 -0.08 c-0.08 0.04 -0.12 0.12 -0.16 0.2 c0 0.04 0.08 0.04 0.08 0.04 c0.04 0 0.12 0 0.12 0.04 s-0.04 0.04 -0.04 0.08 c-0.04 0.04 -0.08 0.04 -0.12 0 c-0.08 -0.08 -0.12 -0.04 -0.16 0.08 c-0.12 0.28 -0.12 0.6 -0.24 0.88 c0 0.04 -0.04 0.08 0 0.08 z M40.574999999999996 29.92 c-0.08 -0.12 -0.16 -0.16 -0.28 -0.2 c0 0 0 -0.04 -0.04 -0.08 c0 -0.12 0.04 -0.12 0.12 -0.04 c0.04 0 0.04 0.04 0.08 0.04 c0.24 -0.08 0.08 0.16 0.2 0.24 c0 0 -0.08 0.08 -0.08 0.04 z M45.175 34.16 c0.12 0 0.08 -0.12 0.12 -0.2 c0 -0.08 -0.08 -0.08 -0.12 -0.08 s-0.08 0.04 -0.08 0.08 c0.04 0.08 0 0.2 0.08 0.2 z M40.415 29.52 c-0.04 -0.08 0 -0.16 -0.04 -0.2 l0 -0.08 c0.04 -0.04 0.04 -0.12 0.08 -0.16 c0.04 0.04 0.04 0.08 0.04 0.16 l0.04 0 c0 0.08 0.08 0.16 0 0.24 c0 0.04 -0.08 0.04 -0.12 0.04 z M45.214999999999996 33.8 c0 0 0.08 -0.04 0.04 -0.08 c-0.12 -0.08 0 -0.16 0 -0.24 c0.04 0 0.08 -0.08 0.08 0.04 c0 0.04 0.12 0.04 0.12 0.04 c-0.04 -0.12 0.16 -0.16 0.12 -0.28 c-0.04 -0.04 0.04 -0.08 0 -0.08 s-0.08 0.04 -0.08 0.04 c0 0.04 0 0.12 -0.04 0.08 c-0.04 0 -0.04 -0.04 -0.04 -0.08 s-0.04 -0.08 -0.08 -0.08 s0 0.08 -0.04 0.12 c0 0.04 0 0.12 -0.04 0.2 c-0.12 0 -0.24 0.04 -0.24 0.2 c0.04 0.08 0.12 0.12 0.2 0.12 z M41.214999999999996 31.439999999999998 c0.08 -0.04 0.12 -0.08 0.12 -0.16 c-0.08 -0.16 0.08 -0.4 -0.16 -0.56 c-0.04 -0.04 0 -0.12 0.04 -0.12 c0.08 -0.08 0.04 -0.2 0.16 -0.28 c0.04 -0.04 0 -0.12 -0.04 -0.12 c-0.08 0 -0.16 0 -0.08 -0.08 c0 -0.08 -0.04 -0.24 0.12 -0.24 c0.04 0 0.12 0.04 0.08 -0.12 c-0.08 -0.08 -0.08 -0.2 -0.04 -0.32 c0 -0.12 -0.04 -0.2 -0.08 -0.32 c-0.04 -0.08 -0.12 0.04 -0.16 0.04 s-0.08 0 -0.08 -0.04 s0.04 -0.04 0.04 -0.04 c0.08 0 0.12 -0.04 0.12 -0.12 c0 -0.04 -0.04 -0.04 -0.12 -0.08 c-0.08 0 -0.24 -0.04 -0.04 -0.16 c0.12 -0.04 0.16 -0.28 0.12 -0.32 c-0.12 0 -0.08 0 -0.08 -0.08 c0.04 -0.12 0.08 -0.32 -0.08 -0.4 c-0.12 -0.12 0.04 -0.28 -0.12 -0.36 l0.04 0 c0.24 -0.12 -0.04 -0.28 0.04 -0.44 c0 -0.08 -0.04 -0.24 -0.04 -0.36 s0 -0.24 -0.16 -0.32 c-0.12 -0.04 -0.16 -0.12 -0.12 -0.28 c0.04 -0.08 0 -0.2 -0.08 -0.24 c-0.16 -0.08 -0.08 -0.12 0 -0.12 c0.2 -0.04 0.16 -0.12 0.08 -0.2 c-0.08 -0.12 -0.12 -0.24 0 -0.4 c0.04 -0.04 0.04 -0.16 -0.04 -0.2 c-0.16 -0.12 -0.2 -0.16 -0.12 -0.28 c0 0 0 -0.04 -0.04 -0.04 c-0.04 -0.08 -0.04 -0.2 -0.16 -0.12 c-0.04 0.04 -0.28 0.08 -0.12 0.24 c0.04 0.04 0.08 0.08 0.08 0.12 c0 0.08 0.08 0.12 0.04 0.12 c-0.04 0.04 -0.12 0.12 -0.16 0 c-0.08 -0.04 -0.12 -0.04 -0.08 0.04 c0.04 0.2 0 0.36 0.08 0.56 c0 0.04 0 0.12 -0.04 0.12 c-0.08 -0.08 -0.2 -0.04 -0.28 -0.12 c-0.08 -0.16 -0.24 -0.08 -0.32 -0.04 c-0.08 0 -0.12 0 -0.16 -0.04 c-0.04 -0.08 0.04 -0.08 0.08 -0.08 c0.04 -0.08 0.04 -0.12 0.08 -0.2 c0 0 -0.04 0 -0.04 -0.04 c-0.04 0.12 -0.2 0.08 -0.2 0.16 c-0.04 0.12 -0.12 0.24 -0.12 0.36 c-0.04 0.08 -0.04 0.16 0.04 0.16 c0.12 0.04 0.12 0.2 0.28 0.2 c0.04 0 0.04 0.04 0.04 0.08 c0 0.12 0.04 0.2 0.04 0.28 c0 0.12 0.04 0.24 -0.04 0.28 c-0.04 0.04 -0.12 0 -0.12 0.04 c0 0 0.08 0.04 0.12 0.08 c0 0.04 0.12 0.04 0.08 0.08 c-0.04 0.08 -0.12 0 -0.16 0.04 c-0.08 0 -0.08 -0.16 -0.16 -0.08 c-0.04 0.04 0 0.12 0 0.2 c0.04 0.12 0.04 0.24 0.04 0.32 c0.04 0.2 0.08 0.36 0.12 0.52 c0 0.08 0.2 0.16 0 0.24 c-0.04 0 -0.04 0.04 0 0.04 c0.04 0.16 0 0.32 0.16 0.4 c0.04 0 0.04 0.04 0.04 0.04 c0 0.04 -0.04 0.04 -0.04 0.04 c-0.12 -0.08 -0.08 0.04 -0.08 0.08 c0 0.08 0 0.2 0.08 0.16 c0.16 0 0.16 0.08 0.24 0.12 c0.04 0 0.08 0 0.04 0.04 c0 0.04 -0.04 0.08 -0.08 0.04 c-0.04 0 -0.04 -0.04 -0.08 -0.08 c-0.08 -0.04 -0.12 0 -0.16 0.04 c-0.04 0.08 0.04 0.08 0.08 0.08 c0.16 0.04 0.12 0.16 0.16 0.24 c0 0.04 0 0.16 0.12 0.12 c0.04 0 0.04 -0.08 0.12 0 l0 0.08 c-0.04 0.04 -0.08 0.04 -0.16 0.04 c-0.28 0 -0.36 0.08 -0.28 0.36 c0 0.08 0.08 0.12 0.12 0.12 s0.04 -0.04 0.04 -0.08 s-0.04 -0.12 0.04 -0.12 c0.04 -0.04 0.08 0.04 0.08 0.08 c0.04 0.08 0.2 0.04 0.16 0.12 c-0.12 0.12 -0.08 0.2 0.08 0.24 c0.04 0 0.04 0.04 0.04 0.08 c-0.08 0.16 0.16 0.2 0.12 0.32 c0 0.04 0.08 0 0.08 -0.04 l0 -0.12 l0 -0.12 s0 -0.12 0.04 -0.04 c0.08 0.08 0.12 0 0.16 -0.04 c0.04 0 0.08 -0.04 0.12 0.04 c0.08 0.12 0.16 0.24 0.32 0.16 c0.04 0 0.08 0.04 0.08 0.08 c0.04 0.08 0.08 0.16 0 0.28 c-0.04 0.12 -0.12 0.24 0.04 0.36 c0.04 0 0.04 0.12 0.08 0.08 z M39.295 26.72 c0.08 -0.04 0.16 -0.04 0.2 -0.16 c-0.04 -0.08 -0.16 -0.12 -0.16 -0.2 c-0.16 0.08 -0.04 0.2 -0.08 0.32 c-0.04 0 0 0.04 0.04 0.04 z M45.375 33.04 c0 0.04 0.04 0 0.04 -0.04 c0.04 -0.16 0.16 -0.16 0.28 -0.16 s0.04 -0.16 0.12 -0.16 c0 0 0.04 -0.04 0 -0.04 c-0.08 0 -0.12 0 -0.16 0.08 c-0.04 0.04 -0.12 0.04 -0.16 0.08 s-0.04 0.04 -0.08 0.04 c0.04 -0.04 0.04 -0.04 0.04 -0.08 c0.04 -0.08 0.16 -0.08 0.16 -0.2 c0 -0.08 -0.08 -0.12 -0.16 -0.16 c-0.08 -0.08 -0.08 0.08 -0.08 0.08 c-0.2 0.12 0 0.32 -0.12 0.48 c-0.04 0.04 0.12 -0.04 0.12 0.08 z M40.135 26.96 c-0.04 0 -0.04 -0.04 -0.04 -0.08 c0 -0.08 0.08 -0.16 0.16 -0.16 c0.04 0 0.08 0.04 0.04 0.08 s-0.04 0.16 -0.16 0.16 z M45.855 32.36 c0.08 0 0.12 -0.04 0.12 -0.12 c0 -0.04 -0.08 -0.12 -0.16 -0.12 c-0.12 0 -0.04 0.04 0 0.12 c0 0.04 -0.04 0.04 -0.08 0 c-0.04 0 -0.08 0 -0.04 0.04 s0.12 0.08 0.16 0.08 z M39.775 26.68 c-0.04 0 -0.12 -0.08 -0.16 -0.16 c0 -0.12 0.16 -0.32 0.28 -0.32 c0.04 0 0.08 -0.08 0.12 0 c0 0.04 -0.04 0.04 -0.08 0.08 c-0.04 0 -0.08 0 -0.08 0.04 l0.12 0 c0.12 -0.04 0.16 -0.12 0.12 -0.24 c0 -0.04 0 -0.08 0.04 -0.08 l0.04 0.04 c-0.04 0.16 0.08 0.24 0.12 0.36 c0 0.08 0 0.12 -0.08 0.16 c0 0.12 -0.04 0.16 -0.12 0.08 c-0.04 -0.08 -0.12 -0.16 -0.2 -0.2 s-0.12 0 -0.12 0.08 c0.04 0.08 0.08 0.16 0 0.16 z M40.214999999999996 26.560000000000002 c0.08 -0.04 0.08 -0.08 0.08 -0.16 c0.04 -0.04 0.08 -0.12 0.16 -0.12 c0.04 0 0.08 -0.04 0.12 0.04 c0.04 0.04 -0.04 0.04 -0.08 0.04 c-0.04 0.04 -0.04 0.08 0 0.12 c0.04 0 0.12 0.04 0.12 0.08 c-0.04 0.08 -0.12 0 -0.16 0 c-0.08 0 -0.16 0.08 -0.24 0 z M39.055 22.96 l-0.04 -0.04 c0 -0.12 0.08 -0.16 0.12 -0.24 c0 -0.04 0.08 -0.04 0.12 -0.04 c0 -0.04 0.04 0 0.04 0 c-0.08 0.12 -0.16 0.2 -0.24 0.32 z M55.415 39.16 c0.08 0 0 -0.16 0.04 -0.24 l0 -0.04 s0 -0.12 -0.08 -0.12 s-0.08 0.12 -0.04 0.12 c0.08 0.08 -0.04 0.28 0.08 0.28 z M41.695 24.4 c0.08 -0.04 0.12 -0.08 0.16 -0.16 c0 -0.08 -0.08 -0.08 -0.12 -0.08 c-0.08 0 -0.12 0 -0.12 0.08 c0 0.04 0 0.12 0.08 0.16 z M41.254999999999995 23.6 c0.04 0 0.12 0.04 0.12 0 c0 -0.16 0.16 -0.2 0.24 -0.32 c0.04 0 0.08 -0.08 0.04 -0.08 c-0.12 0 -0.16 -0.2 -0.28 -0.12 c-0.04 0.04 -0.12 -0.04 -0.16 -0.08 c-0.04 0 -0.08 -0.04 -0.08 -0.08 c-0.04 0.04 -0.08 0.04 -0.08 0.08 c0.04 0.08 0.04 0.2 0.04 0.28 c0.04 0.04 0.04 0.08 0.08 0.08 c0.16 0 0.16 0 0.08 0.16 c0 0.04 -0.04 0.04 0 0.08 z M40.974999999999994 22.28 c0.08 0 0.04 -0.08 0.04 -0.12 l0 -0.16 s0.12 -0.04 0.08 -0.08 s-0.12 -0.04 -0.16 0 c-0.08 0.04 0.04 0.12 0 0.16 c0 0 -0.04 0.04 0 0.08 c0 0.04 0 0.12 0.04 0.12 z M41.535 22.52 c-0.08 0 -0.08 -0.08 -0.08 -0.16 l0.04 0 c-0.04 -0.12 -0.12 -0.28 -0.04 -0.4 c0 -0.04 0.04 -0.08 0.04 -0.04 c0.04 0.16 0.2 0.28 0.16 0.48 c-0.04 0.04 -0.04 0.12 -0.12 0.12 z M40.015 23.8 c0.08 -0.04 0.28 -0.28 0.24 -0.32 c-0.16 -0.12 0 -0.24 0 -0.32 c0 -0.12 0.12 -0.24 -0.04 -0.32 c-0.04 -0.04 0 -0.12 0.04 -0.12 c0.08 -0.08 0.04 -0.12 0.04 -0.2 c0 -0.2 -0.28 -0.28 -0.16 -0.52 c0 -0.08 -0.12 -0.08 -0.16 -0.12 c-0.04 -0.08 0.16 0 0.08 -0.12 c-0.12 -0.2 -0.16 -0.44 -0.12 -0.68 c0.04 -0.08 -0.08 -0.2 -0.04 -0.28 c0.04 -0.16 -0.12 -0.28 -0.04 -0.44 l0 -0.04 c-0.16 0.04 -0.08 -0.08 -0.08 -0.12 s0.08 -0.04 0.04 -0.08 c-0.08 -0.24 -0.04 -0.44 -0.08 -0.68 c0 0 0 -0.04 -0.04 -0.04 c-0.04 -0.04 -0.04 0 -0.04 0.04 c-0.04 0.04 -0.08 0.04 -0.08 0 c-0.04 0 -0.04 -0.08 0 -0.08 c0.16 -0.12 0.12 -0.24 0.08 -0.4 c-0.08 -0.32 -0.16 -0.64 -0.2 -0.96 c-0.04 -0.08 -0.08 -0.16 -0.16 -0.24 c-0.04 0 -0.16 -0.08 0 -0.08 c0.08 -0.04 0.08 -0.08 0.08 -0.16 c0 0 -0.04 -0.04 -0.08 -0.04 c-0.04 0.04 -0.04 0.08 -0.08 0.04 l0 -0.08 c0.04 -0.12 0.16 -0.2 0.08 -0.32 c-0.12 -0.2 -0.12 -0.4 -0.12 -0.6 c0 -0.24 -0.08 -0.48 0 -0.76 c0.04 -0.12 0 -0.28 0 -0.4 c0 -0.04 0 -0.08 -0.04 -0.08 l-0.04 0.04 c-0.12 0.16 -0.16 0.32 -0.16 0.52 c-0.04 0.04 0 0.12 -0.08 0.08 c-0.08 0 -0.2 -0.08 -0.2 -0.16 c0 -0.12 0.08 -0.08 0.12 -0.08 s0.08 0 0.08 -0.04 c0 -0.08 0 -0.12 -0.04 -0.16 c0 -0.04 -0.04 -0.04 -0.04 0 c-0.12 0.16 -0.12 0.04 -0.16 -0.04 c0 -0.08 0 -0.12 -0.08 -0.12 c-0.04 0.04 0 0.08 0 0.12 s0.04 0.08 -0.04 0.08 c-0.12 -0.04 -0.24 0.04 -0.32 0.08 c-0.04 0.04 -0.04 0.04 -0.04 0.08 c0.04 0.04 0.04 0 0.08 0 c0.2 -0.04 0.28 0 0.24 0.24 c-0.04 0.2 -0.12 0.36 -0.08 0.56 c0 0.08 -0.08 0.08 -0.16 0.12 c0 0 -0.04 0 0 -0.04 c0.04 -0.16 -0.12 -0.08 -0.2 -0.12 c-0.04 0 -0.12 0 -0.04 -0.12 c0 -0.04 -0.04 -0.08 0 -0.12 c0 0 0.04 0.04 0.08 0.04 c0.12 -0.04 0.08 -0.16 0.12 -0.24 c0.04 0 0 -0.04 -0.04 -0.04 c-0.08 0 -0.2 0.12 -0.16 0.24 c-0.12 0.04 -0.08 0.28 -0.28 0.12 l0 0.04 c0.04 0.12 -0.12 0.24 -0.04 0.36 c0.08 0.16 0.12 0.32 0.08 0.52 c0 0.04 0.04 0.08 0.08 0.12 s0.08 0.08 0.04 0.12 c-0.08 0.12 0 0.24 0.04 0.32 c0.12 0.2 0.04 0.44 0.12 0.64 c0.04 0.24 0.12 0.52 0.12 0.8 c0 0.36 0.28 0.68 0.32 1.04 c0 0.08 0.16 0.2 -0.08 0.2 c-0.04 0 -0.08 0.04 -0.04 0.08 c0.04 0.08 0.04 0.16 0.04 0.2 c0.04 0.2 0.04 0.4 0.16 0.52 c0.08 0.08 0.08 0.12 0.08 0.24 c-0.08 0.2 0.12 0.12 0.16 0.2 c0.04 0.04 0.04 0.04 0.08 0 c0.12 -0.12 0.16 0.04 0.28 0.04 c0.04 0 0.08 0.12 0.04 0.24 c0 0.08 -0.04 0.12 0.12 0.08 c0.08 -0.04 0.08 -0.08 0.04 -0.16 c0 -0.08 0 -0.12 0.08 -0.12 c0.08 -0.04 0.08 0 0.08 0.08 c0 0.04 0.08 0.08 0.12 0.08 c0.12 0.08 0.2 0.28 0.08 0.4 c-0.08 0.12 -0.08 0.2 -0.04 0.32 c0 0.08 -0.08 0.12 0 0.2 c0.04 0 0.08 0 0.08 0.04 c-0.04 0.04 -0.12 0.04 -0.12 0 c-0.08 -0.12 -0.24 -0.16 -0.28 -0.32 c0 -0.12 -0.04 -0.12 -0.16 -0.08 c-0.2 0.12 -0.24 0.32 -0.28 0.52 c-0.08 0.16 0.16 0.08 0.2 0.16 c0 0.04 0.04 0.04 0.08 0.08 c0 0 0.04 0.04 -0.04 0.04 c-0.12 0 -0.08 0.08 -0.08 0.16 c0.04 0.08 0.12 0.08 0.2 0.08 c0.16 -0.04 0.2 -0.2 0.36 -0.2 c0.04 0 0.12 -0.08 0.16 0 c0 0.04 -0.08 0.04 -0.12 0.08 c-0.04 0 -0.04 0 -0.04 0.04 l0 0 c0.16 -0.04 0.24 0.12 0.36 0.08 c0.04 0 0.12 -0.04 0.12 0.04 c0.04 0.04 -0.04 0.04 -0.08 0.08 c-0.04 0 -0.08 0.04 -0.04 0.08 z M40.495 19 c-0.12 0.12 -0.08 -0.04 -0.12 -0.04 s-0.04 -0.04 -0.04 -0.08 c0.12 -0.16 0.12 -0.16 0 -0.4 c-0.04 -0.04 -0.04 -0.08 0 -0.12 c0.08 0.08 0.2 0.16 0.24 0.28 c0 0.08 0 0.16 0.04 0.2 c0.08 0.16 -0.08 0.12 -0.12 0.16 z M40.974999999999994 19.32 c-0.12 -0.04 -0.08 -0.16 -0.08 -0.2 c-0.04 -0.08 -0.04 -0.12 0.04 -0.12 c0.12 0.04 0.04 0.16 0.08 0.2 c0 0.04 0 0.12 -0.04 0.12 z M40.894999999999996 18.88 c-0.08 0 -0.12 -0.08 -0.12 -0.12 c0 -0.08 0.04 -0.16 0.08 -0.2 c0.08 0.04 0.08 0.16 0.08 0.24 c0.04 0.04 0 0.04 -0.04 0.08 z M37.934999999999995 15.96 c0.12 0 0.04 -0.12 0.08 -0.16 l0 -0.04 c-0.12 -0.12 -0.12 -0.2 0.08 -0.24 c0 0 0 -0.04 -0.04 -0.04 c-0.08 0 -0.2 -0.04 -0.24 0.04 c0 0.08 -0.16 0.2 0.04 0.24 l0 0.08 c0.04 0.04 0 0.12 0.08 0.12 z M40.295 18 c-0.08 0 -0.04 -0.04 -0.04 -0.08 l0 -0.04 l0 -0.12 s0 -0.12 -0.08 -0.12 c-0.08 -0.04 -0.08 0.04 -0.12 0.12 c0 0.04 0 0.12 -0.08 0.08 c-0.04 -0.04 -0.04 -0.08 0 -0.16 c0.08 -0.04 0 -0.12 0.12 -0.16 c0 0 0.04 -0.08 -0.04 -0.08 c-0.04 0 -0.08 0 -0.08 -0.04 s0.04 -0.08 0.08 -0.08 s0.16 -0.04 0.2 0.04 c0.04 0.04 0.16 0.08 0.08 0.2 c-0.04 0.12 0.08 0.24 0.08 0.36 c0 0.04 0.08 0.04 0 0.08 c0 0.04 -0.08 0.04 -0.12 0 z M39.614999999999995 16.32 c0.08 -0.04 0 -0.12 -0.04 -0.2 l0 -0.08 c0.04 -0.04 0.04 -0.12 0 -0.16 c0 0 -0.04 0 -0.04 0.04 c-0.04 0.04 -0.08 0.08 -0.04 0.12 l0 0.12 c0.04 0.04 0.04 0.16 0.12 0.16 z M40.214999999999996 16.84 l-0.04 0 c-0.12 -0.08 -0.12 -0.32 0 -0.44 l0 0 c0.04 0.12 0.12 0.16 0.2 0.2 s0.08 0.08 0.04 0.12 c-0.08 0 -0.2 0 -0.2 0.12 z M61.974999999999994 20.88 c0.04 0 0.08 -0.04 0.08 -0.12 c0.04 -0.08 -0.04 -0.12 -0.12 -0.16 c0.04 -0.08 0.08 -0.2 0.12 -0.32 c0.04 -0.16 0.12 -0.32 0.2 -0.48 c0.04 -0.08 0.12 -0.2 0.08 -0.28 c-0.08 -0.08 -0.24 -0.04 -0.36 -0.04 c-0.04 0 -0.04 0.04 -0.08 0.04 c0 -0.04 -0.04 -0.04 -0.04 -0.04 c-0.08 -0.08 -0.08 -0.16 -0.04 -0.28 c0.08 -0.12 0.12 -0.28 0.12 -0.4 c0 -0.04 0 -0.08 -0.04 -0.12 c-0.04 0 -0.04 0.04 -0.08 0.08 c-0.04 0.08 -0.12 0.16 -0.16 0.28 c-0.08 0.28 -0.08 0.56 -0.24 0.84 c0 0 0 0.04 0.04 0.08 c0.12 0.16 0.04 0.32 -0.04 0.48 c-0.08 0.08 -0.08 0.08 0.08 0.08 c0.04 0 0.04 0.04 0.04 0.08 c0.04 0 0 0.04 0.04 0.04 s0.04 -0.04 0.04 -0.08 l0 -0.36 c0 -0.04 0 -0.12 0.08 -0.12 s0.08 0.08 0.16 0.12 c0.04 0 0.04 0.04 0 0.08 c-0.16 0.16 -0.04 0.24 0.08 0.32 c-0.16 0.08 -0.04 0.12 0 0.2 c0.04 0 -0.04 0.08 0.04 0.08 z M61.974999999999994 20.04 c0.08 -0.12 0.2 -0.24 0.04 -0.36 c-0.04 -0.04 -0.08 -0.12 -0.12 -0.16 c0 -0.04 -0.04 -0.04 -0.04 -0.04 c-0.04 0 -0.12 -0.04 -0.12 0 c0.12 0.16 0 0.24 -0.08 0.32 c-0.04 0.04 -0.04 0.04 0 0.08 l0.04 0 c0.16 -0.16 0.08 0 0.08 0.04 s0 0.12 0.08 0.12 c0.04 0 0.08 0.08 0.12 0 z M62.815 20.08 c0.04 0 0.12 0 0.08 -0.08 c-0.08 -0.04 0 -0.24 -0.16 -0.24 c-0.08 0 -0.08 0.08 -0.08 0.16 s0.08 0.16 0.16 0.16 z M62.974999999999994 19.68 l0.04 -0.04 c-0.04 -0.08 0.08 -0.12 0.04 -0.24 l0 -0.24 c0 -0.04 -0.04 -0.04 -0.08 -0.04 c-0.04 -0.04 -0.04 0 -0.08 0.04 c0 0.08 0 0.12 -0.08 0.16 c-0.04 0.04 -0.12 0.08 -0.08 0.12 c0.08 0.08 0.2 0.12 0.24 0.24 z M63.334999999999994 19.64 c0.04 0 0.04 -0.04 0.04 -0.04 c0 -0.12 0.08 -0.24 0 -0.36 c0.04 -0.04 0.08 -0.04 0.04 -0.08 c-0.04 0 -0.08 0 -0.12 0.04 c-0.12 0.08 -0.16 0.24 -0.04 0.4 c0 0.04 0.04 0.08 0.08 0.04 z M63.334999999999994 18.68 c0.2 0 0.12 -0.2 0.2 -0.24 c0 -0.04 -0.08 0 -0.12 -0.04 c-0.04 0.04 -0.08 0.08 -0.08 0.16 c0 0 0.04 0.04 0 0.04 s-0.08 0 -0.08 0.04 s0.08 0.04 0.08 0.04 z M61.015 13.440000000000001 c-0.08 0.04 -0.16 -0.04 -0.2 -0.08 s-0.04 -0.08 0.04 -0.08 c0.2 -0.08 0.36 0 0.56 0 l0.04 0.04 c-0.04 0 -0.04 0.04 -0.08 0.04 c-0.12 0.04 -0.24 0.04 -0.36 0.08 z M64.535 14.8 c0.04 0 0.08 0.04 0.12 -0.04 s0.08 -0.16 0 -0.24 c0 -0.08 -0.08 -0.04 -0.12 -0.04 c-0.12 0.04 -0.04 0.16 -0.12 0.2 c-0.04 0.08 -0.04 0.16 0.12 0.12 z M64.815 14.2 c0.08 0 0.24 -0.28 0.24 -0.36 c-0.04 0 -0.08 -0.04 -0.08 0 c-0.04 0.08 -0.08 0.04 -0.12 0.04 c-0.08 0 -0.12 0.04 -0.08 0.08 c0.12 0.08 0.08 0.12 0 0.2 c0 0 0 0.04 0.04 0.04 z"></path></g>
			</g>
		</svg>
	