<svg width="34" height="34" viewBox="0 0 34 34" fill="none" xmlns="http://www.w3.org/2000/svg">
<circle cx="17" cy="17" r="17" fill="#FF7A00"/>
<path d="M16.238 25.8C16.106 25.8 15.998 25.752 15.914 25.656C15.83 25.572 15.788 25.47 15.788 25.35V24.09C14.864 23.982 14.09 23.754 13.466 23.406C12.854 23.046 12.392 22.62 12.08 22.128C11.768 21.636 11.6 21.114 11.576 20.562C11.576 20.466 11.612 20.382 11.684 20.31C11.768 20.226 11.864 20.184 11.972 20.184H14.24C14.408 20.184 14.534 20.214 14.618 20.274C14.714 20.334 14.798 20.412 14.87 20.508C14.966 20.688 15.098 20.862 15.266 21.03C15.446 21.198 15.674 21.336 15.95 21.444C16.238 21.54 16.592 21.588 17.012 21.588C17.708 21.588 18.23 21.48 18.578 21.264C18.938 21.048 19.118 20.754 19.118 20.382C19.118 20.106 19.022 19.884 18.83 19.716C18.638 19.548 18.326 19.398 17.894 19.266C17.474 19.122 16.91 18.978 16.202 18.834C15.29 18.642 14.51 18.396 13.862 18.096C13.226 17.784 12.74 17.382 12.404 16.89C12.068 16.386 11.9 15.762 11.9 15.018C11.9 14.058 12.242 13.242 12.926 12.57C13.622 11.898 14.576 11.478 15.788 11.31V10.05C15.788 9.918 15.83 9.81 15.914 9.726C15.998 9.642 16.106 9.6 16.238 9.6H17.732C17.852 9.6 17.954 9.642 18.038 9.726C18.134 9.81 18.182 9.918 18.182 10.05V11.346C19.01 11.49 19.706 11.748 20.27 12.12C20.834 12.492 21.26 12.912 21.548 13.38C21.848 13.848 22.004 14.298 22.016 14.73C22.016 14.826 21.98 14.916 21.908 15C21.836 15.072 21.746 15.108 21.638 15.108H19.262C19.13 15.108 19.016 15.084 18.92 15.036C18.824 14.988 18.74 14.91 18.668 14.802C18.596 14.538 18.404 14.31 18.092 14.118C17.78 13.914 17.384 13.812 16.904 13.812C16.376 13.812 15.962 13.908 15.662 14.1C15.374 14.28 15.23 14.562 15.23 14.946C15.23 15.186 15.308 15.396 15.464 15.576C15.632 15.756 15.902 15.912 16.274 16.044C16.658 16.176 17.18 16.314 17.84 16.458C18.932 16.662 19.814 16.92 20.486 17.232C21.158 17.532 21.65 17.928 21.962 18.42C22.274 18.9 22.43 19.506 22.43 20.238C22.43 20.946 22.25 21.57 21.89 22.11C21.542 22.65 21.05 23.088 20.414 23.424C19.778 23.76 19.034 23.982 18.182 24.09V25.35C18.182 25.47 18.134 25.572 18.038 25.656C17.954 25.752 17.852 25.8 17.732 25.8H16.238Z" fill="white"/>
</svg>
