<svg width="56" height="50" viewBox="0 0 56 50" fill="none" xmlns="http://www.w3.org/2000/svg">
<path d="M0 30.5663C0.393886 29.6756 1.08319 29.3293 2.0679 29.3293C3.74192 29.3787 5.3667 29.3787 7.04072 29.3293C7.33613 29.3293 7.63154 29.1808 7.87772 29.0324C10.1426 27.251 12.7028 26.3109 15.5585 26.0635C18.4142 25.7666 21.0237 26.5583 23.6332 27.449C27.5228 28.7849 31.4124 30.0715 35.3021 31.358C38.1577 32.2981 39.4379 34.4753 38.8963 37.4936C38.8963 37.5431 38.8963 37.642 38.847 37.6915C38.8963 37.741 38.8963 37.7905 38.9455 37.84C39.7333 37.3946 40.5211 36.9988 41.2596 36.4545C43.5244 34.8216 45.6908 33.1393 47.9557 31.5064C49.9743 30.022 52.4361 30.0715 54.2578 31.6054C56.5227 33.5351 56.6212 37.2462 54.3071 39.0275C51.156 41.5016 48.0541 44.0251 44.6076 46.0043C40.718 48.2309 36.533 49.5175 32.0525 49.9133C28.3598 50.2102 24.7656 49.7154 21.1714 48.8742C17.4295 47.9836 13.6875 47.1424 9.84715 46.3012C9.84715 46.7465 9.84715 47.1424 9.84715 47.5382C9.84715 48.4784 9.15786 49.1711 8.22237 49.1711C6.056 49.1711 3.84039 49.1711 1.67401 49.1711C0.837005 49.1711 0.344651 48.6268 0 47.9835C0 42.0953 0 36.3555 0 30.5663ZM9.84715 42.8375C10.0441 42.887 10.241 42.9365 10.438 42.986C14.6723 43.9756 18.9558 44.9157 23.1901 45.9054C29.5907 47.3898 35.7944 46.796 41.7027 43.8272C45.5431 41.8974 48.6942 39.0275 52.1407 36.5535C52.6331 36.2071 52.7808 35.6133 52.6823 35.0196C52.4361 33.7825 51.1067 33.3372 50.0236 34.0794C47.9064 35.6628 45.74 37.1967 43.6721 38.8296C40.3733 41.3531 36.7299 42.0953 32.791 40.8583C29.3938 39.8192 26.0457 38.6317 22.6977 37.5431C22.4023 37.4441 22.0576 37.1967 21.8607 36.9493C21.3683 36.405 21.3683 35.6133 21.7622 35.0196C22.1561 34.3763 22.8946 34.1289 23.6332 34.3763C25.258 34.9206 26.932 35.4649 28.5567 36.0092C30.2308 36.5535 31.9048 37.1472 33.5788 37.6915C34.6128 38.0379 35.5482 37.5431 35.7944 36.6029C36.0406 35.7123 35.5482 34.8711 34.5143 34.5742C31.0678 33.4362 27.6213 32.2486 24.1748 31.16C22.2546 30.5168 20.3836 29.6756 18.3157 29.4777C15.7062 29.2303 13.1952 29.5766 10.9303 31.0116C10.1918 31.4569 9.84715 32.0012 9.84715 32.9414C9.89639 36.1576 9.84715 39.4728 9.84715 42.8375ZM6.54836 32.6445C5.41594 32.6445 4.38199 32.6445 3.34804 32.6445C3.34804 37.0483 3.34804 41.4026 3.34804 45.7569C4.43122 45.7569 5.51441 45.7569 6.54836 45.7569C6.54836 41.4026 6.54836 37.0483 6.54836 32.6445Z" fill="#3B3E4C"/>
<path d="M41.025 0C49.2888 0 56 6.48748 56 14.5242C56 22.5125 49.2888 29 40.975 29C32.6611 29 26 22.4641 26 14.4274C26 6.48747 32.7613 0 41.025 0ZM41.025 3.24374C34.6144 3.24374 29.3556 8.32722 29.3556 14.4758C29.3556 20.6728 34.5643 25.7562 40.975 25.8047C47.3856 25.8531 52.6945 20.7212 52.6945 14.5242C52.6444 8.32721 47.3856 3.24374 41.025 3.24374Z" fill="#3B3E4C"/>
<path d="M39.3779 7.99065C39.5217 6.59906 40.0012 5.95296 41.0081 6.00266C41.967 6.00266 42.4944 6.59906 42.6382 7.99065C43.1656 8.23915 43.741 8.48764 44.2204 8.78584C45.0834 9.33254 45.3232 10.3763 44.7958 11.1715C44.3163 11.9666 43.3574 12.1157 42.4944 11.6187C41.5834 11.072 40.6724 11.072 39.7615 11.569C39.5697 11.6684 39.4259 11.9169 39.2341 12.1157C39.4259 12.2648 39.6176 12.4636 39.8094 12.5133C40.7683 12.7618 41.7272 12.9606 42.6862 13.2091C43.0697 13.3085 43.4533 13.4576 43.8368 13.6067C46.4259 14.8492 46.7615 18.1791 44.4601 19.9186C43.9807 20.2665 43.4053 20.4653 42.9259 20.7635C42.782 20.8629 42.5903 21.0617 42.5903 21.2108C42.4944 22.3042 41.919 23 40.9601 23C40.0971 23 39.282 22.1551 39.3779 21.1611C39.3779 21.1114 39.3779 21.0617 39.3779 21.012C38.8505 20.7138 38.2752 20.515 37.7478 20.1671C36.8847 19.6204 36.693 18.6264 37.1724 17.8312C37.6519 17.036 38.6108 16.8372 39.4738 17.3839C40.3848 17.9306 41.2957 17.9306 42.2067 17.4833C42.4464 17.3839 42.5903 17.1354 42.7821 16.9366C42.5903 16.7875 42.3985 16.539 42.1588 16.4893C41.1998 16.2408 40.2409 16.042 39.33 15.7935C38.9943 15.6941 38.6108 15.5947 38.2752 15.4456C36.9806 14.8492 36.1656 13.9049 36.0217 12.4139C35.8779 10.923 36.4532 9.77985 37.6039 8.98465C38.1313 8.53735 38.7546 8.28885 39.3779 7.99065Z" fill="#3B3E4C"/>
</svg>
