<svg width="110" height="105" viewBox="0 0 110 105" fill="none" xmlns="http://www.w3.org/2000/svg">
<circle cx="54.1319" cy="50.9551" r="47.4409" fill="#2D2F39"/>
<rect x="44.8215" y="21.2361" width="17.9077" height="26.6899" rx="8.95384" stroke="#888888" stroke-width="8"/>
<rect x="34.2349" y="40.07" width="39.9593" height="36.4464" rx="10" fill="#FF7A00"/>
<rect x="22.5005" y="49.8522" width="63.867" height="17.7601" rx="8.88004" fill="white" stroke="#2D2F39" stroke-width="2"/>
<rect x="47.1509" y="54.9615" width="1.45128" height="7.25642" rx="0.725642" fill="#FF7A00"/>
<rect x="51.5046" y="57.8641" width="1.45128" height="7.25642" rx="0.725642" transform="rotate(90 51.5046 57.8641)" fill="#FF7A00"/>
<rect x="49.9287" y="55.5111" width="1.45128" height="7.25642" rx="0.725642" transform="rotate(45 49.9287 55.5111)" fill="#FF7A00"/>
<rect x="50.9548" y="60.6422" width="1.45128" height="7.25642" rx="0.725642" transform="rotate(135 50.9548 60.6422)" fill="#FF7A00"/>
<rect x="60.7314" y="54.9615" width="1.45128" height="7.25642" rx="0.725642" fill="#FF7A00"/>
<rect x="65.0854" y="57.8641" width="1.45128" height="7.25642" rx="0.725642" transform="rotate(90 65.0854 57.8641)" fill="#FF7A00"/>
<rect x="63.5095" y="55.5111" width="1.45128" height="7.25642" rx="0.725642" transform="rotate(45 63.5095 55.5111)" fill="#FF7A00"/>
<rect x="64.5356" y="60.6422" width="1.45128" height="7.25642" rx="0.725642" transform="rotate(135 64.5356 60.6422)" fill="#FF7A00"/>
<rect x="33.5701" y="54.9615" width="1.45128" height="7.25642" rx="0.725642" fill="#FF7A00"/>
<rect x="37.9241" y="57.8641" width="1.45128" height="7.25642" rx="0.725642" transform="rotate(90 37.9241 57.8641)" fill="#FF7A00"/>
<rect x="36.3481" y="55.5111" width="1.45128" height="7.25642" rx="0.725642" transform="rotate(45 36.3481 55.5111)" fill="#FF7A00"/>
<rect x="37.374" y="60.6422" width="1.45128" height="7.25642" rx="0.725642" transform="rotate(135 37.374 60.6422)" fill="#FF7A00"/>
<rect x="31.3157" width="0.891479" height="4.4574" rx="0.44574" fill="#2D2F39"/>
<rect x="33.9905" y="1.78296" width="0.891479" height="4.4574" rx="0.44574" transform="rotate(90 33.9905 1.78296)" fill="#2D2F39"/>
<rect x="33.0222" y="0.337616" width="0.891479" height="4.4574" rx="0.44574" transform="rotate(45 33.0222 0.337616)" fill="#2D2F39"/>
<rect x="33.6526" y="3.48947" width="0.891479" height="4.4574" rx="0.44574" transform="rotate(135 33.6526 3.48947)" fill="#2D2F39"/>
<rect x="37.7583" y="100.153" width="0.891479" height="4.4574" rx="0.44574" fill="#2D2F39"/>
<rect x="3.15186" y="65.3492" width="0.891479" height="4.4574" rx="0.44574" transform="rotate(45 3.15186 65.3492)" fill="#2D2F39"/>
<rect x="40.4326" y="101.936" width="0.891479" height="4.4574" rx="0.44574" transform="rotate(90 40.4326 101.936)" fill="#2D2F39"/>
<rect x="3.78223" y="68.5011" width="0.891479" height="4.4574" rx="0.44574" transform="rotate(135 3.78223 68.5011)" fill="#2D2F39"/>
<rect x="108.824" y="67.9401" width="0.891479" height="4.4574" rx="0.44574" transform="rotate(45 108.824 67.9401)" fill="#2D2F39"/>
<rect x="109.455" y="71.092" width="0.891479" height="4.4574" rx="0.44574" transform="rotate(135 109.455 71.092)" fill="#2D2F39"/>
<path d="M72.5094 70.2453C72.5094 69.9413 72.5094 69.6564 72.5094 69.3904C72.5094 65.8379 72.4905 62.2664 72.5094 58.7139C72.5094 57.403 73.4783 56.3962 74.8081 56.2442C76.043 56.0922 77.2398 56.9281 77.5248 58.1439C77.6008 58.4669 77.5818 58.8278 77.5818 59.1698C77.5818 60.1767 77.5818 61.2025 77.5818 62.2094C77.5818 62.2854 77.5818 62.3804 77.5818 62.4754C79.1775 61.9054 80.3744 62.3234 81.1723 63.8432C81.8752 63.4632 82.5971 63.3492 83.376 63.6342C84.1359 63.9192 84.6488 64.4321 84.9148 65.173C85.2567 65.078 85.5987 64.945 85.9216 64.888C87.4034 64.6601 88.7332 65.7999 88.7332 67.2817C88.7332 68.1936 88.7142 69.1244 88.7142 70.0363C88.7142 71.1192 88.7142 72.183 88.7522 73.2659C88.8282 75.4126 88.3343 77.4263 87.5364 79.4021C87.1375 80.3709 86.6815 81.3018 85.9976 82.0807C85.6557 82.4606 85.2947 82.8406 84.7628 82.9356C84.5918 82.9736 84.4018 82.9736 84.2119 82.9736C81.9132 82.9926 79.5955 82.9926 77.2968 82.9926C76.2329 82.9926 75.3781 82.5936 74.8271 81.6817C74.3522 80.8649 73.8773 80.029 73.4783 79.1551C72.6424 77.3503 71.3886 75.9065 69.7928 74.7667C69.1469 74.3107 68.444 73.9308 67.7411 73.5698C67.0952 73.2279 66.6013 72.772 66.4683 72.0121C66.3163 71.1952 66.6392 70.5303 67.3421 70.1123C68.292 69.5424 69.2989 69.4664 70.3437 69.6374C70.8567 69.7324 71.3696 69.8653 71.8825 69.9983C72.0725 70.0743 72.2625 70.1693 72.5094 70.2453ZM73.8393 65.154C73.8203 66.9587 73.8203 68.7825 73.8203 70.5873C73.8203 70.9102 73.8203 71.2332 73.8203 71.5371C73.8013 72.088 73.4213 72.335 72.9084 72.145C72.6804 72.05 72.4525 71.9171 72.2435 71.7841C71.7875 71.4801 71.3316 71.2142 70.7807 71.1192C70.3057 71.0432 69.8498 70.9482 69.3749 70.9102C68.9189 70.8722 68.482 71.0052 68.102 71.2332C67.7031 71.4801 67.6651 71.8981 68.0451 72.183C68.14 72.259 68.273 72.316 68.387 72.373C69.4889 72.9049 70.5337 73.5318 71.4646 74.3297C72.8894 75.5646 74.0672 77.0084 74.7891 78.7561C74.8651 78.9271 74.9221 79.1171 75.0171 79.2691C75.3401 79.839 75.701 80.4089 76.024 80.9978C76.2709 81.4348 76.6509 81.6247 77.1448 81.6247C79.4435 81.6247 81.7612 81.6247 84.0599 81.6247C84.4208 81.6247 84.7058 81.4918 84.9338 81.2068C85.1047 80.9788 85.2947 80.7509 85.4467 80.5039C86.0736 79.516 86.4536 78.4142 86.8525 77.3313C87.1945 76.3625 87.4034 75.3746 87.4034 74.3487C87.4034 72.772 87.4034 71.2142 87.4224 69.6374C87.4224 68.8395 87.4224 68.0606 87.4224 67.2627C87.4224 66.7118 86.9665 66.2368 86.4156 66.1798C85.8456 66.1229 85.2567 66.5028 85.1427 67.0347C85.1047 67.2057 85.1047 67.3957 85.0857 67.5857C85.0667 68.4025 85.0667 69.2004 85.0477 70.0173C85.0477 70.4543 84.7438 70.7392 84.3258 70.7392C83.9839 70.7392 83.6799 70.4353 83.6609 70.0363C83.6609 69.9603 83.6609 69.8653 83.6609 69.7894C83.6609 68.5165 83.6609 67.2437 83.6609 65.9709C83.6609 65.7999 83.6229 65.6099 83.5469 65.439C83.319 64.945 82.7871 64.717 82.2741 64.831C81.6662 64.983 81.3812 65.325 81.3812 65.9519C81.3812 67.2247 81.3812 68.4785 81.3812 69.7514C81.3812 69.9033 81.3622 70.0743 81.3243 70.2263C81.2103 70.6442 80.8303 70.8342 80.4124 70.7012C80.0704 70.5872 79.9184 70.3213 79.9184 69.8653C79.9184 68.1366 79.9184 66.4268 79.9184 64.6981C79.9184 64.0521 79.4245 63.5582 78.7596 63.5582C78.1517 63.5582 77.6578 64.0331 77.6578 64.6791C77.6578 66.4078 77.6578 68.1556 77.6578 69.8843C77.6578 70.1883 77.4108 70.5683 77.1258 70.6822C76.8219 70.7962 76.6319 70.6062 76.4229 70.4353C76.2709 70.3023 76.2519 70.1313 76.2519 69.9413C76.2519 66.2178 76.2329 62.5133 76.2709 58.7899C76.2709 57.84 75.2451 57.3081 74.5042 57.726C74.0292 57.992 73.8773 58.4099 73.8773 58.9228C73.8393 61.0125 73.8393 63.0833 73.8393 65.154Z" fill="black"/>
<path d="M73.8393 65.154C73.8393 63.0832 73.8393 61.0315 73.8393 58.9608C73.8393 58.4479 73.9913 58.0299 74.4662 57.764C75.2071 57.346 76.233 57.8779 76.233 58.8278C76.214 62.5513 76.233 66.2558 76.214 69.9793C76.214 70.1693 76.233 70.3403 76.385 70.4732C76.5939 70.6442 76.7839 70.8342 77.0879 70.7202C77.3728 70.6062 77.6198 70.2073 77.6198 69.9223C77.6198 68.1935 77.6198 66.4458 77.6198 64.717C77.6198 64.0901 78.1137 63.5962 78.7216 63.5962C79.3866 63.5962 79.8805 64.0901 79.8805 64.736C79.8805 66.4648 79.8805 68.1745 79.8805 69.9033C79.8805 70.3593 80.0325 70.6062 80.3744 70.7392C80.7924 70.8912 81.1723 70.6822 81.2863 70.2643C81.3243 70.1123 81.3433 69.9413 81.3433 69.7893C81.3433 68.5165 81.3433 67.2627 81.3433 65.9898C81.3433 65.3629 81.6282 65.021 82.2362 64.869C82.7491 64.736 83.262 64.983 83.509 65.4769C83.585 65.6289 83.623 65.8189 83.623 66.0088C83.623 67.2817 83.623 68.5545 83.623 69.8273C83.623 69.9033 83.623 69.9983 83.623 70.0743C83.661 70.4732 83.9459 70.7772 84.2879 70.7772C84.7058 70.7772 84.9908 70.4922 85.0098 70.0553C85.0288 69.2384 85.0288 68.4405 85.0478 67.6236C85.0478 67.4336 85.0668 67.2627 85.1048 67.0727C85.2188 66.5408 85.7887 66.1608 86.3776 66.2178C86.9285 66.2748 87.3845 66.7497 87.3845 67.3007C87.3845 68.0986 87.4035 68.8775 87.3845 69.6753C87.3845 71.2521 87.3655 72.8099 87.3655 74.3867C87.3655 75.4126 87.1565 76.4004 86.8145 77.3693C86.4156 78.4711 86.0357 79.554 85.4087 80.5419C85.2568 80.7888 85.0858 81.0168 84.8958 81.2448C84.6678 81.5297 84.3829 81.6627 84.0219 81.6627C81.7232 81.6627 79.4056 81.6627 77.1069 81.6627C76.6129 81.6627 76.233 81.4727 75.986 81.0358C75.6631 80.4659 75.3021 79.896 74.9792 79.307C74.8842 79.1361 74.8272 78.9651 74.7512 78.7941C74.0293 77.0273 72.8514 75.6025 71.4266 74.3677C70.4958 73.5698 69.4509 72.9429 68.3491 72.411C68.2351 72.354 68.1211 72.297 68.0071 72.221C67.6272 71.936 67.6652 71.5181 68.0641 71.2711C68.463 71.0432 68.9 70.9102 69.3369 70.9482C69.8119 70.9862 70.2868 71.0622 70.7427 71.1571C71.2747 71.2521 71.7496 71.5371 72.2055 71.8221C72.4145 71.955 72.6235 72.088 72.8704 72.183C73.3834 72.373 73.7443 72.126 73.7823 71.5751C73.8013 71.2521 73.7823 70.9292 73.7823 70.6252C73.8203 68.7825 73.8203 66.9587 73.8393 65.154Z" fill="white"/>
</svg>
