<svg width="54" height="32" viewBox="0 0 54 32" fill="none" xmlns="http://www.w3.org/2000/svg">
<path d="M26.264 32C25.1497 32 24.0997 32 23.0068 32C23.0068 27.2341 23.0068 22.4683 23.0068 17.6808C20.8318 17.6808 18.6997 17.6808 16.514 17.6808C16.514 22.4359 16.514 27.2017 16.514 31.9892C15.3997 31.9892 14.339 31.9892 13.2247 31.9892C13.2247 31.8595 13.2247 31.7298 13.2247 31.6001C13.2247 23.2896 13.214 14.9791 13.214 6.66856C13.214 3.48052 15.3033 0.822013 18.2818 0.162791C22.4283 -0.755798 26.2533 2.32418 26.264 6.60372C26.2747 12.8933 26.264 19.1722 26.264 25.4618C26.264 27.5043 26.264 29.536 26.264 31.5785C26.264 31.7082 26.264 31.8379 26.264 32ZM22.9854 14.3523C22.9961 14.201 23.0068 14.0713 23.0068 13.9416C23.0068 11.5749 23.0068 9.20819 23.0068 6.84147C23.0068 6.51726 23.0068 6.17144 22.9318 5.85804C22.589 4.26942 21.0354 3.1347 19.4711 3.31841C17.7354 3.51294 16.514 4.8638 16.514 6.58211C16.514 9.02447 16.514 11.4668 16.514 13.92C16.514 14.0605 16.5247 14.201 16.5354 14.3523C18.689 14.3523 20.8211 14.3523 22.9854 14.3523Z" fill="white"/>
<path d="M32.7961 0C33.9179 0 35.0175 0 36.1393 0C36.1393 10.61 36.1393 21.2092 36.1393 31.8408C35.0286 31.8408 33.929 31.8408 32.7961 31.8408C32.7961 21.2308 32.7961 10.6315 32.7961 0Z" fill="white"/>
<path d="M4.65699 18.5242C4.77667 18.535 4.89634 18.5565 5.01602 18.5565C5.66879 18.5565 6.32156 18.5565 6.97433 18.5565C7.40951 18.5565 7.81205 18.8255 7.84469 19.1376C7.92085 19.6971 7.6815 20.0522 7.13752 20.1705C6.23452 20.3857 5.32064 20.5794 4.41764 20.8054C3.66696 20.9883 3.01419 20.6224 2.3179 20.5041C2.2635 20.4933 2.19822 20.3965 2.18734 20.3319C2.1547 19.9446 2.1547 19.568 2.12207 19.1806C2.11119 19.03 2.08943 18.8147 1.99151 18.7287C1.48017 18.2875 1.27346 17.3729 1.53457 16.738C1.59985 16.5874 1.56721 16.2646 1.45841 16.1893C0.968837 15.8342 0.979716 15.35 0.957957 14.8227C0.936198 14.3063 1.05587 13.9081 1.49105 13.6068C1.70864 13.4562 1.68688 13.2733 1.65425 13.0043C1.58897 12.4448 1.61073 11.8422 1.7304 11.2934C1.7848 11.0352 2.13295 10.7877 2.52461 10.8307C3.97158 10.9599 5.41856 11.0675 6.86553 11.1858C7.094 11.2073 7.31159 11.2181 7.54006 11.2289C8.17108 11.2504 8.49746 11.5732 8.49746 12.1973C8.49746 12.5631 8.61714 12.9828 8.09492 13.1334C7.97524 13.1657 7.84469 13.198 7.71414 13.198C6.75674 13.2087 5.79934 13.2087 4.84194 13.2195C4.70051 13.2195 4.5482 13.2518 4.40676 13.2733C4.40676 13.3163 4.40676 13.3594 4.40676 13.4024C4.65699 13.4347 4.90722 13.4777 5.14657 13.51C6.10397 13.5961 7.05049 13.6822 8.00788 13.7683C8.41043 13.8005 8.73681 14.1341 8.74769 14.543C8.78033 15.6728 8.78033 15.6836 7.65974 15.7051C6.7241 15.7266 5.79934 15.7266 4.8637 15.7481C4.72227 15.7481 4.58084 15.7589 4.4394 15.7696C4.42852 15.8127 4.41764 15.8665 4.39588 15.9095C4.52644 15.9526 4.65699 16.0171 4.78755 16.0279C5.81022 16.0924 6.8329 16.1678 7.85557 16.2C8.20371 16.2108 8.46482 16.3184 8.59538 16.6197C8.72593 16.921 8.51922 17.5451 8.31251 17.728C7.75765 18.2229 7.05049 18.0723 6.40859 18.1799C5.83198 18.2767 5.23361 18.309 4.65699 18.3736C4.65699 18.4166 4.65699 18.4704 4.65699 18.5242Z" fill="#FF6600"/>
<path d="M44.8265 18.3978C44.3165 18.3438 43.8174 18.2789 43.3074 18.2248C42.9385 18.1816 42.5696 18.1708 42.2007 18.1167C41.9403 18.0735 41.6907 17.9978 41.452 17.9221C40.8335 17.7167 40.8769 17.1869 40.9203 16.7112C40.9529 16.3976 41.2024 16.2463 41.5497 16.2355C42.6022 16.1814 43.6438 16.1165 44.6963 16.0517C44.8374 16.0408 44.9676 15.976 45.1086 15.9435C45.0978 15.8895 45.0869 15.8462 45.0761 15.7922C44.935 15.7814 44.8048 15.7705 44.6638 15.7705C43.5462 15.7489 42.4286 15.7381 41.3218 15.7057C40.8661 15.6949 40.7467 15.5759 40.7793 15.1218C40.801 14.7434 40.6165 14.3001 41.0288 14.0299C41.1916 13.9217 41.3869 13.8028 41.5822 13.7812C42.7541 13.6514 43.9259 13.5433 45.1086 13.4352C45.1195 13.392 45.1303 13.3595 45.1303 13.3163C45.0001 13.2838 44.8808 13.2298 44.7506 13.2298C43.7849 13.219 42.8083 13.219 41.8426 13.219C41.2241 13.219 41.0288 13.0027 41.0071 12.3973C40.9963 11.9648 41.018 11.5756 41.452 11.3485C41.5388 11.3053 41.6365 11.2404 41.7341 11.2296C43.4485 11.089 45.1737 10.9485 46.899 10.8296C47.4849 10.7863 47.8647 11.1215 47.8538 11.7053C47.843 12.2027 48.0383 12.7216 47.7996 13.219C47.7562 13.2947 47.8972 13.5325 48.0057 13.5974C48.8304 14.1272 48.4832 14.938 48.494 15.6516C48.494 15.803 48.2336 15.9652 48.0925 16.1165C47.9081 16.3111 47.8104 16.5058 47.9623 16.7869C48.2661 17.3599 48.0166 18.3329 47.5175 18.7546C47.409 18.8411 47.409 19.0681 47.3873 19.2411C47.3547 19.6087 47.3547 19.9871 47.3004 20.3547C47.2896 20.4412 47.116 20.5385 46.9966 20.5818C45.8573 21.0683 44.7397 20.8197 43.6113 20.5061C43.1881 20.3872 42.7649 20.3007 42.3309 20.2034C41.886 20.0953 41.6256 19.7709 41.6473 19.3384C41.669 18.906 41.9945 18.6032 42.4503 18.5924C43.123 18.5816 43.8066 18.5924 44.4793 18.5924C44.5987 18.5924 44.718 18.56 44.8265 18.5492C44.8374 18.4951 44.8265 18.4411 44.8265 18.3978Z" fill="#FF6600"/>
<path d="M42.6667 21.6517C43.7541 21.8653 44.7979 22.0683 45.9178 22.2926C45.9178 24.3325 45.9178 26.4686 45.9178 28.6367C48.4187 28.6367 50.8543 28.6367 53.3334 28.6367C53.3334 29.7261 53.3334 30.7728 53.3334 31.8408C49.7778 31.8408 46.244 31.8408 42.6667 31.8408C42.6667 28.4551 42.6667 25.0588 42.6667 21.6517Z" fill="white"/>
<path d="M0 32C0 30.8622 0 29.8111 0 28.7276C0.21571 28.695 0.420634 28.6734 0.625559 28.6409C2.04924 28.3916 3.22486 27.0155 3.23565 25.5635C3.24643 24.5666 3.23565 23.5805 3.23565 22.5836C3.23565 22.4427 3.23565 22.3019 3.23565 22.2044C3.81806 22.1393 4.34655 22.1068 4.87504 22.0202C5.40353 21.9335 5.92123 21.7818 6.48208 21.6517C6.50365 21.7276 6.53601 21.7926 6.52522 21.8468C6.51444 23.2879 6.54679 24.74 6.46051 26.1811C6.28794 28.9768 3.77492 31.5774 1.01384 31.9133C0.690271 31.9458 0.366707 31.9675 0 32Z" fill="white"/>
<path d="M3.34334 0C4.46142 0 5.53565 0 6.67566 0C6.67566 0.151856 6.67566 0.292865 6.67566 0.433874C6.67566 3.14559 6.6647 5.84646 6.68662 8.55817C6.68662 8.87273 6.60989 9.05713 6.30297 9.20898C6.007 9.34999 5.76585 9.58863 5.49181 9.77302C5.39315 9.8381 5.25065 9.87064 5.13008 9.87064C4.53815 9.82726 3.95719 9.77302 3.34334 9.71879C3.34334 6.47558 3.34334 3.25406 3.34334 0Z" fill="white"/>
<path d="M46.01 9.74034C45.4363 9.78377 44.8735 9.83807 44.3108 9.87064C44.2556 9.87064 44.1784 9.84893 44.1232 9.81635C43.715 9.54488 43.2957 9.28427 42.8984 8.99108C42.7881 8.91507 42.6778 8.75219 42.6778 8.62188C42.6667 5.80945 42.6667 2.98617 42.6667 0.173741C42.6667 0.119447 42.6778 0.0760116 42.6888 0C43.7812 0 44.8735 0 45.9879 0C46.01 3.23592 46.01 6.47184 46.01 9.74034Z" fill="white"/>
<path d="M3.34334 10.4093C3.96833 9.74628 4.73587 9.85498 5.48148 9.9202C5.59112 9.93107 5.70077 10.0506 5.78849 10.1485C6.17226 10.5941 6.51217 11.0833 6.91786 11.4963C7.30163 11.8877 7.37839 12.3224 7.29067 12.8116C7.1262 13.7029 6.97269 14.5834 6.77532 15.4747C6.74243 15.6378 6.54506 15.7682 6.42445 15.9204C6.25998 15.7356 6.00779 15.5834 5.942 15.3769C5.85428 15.1051 5.9091 14.8008 5.92007 14.5073C5.93103 14.1921 5.92007 13.9095 5.64595 13.6812C5.56919 13.616 5.58016 13.4094 5.61305 13.2681C5.64595 13.0833 5.7556 12.9203 5.77753 12.7355C5.79945 12.529 5.75559 12.3116 5.76656 12.0942C5.82138 11.0289 5.30604 10.7572 4.36306 10.5724C4.03412 10.4963 3.70518 10.4528 3.34334 10.4093Z" fill="#FF6600"/>
<path d="M43.1441 10.4183C42.7073 10.4835 42.3713 10.5161 42.0466 10.5813C40.9939 10.7878 40.5571 11.0377 40.5795 12.1244C40.5795 12.3743 40.5683 12.6243 40.5683 12.8851C40.5683 12.972 40.5683 13.1024 40.6243 13.1459C40.9491 13.4067 40.8147 13.6023 40.5907 13.8414C40.4899 13.9392 40.4339 14.1131 40.4227 14.2652C40.4004 14.613 40.4339 14.9607 40.4115 15.2976C40.4004 15.4606 40.322 15.6345 40.2212 15.754C40.1428 15.8518 39.9636 15.9388 39.8516 15.917C39.7508 15.8953 39.6164 15.7323 39.594 15.6127C39.4149 14.7977 39.2581 13.9718 39.1013 13.1568C39.0789 13.0481 39.0453 12.9503 39.0341 12.8416C38.9669 12.3743 38.9893 11.9397 39.3813 11.5593C39.6948 11.2659 39.93 10.8964 40.2324 10.5813C40.4451 10.3531 40.6691 9.99446 40.9155 9.96186C41.4866 9.88579 42.1138 9.73364 42.6625 10.1466C42.7633 10.2335 42.9201 10.2987 43.1441 10.4183Z" fill="#FF6600"/>
</svg>