<svg width="8" height="10" viewBox="0 0 8 10" fill="none" xmlns="http://www.w3.org/2000/svg">
<path d="M0.70834 3.75H1.33334V2.91666C1.33334 1.3084 2.64172 0 4.25 0C5.85828 0 7.16666 1.3084 7.16666 2.91666V3.75H7.79166C7.90682 3.75 8 3.84318 8 3.95834V9.16668C8 9.62627 7.62627 10 7.16666 10H1.33332C0.87373 10 0.5 9.62627 0.5 9.16666V3.95834C0.5 3.84318 0.593184 3.75 0.70834 3.75ZM3.62621 8.10201C3.61971 8.1608 3.63861 8.2198 3.67809 8.26396C3.71756 8.30811 3.77412 8.33334 3.83332 8.33334H4.66666C4.72586 8.33334 4.78242 8.30811 4.82189 8.26396C4.86137 8.21982 4.88029 8.16082 4.87377 8.10201L4.74234 6.92018C4.95576 6.76494 5.08332 6.51937 5.08332 6.25C5.08332 5.79041 4.70959 5.41666 4.24998 5.41666C3.79037 5.41666 3.41664 5.79039 3.41664 6.25C3.41664 6.51937 3.5442 6.76494 3.75762 6.92018L3.62621 8.10201ZM2.58334 3.75H5.91666V2.91666C5.91666 1.99768 5.16898 1.25 4.25 1.25C3.33102 1.25 2.58334 1.99768 2.58334 2.91666V3.75Z" fill="#FF7A00"/>
</svg>
