<svg width="10" height="10" viewBox="0 0 10 10" fill="none" xmlns="http://www.w3.org/2000/svg">
<g clip-path="url(#clip0_39:639)">
<path d="M4.9834 0.847168H1.24584C1.0166 0.847168 0.830566 1.03322 0.830566 1.26244V8.73754C0.830566 8.96678 1.01662 9.15281 1.24584 9.15281H4.9834C5.21305 9.15281 5.39867 9.33844 5.39867 9.56809C5.39867 9.79773 5.21305 9.9834 4.9834 9.9834H1.24584C0.558965 9.9834 0 9.42441 0 8.73754V1.26246C0 0.575586 0.558965 0.0166216 1.24584 0.0166216H4.9834C5.21305 0.0166216 5.39867 0.202247 5.39867 0.431894C5.39867 0.661543 5.21305 0.847168 4.9834 0.847168Z" fill="#FF7A00"/>
<path d="M9.87631 5.29573L7.35139 7.78743C7.1886 7.94856 6.92531 7.94647 6.76418 7.78327C6.60305 7.62006 6.60471 7.35719 6.76834 7.19606L8.57274 5.41534H3.7376C3.50795 5.41534 3.32233 5.22971 3.32233 5.00006C3.32233 4.77041 3.50795 4.58477 3.7376 4.58477H8.57274L6.76834 2.80405C6.60473 2.64291 6.60348 2.38004 6.76418 2.21684C6.84557 2.13461 6.95272 2.09309 7.05986 2.09309C7.16535 2.09309 7.27082 2.13295 7.35139 2.2127L9.87631 4.7044C9.95522 4.78246 10.0001 4.88879 10.0001 5.00008C10.0001 5.11133 9.95563 5.21723 9.87631 5.29573Z" fill="#FF7A00"/>
</g>
<defs>
<clipPath id="clip0_39:639">
<rect width="10" height="10" fill="white" transform="matrix(1 0 0 -1 0 10)"/>
</clipPath>
</defs>
</svg>
