<svg width="64" height="56" viewBox="0 0 64 56" fill="none" xmlns="http://www.w3.org/2000/svg">
<path d="M1 38.5347C1.35014 37.9045 1.87534 37.6594 2.57562 37.6944C5.83189 37.7294 9.12318 37.6944 12.3795 37.6944C12.5895 37.6944 12.8346 37.6944 13.0447 37.6944C13.1848 36.784 13.3248 35.9087 13.4649 34.9983C11.9593 34.9983 10.5237 34.9983 9.05315 34.9983C8.80806 34.9983 8.52795 34.9983 8.28285 34.9283C7.72263 34.7882 7.33748 34.298 7.40751 33.7028C7.44252 33.1076 7.75765 32.7224 8.35288 32.5824C8.59798 32.5123 8.84307 32.5123 9.08817 32.5123C10.6988 32.5123 12.3094 32.5123 13.9201 32.5123C14.2702 32.5123 14.4453 32.4073 14.5853 32.0922C14.9705 31.3219 15.3906 30.6216 15.8108 29.8163C15.0055 29.8163 14.2702 29.8163 13.5349 29.8163C12.3795 29.8163 11.8192 29.3961 11.8192 28.5908C11.8192 27.7855 12.3795 27.4003 13.5699 27.4003C14.8654 27.4003 16.1609 27.4354 17.4564 27.4003C17.7366 27.4003 18.0517 27.2253 18.2968 27.0852C19.3122 26.3849 20.2926 25.6146 21.343 24.9144C21.7281 24.6693 21.8332 24.4242 21.8332 24.004C21.8332 17.6315 21.8332 11.259 21.8332 4.92153C21.8332 3.20586 22.6385 1.87534 24.1091 1.31512C24.5992 1.14005 25.1595 1.03502 25.7197 1.03502C36.8891 1.03502 48.0234 1.03501 59.1928 1C61.8188 1 63.1143 3.03079 63.0793 4.92153C63.0443 16.0559 63.0093 27.1903 63.0793 38.3246C63.0793 40.3554 61.5737 42.2812 59.1928 42.2111C54.606 42.1411 50.0192 42.2111 45.4324 42.1761C45.0122 42.1761 44.8372 42.2462 44.6971 42.7363C42.8414 49.3189 38.5347 53.4505 31.8121 54.711C26.8051 55.6564 22.2883 54.2559 18.4368 50.8945C18.0867 50.5794 17.7366 50.4394 17.2464 50.4394C15.9158 50.4744 14.5853 50.4394 13.2548 50.4394C12.3795 50.4394 11.8543 49.9492 11.8543 49.2139C11.8543 48.4786 12.4145 48.0234 13.2898 48.0234C14.0951 48.0234 14.8654 48.0234 15.6707 48.0234C15.7058 48.0234 15.7408 47.9884 15.8108 47.9884C15.3556 47.1481 14.9355 46.3078 14.4803 45.5024C14.4103 45.3974 14.1301 45.3274 13.9551 45.3274C12.3094 45.3274 10.6988 45.3274 9.05315 45.3274C8.87809 45.3274 8.70302 45.3274 8.49293 45.2924C7.82767 45.1873 7.40751 44.6271 7.44252 44.0319C7.47754 43.4016 7.93271 42.9114 8.63299 42.8764C9.99852 42.8414 11.3641 42.8414 12.7646 42.8414C13.0097 42.8414 13.2548 42.8414 13.5349 42.8414C13.3949 41.931 13.2548 41.0557 13.1147 40.1103C12.9397 40.1103 12.7296 40.1103 12.5195 40.1103C9.26324 40.1103 6.00696 40.0753 2.75069 40.1103C2.0154 40.1103 1.45518 39.9703 1.03501 39.375C0.999997 39.0949 1 38.8148 1 38.5347ZM24.3541 23.5488C29.7112 22.1483 34.6132 22.8836 38.9549 26.2799C43.2966 29.6762 45.2924 34.263 45.1523 39.7602C45.3974 39.7602 45.5725 39.7602 45.7475 39.7602C50.2293 39.7602 54.676 39.7602 59.1578 39.7602C60.2082 39.7602 60.6284 39.34 60.6284 38.2896C60.6284 27.1552 60.6284 16.0209 60.6284 4.88652C60.6284 3.87113 60.2082 3.48598 59.1928 3.48598C56.1116 3.48598 52.9954 3.48598 49.9142 3.48598C49.7391 3.48598 49.564 3.48597 49.3189 3.52098C49.3189 3.80109 49.3189 4.04619 49.3189 4.25627C49.3189 8.28285 49.3189 12.3444 49.3189 16.371C49.3189 16.9663 49.2489 17.5265 48.6537 17.8066C48.0584 18.1217 47.5682 17.9116 47.0781 17.5615C45.7125 16.6161 44.347 15.6707 43.0165 14.7254C42.6313 14.4453 42.3512 14.4103 41.931 14.6904C40.6005 15.6707 39.235 16.5811 37.8694 17.5615C37.3792 17.9116 36.8891 18.1567 36.2938 17.8416C35.6986 17.5265 35.6286 17.0013 35.6286 16.406C35.6286 12.3444 35.6286 8.28285 35.6286 4.22126C35.6286 3.97616 35.6286 3.76609 35.6286 3.48598C35.3134 3.48598 35.1034 3.48598 34.8933 3.48598C31.9171 3.48598 28.9059 3.48598 25.9298 3.48598C24.6343 3.48598 24.3191 3.76608 24.3191 5.0966C24.3191 11.0139 24.3191 16.8962 24.3191 22.8135C24.3541 22.9886 24.3541 23.1987 24.3541 23.5488ZM29.151 52.5052C36.679 52.5052 42.7363 46.4128 42.7363 38.9199C42.7363 31.3919 36.644 25.3345 29.151 25.3345C21.6581 25.3345 15.5657 31.4269 15.5657 38.9549C15.5307 46.4478 21.6231 52.5052 29.151 52.5052ZM46.868 3.52098C43.9268 3.52098 41.0557 3.52098 38.1496 3.52098C38.1496 7.16241 38.1496 10.7338 38.1496 14.4102C39.34 13.5699 40.4605 12.7996 41.5809 12.0293C42.3512 11.5041 42.6663 11.5041 43.4366 12.0293C44.417 12.7296 45.4324 13.3949 46.4128 14.0951C46.5178 14.1652 46.6579 14.2352 46.833 14.3402C46.868 10.6638 46.868 7.09238 46.868 3.52098Z" fill="#3B3E4C" stroke="#3B3E4C"/>
<path d="M7.05751 50.4393C6.70737 50.4393 6.32222 50.4743 5.97208 50.4393C5.34184 50.4043 4.88666 49.9141 4.88666 49.2839C4.85164 48.6536 5.30682 48.0584 5.93707 48.0234C6.70737 47.9884 7.51268 47.9884 8.28299 48.0234C8.91323 48.0584 9.40343 48.6536 9.36841 49.2489C9.3334 49.8791 8.87822 50.3693 8.21296 50.4043C7.79279 50.4393 7.40764 50.4393 7.05751 50.4393Z" fill="#3B3E4C" stroke="#3B3E4C"/>
<path d="M7.1276 27.3653C7.47774 27.3653 7.82787 27.3653 8.143 27.3653C8.80826 27.4003 9.33346 27.8905 9.36848 28.5558C9.36848 29.186 8.87828 29.7463 8.21302 29.7813C7.47773 29.8163 6.77746 29.8163 6.04217 29.7813C5.3419 29.7463 4.88672 29.2211 4.88672 28.5558C4.88672 27.8905 5.37691 27.4003 6.07719 27.3653C6.39231 27.3653 6.74245 27.3653 7.1276 27.3653Z" fill="#3B3E4C" stroke="#3B3E4C"/>
<path d="M29.1163 50.0542C22.9889 50.0542 17.9819 45.0473 17.9819 38.9198C17.9819 32.7924 22.9889 27.7855 29.1163 27.7855C35.2437 27.7855 40.2857 32.8275 40.2507 38.9899C40.2857 45.0823 35.2437 50.0542 29.1163 50.0542ZM28.8012 30.2365C24.0043 30.4115 20.2228 34.4381 20.4329 39.27C20.643 44.2769 24.8096 47.8484 29.4664 47.6033C34.5084 47.3582 38.0098 43.1915 37.7997 38.6047C37.5896 33.6678 33.458 29.9213 28.8012 30.2365Z" fill="#3B3E4C" stroke="#3B3E4C"/>
<path d="M30.3412 37.6944C31.1115 37.6944 31.7768 37.6944 32.4771 37.6944C33.2824 37.6944 33.8426 38.1845 33.8426 38.8848C33.8426 39.5851 33.2824 40.1103 32.4771 40.1103C31.3917 40.1103 30.3062 40.1103 29.2208 40.1103C28.4155 40.1103 27.9253 39.6551 27.9253 38.8498C27.9253 37.2392 27.9253 35.6285 27.9253 34.0179C27.9253 33.2126 28.4155 32.7224 29.1158 32.7224C29.851 32.7224 30.3412 33.2126 30.3412 34.0529C30.3412 35.2084 30.3412 36.3988 30.3412 37.6944Z" fill="#3B3E4C" stroke="#3B3E4C"/>
</svg>
