<svg width="38" height="40" viewBox="0 0 38 40" fill="none" xmlns="http://www.w3.org/2000/svg">
<path d="M2.96296 0.28125C8.40958 0.28125 13.8998 0.28125 19.3464 0.28125C19.39 0.324355 19.4335 0.324351 19.4771 0.324351C20.8715 0.539876 22.0044 1.18646 22.963 2.17787C24.4444 3.72965 25.9259 5.23831 27.451 6.74698C28.671 7.95392 29.2375 9.41949 29.2375 11.1437C29.2375 13.6869 29.2375 16.187 29.2375 18.7302C29.2375 18.8595 29.2375 18.9888 29.2375 19.1612C24.3573 18.9457 20.5229 20.713 18.0392 24.851C15.5556 29.0322 15.9041 33.2134 18.4749 37.2653C18.3878 37.2653 18.3442 37.2653 18.3007 37.2653C13.3333 37.2653 8.36601 37.2653 3.39869 37.2653C2.87581 37.2653 2.26579 37.0928 1.83006 36.8342C0.522874 36.1445 0 34.9807 0 33.5582C0 26.7477 0 19.9802 0 13.1696C0 10.1092 0 7.00561 0 3.94516C0 2.5658 0.566445 1.48818 1.78649 0.7554C2.13507 0.539876 2.5708 0.45367 2.96296 0.28125ZM9.32462 11.4885C8.32244 11.4885 7.32026 11.4885 6.31808 11.4885C5.53377 11.4885 5.05446 11.9627 5.05446 12.6524C5.05446 13.342 5.57734 13.8162 6.31808 13.8162C8.32244 13.8162 10.2832 13.8162 12.2876 13.8162C13.0719 13.8162 13.5948 13.342 13.5948 12.6524C13.5948 11.9627 13.0719 11.4885 12.2876 11.4885C11.2854 11.4885 10.3268 11.4885 9.32462 11.4885ZM9.28104 19.9802C10.2832 19.9802 11.2854 19.9802 12.2876 19.9802C13.0719 19.9802 13.5948 19.506 13.5948 18.8595C13.5948 18.1698 13.0719 17.6956 12.2876 17.6956C10.3268 17.6956 8.32244 17.6956 6.36165 17.6956C5.57734 17.6956 5.05446 18.1698 5.05446 18.8595C5.05446 19.5491 5.57734 20.0233 6.36165 20.0233C7.36383 19.9802 8.32243 19.9802 9.28104 19.9802ZM9.32462 26.1873C10.3268 26.1873 11.329 26.1873 12.3311 26.1873C12.7669 26.1873 13.159 26.058 13.4205 25.67C13.6819 25.2821 13.6819 24.8942 13.5076 24.5062C13.2898 24.0752 12.8976 23.8596 12.3747 23.8596C10.3704 23.8596 8.40958 23.8596 6.40523 23.8596C5.62091 23.8596 5.09804 24.3338 5.09804 25.0235C5.09804 25.7563 5.62091 26.1873 6.4488 26.1873C7.36383 26.1873 8.36601 26.1873 9.32462 26.1873ZM19.3028 13.8162C19.5207 13.8162 19.7821 13.8162 20 13.8162C20.6536 13.7731 21.0893 13.2558 21.0893 12.6524C21.0893 12.0489 20.61 11.5747 19.9564 11.5316C19.5207 11.4885 19.085 11.4885 18.6492 11.5316C17.9956 11.5747 17.5599 12.0489 17.5599 12.6524C17.5599 13.2989 17.9956 13.7731 18.6492 13.8162C18.8671 13.8162 19.085 13.8162 19.3028 13.8162ZM19.3028 17.6956C19.085 17.6956 18.8671 17.6956 18.6492 17.6956C17.9956 17.7387 17.5599 18.2129 17.5163 18.8164C17.5163 19.4629 17.9521 19.9371 18.6057 19.9802C19.0414 20.0233 19.5207 20.0233 19.9564 19.9802C20.61 19.9371 21.0457 19.4198 21.0457 18.8164C21.0457 18.2129 20.5664 17.7387 19.9129 17.6956C19.7821 17.6525 19.5643 17.6956 19.3028 17.6956Z" fill="#fff"/>
<path d="M28.1039 39.8516C22.9623 39.8516 18.7793 35.7135 18.7793 30.6702C18.7793 25.5839 22.9623 21.4889 28.1039 21.4889C33.2891 21.4889 37.4721 25.627 37.4721 30.6702C37.4721 35.7135 33.2455 39.8516 28.1039 39.8516ZM27.1453 30.4116C26.971 30.0668 26.8403 29.765 26.666 29.5064C26.361 28.9029 25.6638 28.7305 25.0974 28.9891C24.5309 29.2478 24.3131 29.9375 24.5745 30.4978C24.9667 31.3599 25.4024 32.1789 25.8381 32.9979C26.2303 33.7307 27.1889 33.86 27.7118 33.2134C28.8011 31.9634 29.8904 30.7133 30.8926 29.4202C31.4155 28.7736 31.0669 27.8253 30.239 27.6098C29.7161 27.4805 29.324 27.696 29.0189 28.0839C28.4089 28.9029 27.7989 29.6357 27.1453 30.4116Z" fill="#fff"/>
</svg>
