<svg width="52" height="52" viewBox="0 0 52 52" fill="#fff" xmlns="http://www.w3.org/2000/svg">
<path opacity="0.5" d="M38.6066 52C38.338 52 38.0694 52 37.8007 52C37.7624 51.9617 37.6856 51.9234 37.6472 51.8851C33.848 50.6215 30.0487 49.3579 26.2878 48.1325C26.0959 48.056 25.8273 48.0943 25.597 48.1708C23.448 48.8601 21.3373 49.5876 19.1882 50.2769C17.4996 50.8512 15.8494 51.4256 14.1609 52C13.8922 52 13.6236 52 13.355 52C13.2015 51.9234 13.0096 51.8468 12.8561 51.8085C9.01845 50.5066 5.14243 49.243 1.26642 47.9411C0.307006 47.6348 0 47.1753 0 46.1797C0 40.2062 0 34.1944 0 28.2209C0 27.2253 0.307006 26.7658 1.26642 26.4595C4.72029 25.3107 8.21255 24.1237 11.7048 23.0133C12.1269 22.8601 12.2421 22.6686 12.2421 22.2474C12.2421 16.7717 12.2421 11.2577 12.2421 5.78203C12.2421 4.78645 12.5491 4.32695 13.5085 4.02062C17.4229 2.71871 21.3373 1.3785 25.29 0.114875C25.7122 -0.0382916 26.2878 -0.0382916 26.71 0.114875C30.6244 1.3785 34.5387 2.71871 38.4531 4.02062C39.4893 4.36524 39.7579 4.78645 39.7579 5.85862C39.7579 11.296 39.7579 16.7334 39.7579 22.1708C39.7579 22.6686 39.8731 22.8984 40.3719 23.0515C43.8642 24.162 47.3181 25.349 50.772 26.4978C51.6546 26.8041 52 27.2636 52 28.1826C52 34.1944 52 40.1679 52 46.1797C52 47.1753 51.693 47.5965 50.6952 47.9411C48.3542 48.7069 46.0517 49.4728 43.7107 50.2769C42.0221 50.813 40.2952 51.4256 38.6066 52ZM12.2037 48.324C12.2037 48.0943 12.2037 47.9411 12.2037 47.7496C12.2037 43.0398 12.2037 38.3682 12.2037 33.6583C12.2037 33.2371 12.0886 33.0839 11.7048 32.9691C8.9417 32.0884 6.21697 31.1311 3.45387 30.2504C3.33875 30.2121 3.18524 30.1738 3.03173 30.1355C3.03173 35.1134 3.03173 40.053 3.03173 44.9926C3.03173 45.1458 3.26199 45.3373 3.4155 45.4138C5.06568 45.9882 6.75424 46.5626 8.40443 47.0987C9.67085 47.4816 10.9373 47.9028 12.2037 48.324ZM27.5159 30.0972C27.5159 30.2121 27.4775 30.2887 27.4775 30.3652C27.4775 35.2283 27.4775 40.053 27.4775 44.9161C27.4775 45.1841 27.5542 45.3373 27.8613 45.4138C29.972 46.1031 32.0827 46.8306 34.155 47.5199C34.9609 47.7879 35.8052 48.056 36.6494 48.324C36.6494 48.056 36.6494 47.8645 36.6494 47.673C36.6494 43.1929 36.6494 38.7128 36.6494 34.271C36.6494 33.1605 36.6494 33.1605 35.5749 32.8159C32.9269 31.8969 30.2406 31.0162 27.5159 30.0972ZM24.4074 25.8468C24.4074 25.7703 24.4457 25.7703 24.4457 25.732C24.4457 20.8306 24.4457 15.891 24.4457 10.9897C24.4457 10.6834 24.2922 10.6068 24.062 10.5685C22.335 9.99411 20.6081 9.41973 18.8428 8.84536C17.6531 8.46245 16.4635 8.04124 15.2354 7.65832C15.2354 7.88807 15.2354 8.07953 15.2354 8.27099C15.2354 12.6362 15.2354 16.9632 15.2354 21.3284C15.2354 21.8262 15.0819 22.4389 15.3122 22.7835C15.5424 23.1281 16.1948 23.1664 16.6553 23.3196C19.2266 24.1237 21.7978 24.9661 24.4074 25.8468ZM27.5159 25.8468C27.7077 25.8085 27.8613 25.7702 28.0148 25.6937C30.7395 24.7747 33.4642 23.8557 36.2273 22.975C36.6111 22.8601 36.7262 22.7069 36.7262 22.2857C36.6878 17.9205 36.7262 13.5935 36.7262 9.22828C36.7262 8.73049 36.7262 8.1944 36.7262 7.65832C36.5343 7.73491 36.3808 7.77319 36.2273 7.81149C33.5026 8.73048 30.7779 9.61119 28.0531 10.5302C27.7078 10.6451 27.5542 10.7982 27.5542 11.1811C27.5542 15.891 27.5542 20.6392 27.5542 25.349C27.5159 25.5022 27.5159 25.6554 27.5159 25.8468ZM24.4457 30.1355C24.2539 30.2121 24.1004 30.2504 23.9469 30.2887C21.2221 31.2077 18.4974 32.0884 15.7727 33.0074C15.3889 33.1222 15.2354 33.2754 15.2354 33.6966C15.2738 38.4065 15.2354 43.1163 15.2354 47.8262C15.2354 47.9794 15.2354 48.1325 15.2738 48.324C18.2672 47.3284 21.1838 46.3328 24.1387 45.3756C24.4841 45.2607 24.4457 45.0692 24.4457 44.8395C24.4457 42.81 24.4457 40.8189 24.4457 38.7894C24.4457 35.9175 24.4457 33.0457 24.4457 30.1355ZM39.7196 48.324C39.9114 48.2857 40.0649 48.2474 40.2184 48.1708C42.9432 47.2518 45.6679 46.3328 48.431 45.4521C48.8148 45.3373 48.9299 45.1841 48.9299 44.7629C48.8915 40.3976 48.9299 36.0707 48.9299 31.7055C48.9299 31.2077 48.9299 30.6716 48.9299 30.1355C48.738 30.2121 48.5845 30.2504 48.431 30.2887C45.7063 31.2077 42.9815 32.0884 40.2568 33.0074C39.9114 33.1222 39.7579 33.2754 39.7579 33.6583C39.7579 38.3682 39.7579 43.1163 39.7579 47.8262C39.7196 47.9794 39.7196 48.1325 39.7196 48.324ZM6.48561 27.9529C6.63911 28.0295 6.67749 28.0677 6.71587 28.106C8.98007 28.8719 11.2827 29.6377 13.5469 30.3652C13.7004 30.4035 13.9306 30.4035 14.0841 30.327C16.2716 29.5994 18.459 28.8719 20.6465 28.1443C20.7616 28.106 20.8768 28.0295 21.0686 27.9529C19.1114 27.3019 17.231 26.7275 15.3889 26.0383C14.276 25.6171 13.2782 25.6171 12.2037 26.0383C10.3232 26.7275 8.4428 27.3019 6.48561 27.9529ZM45.5144 27.9912C45.3609 27.9146 45.3225 27.8763 45.2458 27.838C42.9815 27.0722 40.7173 26.3446 38.4531 25.5788C38.2612 25.5022 38.031 25.5405 37.8391 25.6171C36.1889 26.1532 34.5387 26.6892 32.8886 27.2636C32.2745 27.4551 31.6605 27.6848 30.9314 27.9146C31.1233 27.9912 31.1616 28.0295 31.2384 28.0295C33.4642 28.7953 35.7284 29.5228 37.9926 30.2504C38.1845 30.327 38.4148 30.2887 38.6066 30.2121C39.8731 29.7909 41.1395 29.3697 42.4059 28.9485C43.4037 28.6804 44.4015 28.3741 45.5144 27.9912ZM33.2723 5.51399C33.0421 5.43741 32.9653 5.39912 32.8886 5.36083C30.6627 4.63329 28.4753 3.86745 26.2494 3.1782C26.0576 3.10162 25.8273 3.13991 25.6354 3.1782C23.5247 3.86745 21.414 4.59499 19.2649 5.28424C19.1114 5.32253 18.9579 5.39912 18.7277 5.4757C18.8812 5.55228 18.9196 5.59058 18.9579 5.59058C21.2221 6.35641 23.4863 7.08395 25.7506 7.84978C25.9424 7.92636 26.1727 7.88807 26.3646 7.81149C28.3601 7.16053 30.3173 6.50957 32.2745 5.85862C32.5816 5.74374 32.8886 5.62887 33.2723 5.51399Z" fill="#fff"/>
</svg>
