<svg width="18" height="17" viewBox="0 0 18 17" fill="none" xmlns="http://www.w3.org/2000/svg">
<path d="M17.9217 8.77475C17.8825 8.81393 17.8237 8.8531 17.7846 8.89227C16.6289 10.0283 15.4929 11.1839 14.3373 12.3199C13.3972 13.2405 12.2612 13.6714 10.9684 13.691C9.69532 13.691 8.4222 13.691 7.16866 13.691C7.03156 13.691 6.93362 13.7301 6.85528 13.8281C5.91513 14.7682 4.97497 15.7084 4.03482 16.6681C3.99565 16.7073 3.95647 16.766 3.9173 16.8052C2.60501 15.4929 1.3123 14.2002 0 12.8879C0.0195865 12.8683 0.0587595 12.8292 0.0979325 12.79C1.27312 11.6148 2.44831 10.4396 3.6235 9.26441C4.17193 8.71599 4.83787 8.44179 5.62133 8.44179C7.48205 8.44179 9.32318 8.44179 11.1839 8.44179C11.2427 8.44179 11.321 8.44179 11.3994 8.44179C11.3994 9.1469 11.3994 9.83242 11.3994 10.5571C9.8716 10.5571 8.34385 10.5571 6.79652 10.5571C6.79652 10.9097 6.79652 11.2427 6.79652 11.6148C6.85528 11.6148 6.91404 11.6148 6.99239 11.6148C8.30468 11.6148 9.61698 11.6148 10.9293 11.6148C11.7519 11.6148 12.4374 11.3406 13.025 10.753C13.8477 9.91077 14.7095 9.06855 15.5517 8.22633C15.9826 7.79543 16.4135 7.73667 16.9423 8.01088C17.3341 8.20674 17.6866 8.44178 18 8.75516C17.9217 8.73558 17.9217 8.75517 17.9217 8.77475Z" fill="#696C7B"/>
<path d="M6.26763 0C7.30572 0 8.36339 0 9.40148 0C9.40148 1.03808 9.40148 2.07617 9.40148 3.13384C9.75403 3.13384 10.1066 3.13384 10.4591 3.13384C10.4591 2.09576 10.4591 1.05767 10.4591 0C11.5168 0 12.5549 0 13.6126 0C13.6126 2.44831 13.6126 4.89663 13.6126 7.36453C11.1643 7.36453 8.71595 7.36453 6.24805 7.36453C6.26763 4.89663 6.26763 2.44831 6.26763 0Z" fill="#696C7B"/>
</svg>
