<svg width="19" height="18" viewBox="0 0 19 18" fill="none" xmlns="http://www.w3.org/2000/svg">
<path d="M17.9816 13.5689C17.8529 13.3667 17.761 13.1644 17.6139 12.9806C17.4484 12.7783 17.191 12.7232 16.9336 12.7232C16.5843 12.7232 16.2533 12.7232 15.8856 12.7232C15.8856 12.5393 15.8856 12.3922 15.8856 12.2268C15.8856 11.3074 15.1869 10.6272 14.2676 10.6088C12.76 10.6088 11.2523 10.6088 9.74466 10.6088C9.67111 10.6088 9.59757 10.6088 9.52402 10.6088C9.52402 10.2594 9.52402 9.9101 9.52402 9.56077C9.72627 9.56077 9.9469 9.56077 10.1491 9.56077C10.4617 9.56077 10.7743 9.56077 11.1052 9.56077C11.3994 9.56077 11.62 9.32175 11.62 9.02757C11.62 8.73339 11.3994 8.51276 11.0868 8.51276C10.9214 8.51276 10.7559 8.51276 10.5536 8.51276C10.5536 8.16342 10.5536 7.81409 10.5536 7.46475C9.48725 7.46475 8.45763 7.46475 7.39123 7.46475C7.39123 7.81409 7.39123 8.14503 7.39123 8.51276C7.20737 8.51276 7.0419 8.51276 6.87642 8.51276C6.56386 8.51276 6.34323 8.73339 6.34323 9.04596C6.34323 9.34014 6.56386 9.56077 6.87642 9.56077C7.33607 9.56077 7.79573 9.56077 8.25538 9.56077C8.31054 9.56077 8.38408 9.56077 8.45763 9.56077C8.45763 9.9101 8.45763 10.2594 8.45763 10.6088C8.38408 10.6088 8.31054 10.6088 8.25538 10.6088C6.7661 10.6088 5.27683 10.6088 3.78756 10.6088C2.77632 10.6088 2.11442 11.2707 2.11442 12.2819C2.11442 12.429 2.11442 12.5577 2.11442 12.7232C1.78347 12.7232 1.47091 12.7232 1.15834 12.7232C0.441282 12.7232 1.90735e-05 13.1461 1.90735e-05 13.8815C1.90735e-05 14.1757 1.90735e-05 14.4699 1.90735e-05 14.764C1.90735e-05 15.4443 0.441286 15.8856 1.12157 15.8856C1.45252 15.8856 1.76508 15.8856 2.09603 15.8856C2.09603 16.2349 2.09603 16.5843 2.09603 16.9336C1.93056 16.9336 1.76509 16.9336 1.59961 16.9336C1.28705 16.9336 1.06641 17.1542 1.06641 17.4668C1.06641 17.761 1.28705 18 1.59961 18C2.29828 18 2.99695 18 3.69563 18C4.00819 18 4.22882 17.761 4.22882 17.4668C4.22882 17.1726 4.00819 16.952 3.69563 16.952C3.53015 16.952 3.36467 16.952 3.18081 16.952C3.18081 16.6026 3.18081 16.2533 3.18081 15.904C3.21759 15.904 3.27275 15.8856 3.32791 15.8856C3.64047 15.8856 3.95303 15.8856 4.28398 15.8856C4.81718 15.8672 5.27683 15.4259 5.29522 14.8744C5.3136 14.4882 5.29522 14.1205 5.29522 13.7344C5.27683 13.1828 4.83556 12.7416 4.28398 12.7232C3.93464 12.7232 3.56692 12.7232 3.1992 12.7232C3.1992 12.5025 3.18081 12.3003 3.1992 12.098C3.23597 11.8223 3.45661 11.6568 3.76917 11.6568C4.57816 11.6568 5.38715 11.6568 6.19614 11.6568C6.94997 11.6568 7.7038 11.6568 8.47602 11.6568C8.47602 12.0061 8.47602 12.3371 8.47602 12.7048C8.18184 12.7048 7.86927 12.7048 7.55671 12.7048C7.42801 12.7048 7.2993 12.7048 7.1706 12.7416C6.69256 12.8519 6.38 13.2564 6.38 13.7528C6.38 14.1021 6.38 14.4699 6.38 14.8192C6.38 15.4075 6.83965 15.8488 7.42801 15.8672C7.77734 15.8672 8.12668 15.8672 8.4944 15.8672C8.4944 16.2165 8.4944 16.5659 8.4944 16.9152C8.32893 16.9152 8.18184 16.9152 8.01636 16.9152C7.68541 16.9152 7.44639 17.1358 7.44639 17.43C7.44639 17.7426 7.66703 17.9632 8.01636 17.9632C8.69665 17.9632 9.37693 17.9632 10.0572 17.9632C10.3882 17.9632 10.6088 17.7426 10.6088 17.43C10.6088 17.1175 10.3882 16.9152 10.0572 16.8968C9.89174 16.8968 9.74466 16.8968 9.57918 16.8968C9.57918 16.5475 9.57918 16.1982 9.57918 15.8488C9.89175 15.8488 10.2043 15.8488 10.5169 15.8488C11.2339 15.8488 11.6752 15.4259 11.6752 14.6905C11.6752 14.3963 11.6752 14.1205 11.6752 13.8263C11.6752 13.1093 11.2339 12.6864 10.5169 12.6864C10.2043 12.6864 9.89175 12.6864 9.57918 12.6864C9.57918 12.3371 9.57918 11.9877 9.57918 11.6384C9.63434 11.6384 9.6895 11.6384 9.74466 11.6384C11.2339 11.6384 12.7416 11.6384 14.2309 11.6384C14.6905 11.6384 14.8744 11.8406 14.8744 12.3003C14.8744 12.429 14.8744 12.5577 14.8744 12.7048C14.5434 12.7048 14.2125 12.7048 13.8999 12.7048C13.2012 12.7048 12.7784 13.1461 12.7784 13.8263C12.7784 14.1573 12.7784 14.4699 12.7784 14.8008C12.7784 15.4075 13.238 15.8672 13.8448 15.8672C14.1757 15.8672 14.525 15.8672 14.8744 15.8672C14.8744 16.2165 14.8744 16.5659 14.8744 16.9152C14.7089 16.9152 14.5434 16.9152 14.3596 16.9152C14.047 16.9152 13.8264 17.1358 13.8264 17.4484C13.8264 17.7426 14.047 17.9632 14.378 17.9632C15.0766 17.9632 15.7569 17.9632 16.4556 17.9632C16.7681 17.9632 17.0072 17.7426 17.0072 17.4484C17.0072 17.1358 16.7865 16.9152 16.4556 16.9152C16.2901 16.9152 16.1246 16.9152 15.9592 16.9152C15.9592 16.5659 15.9592 16.2165 15.9592 15.8672C16.1246 15.8672 16.3085 15.8672 16.474 15.8672C16.6578 15.8672 16.8417 15.8672 17.0439 15.8672C17.4852 15.8488 17.8529 15.573 18 15.1685C18.0184 15.1134 18.0368 15.0766 18.0552 15.0214C17.9816 14.5434 17.9816 14.047 17.9816 13.5689Z" fill="#fff"/>
<path d="M5.58946 0C5.20335 0.0919305 4.85401 0.257407 4.59661 0.56997C4.35759 0.864148 4.22888 1.17671 4.22888 1.54443C4.22888 2.6476 4.2105 3.75076 4.22888 4.85393C4.24727 5.69969 4.92756 6.37998 5.77332 6.39836C7.90611 6.41675 10.0573 6.41675 12.1901 6.39836C13.0358 6.39836 13.7161 5.69969 13.7345 4.85393C13.7529 3.75076 13.7529 2.6476 13.7345 1.54443C13.7345 0.808988 13.2013 0.183863 12.4842 0.0367745C12.4475 0.0367745 12.4107 0.0183861 12.3739 0C10.0941 0 7.85095 0 5.58946 0Z" fill="#fff"/>
</svg>
