<svg width="17" height="18" viewBox="0 0 17 18" fill="none" xmlns="http://www.w3.org/2000/svg">
<path d="M1.33333 0C3.78431 0 6.2549 0 8.70588 0C8.72549 0.0196078 8.7451 0.019606 8.7647 0.019606C9.39215 0.117645 9.90196 0.411766 10.3333 0.862747C11 1.56863 11.6667 2.2549 12.3529 2.94117C12.902 3.49019 13.1569 4.15686 13.1569 4.94117C13.1569 6.09804 13.1569 7.23529 13.1569 8.39216C13.1569 8.45098 13.1569 8.5098 13.1569 8.58823C10.9608 8.4902 9.23529 9.29411 8.11764 11.1765C7 13.0784 7.15686 14.9804 8.31372 16.8235C8.27451 16.8235 8.2549 16.8235 8.23529 16.8235C6 16.8235 3.7647 16.8235 1.52941 16.8235C1.29412 16.8235 1.01961 16.7451 0.823529 16.6274C0.235293 16.3137 0 15.7843 0 15.1373C0 12.0392 0 8.96078 0 5.86275C0 4.47059 0 3.05882 0 1.66666C0 1.03921 0.2549 0.549018 0.80392 0.215684C0.960782 0.117645 1.15686 0.0784314 1.33333 0ZM4.19608 5.09804C3.7451 5.09804 3.29412 5.09804 2.84314 5.09804C2.4902 5.09804 2.27451 5.31372 2.27451 5.62745C2.27451 5.94117 2.5098 6.15686 2.84314 6.15686C3.7451 6.15686 4.62745 6.15686 5.52941 6.15686C5.88235 6.15686 6.11765 5.94117 6.11765 5.62745C6.11765 5.31372 5.88235 5.09804 5.52941 5.09804C5.07843 5.09804 4.64706 5.09804 4.19608 5.09804ZM4.17647 8.96078C4.62745 8.96078 5.07843 8.96078 5.52941 8.96078C5.88235 8.96078 6.11765 8.7451 6.11765 8.45098C6.11765 8.13725 5.88235 7.92157 5.52941 7.92157C4.64706 7.92157 3.7451 7.92157 2.86274 7.92157C2.5098 7.92157 2.27451 8.13725 2.27451 8.45098C2.27451 8.7647 2.5098 8.98039 2.86274 8.98039C3.31372 8.96078 3.7451 8.96078 4.17647 8.96078ZM4.19608 11.7843C4.64706 11.7843 5.09804 11.7843 5.54902 11.7843C5.74509 11.7843 5.92157 11.7255 6.03921 11.549C6.15686 11.3725 6.15686 11.1961 6.07843 11.0196C5.98039 10.8235 5.80392 10.7255 5.56863 10.7255C4.66667 10.7255 3.78431 10.7255 2.88235 10.7255C2.52941 10.7255 2.29412 10.9412 2.29412 11.2549C2.29412 11.5882 2.52941 11.7843 2.90196 11.7843C3.31372 11.7843 3.7647 11.7843 4.19608 11.7843ZM8.68627 6.15686C8.78431 6.15686 8.90196 6.15686 9 6.15686C9.29412 6.13726 9.49019 5.90196 9.49019 5.62745C9.49019 5.35294 9.27451 5.13725 8.98039 5.11764C8.78431 5.09804 8.58823 5.09804 8.39215 5.11764C8.09804 5.13725 7.90196 5.35294 7.90196 5.62745C7.90196 5.92157 8.09804 6.13726 8.39215 6.15686C8.49019 6.15686 8.58823 6.15686 8.68627 6.15686ZM8.68627 7.92157C8.58823 7.92157 8.49019 7.92157 8.39215 7.92157C8.09804 7.94118 7.90196 8.15686 7.88235 8.43137C7.88235 8.72549 8.07843 8.94117 8.37255 8.96078C8.56863 8.98039 8.78431 8.98039 8.98039 8.96078C9.27451 8.94117 9.47058 8.70588 9.47058 8.43137C9.47058 8.15686 9.2549 7.94118 8.96078 7.92157C8.90196 7.90196 8.80392 7.92157 8.68627 7.92157Z" fill="#696C7B"/>
<path d="M12.647 18C10.3333 18 8.45093 16.1176 8.45093 13.8235C8.45093 11.5098 10.3333 9.64706 12.647 9.64706C14.9803 9.64706 16.8627 11.5294 16.8627 13.8235C16.8627 16.1176 14.9607 18 12.647 18ZM12.2156 13.7059C12.1372 13.549 12.0784 13.4118 11.9999 13.2941C11.8627 13.0196 11.549 12.9412 11.2941 13.0588C11.0392 13.1765 10.9411 13.4902 11.0588 13.7451C11.2352 14.1373 11.4313 14.5098 11.6274 14.8824C11.8039 15.2157 12.2352 15.2745 12.4705 14.9804C12.9607 14.4118 13.4509 13.8431 13.9019 13.2549C14.1372 12.9608 13.9803 12.5294 13.6078 12.4314C13.3725 12.3726 13.196 12.4706 13.0588 12.6471C12.7843 13.0196 12.5098 13.3529 12.2156 13.7059Z" fill="#696C7B"/>
</svg>
