<svg width="18" height="18" viewBox="0 0 18 18" fill="none" xmlns="http://www.w3.org/2000/svg">
<path d="M10.8147 18C12.8433 18 14.872 18 16.9042 18C16.9113 17.993 16.9184 17.9791 16.929 17.9791C17.6809 17.7527 18.0001 17.3311 18.0001 16.5682C18.0001 14.0531 18.0001 11.5379 18.0001 9.02276C18.0001 8.16231 17.4504 7.61539 16.5814 7.61539C14.7585 7.61539 12.9355 7.61539 11.1126 7.61539C10.9707 7.61539 10.8289 7.62584 10.6941 7.66067C10.077 7.81395 9.69396 8.32256 9.69396 8.98792C9.69041 10.6043 9.69396 12.2207 9.69396 13.8371C9.69396 14.7707 9.69041 15.7043 9.69396 16.6344C9.69751 17.2406 10.0132 17.7074 10.5522 17.9129C10.6338 17.9477 10.726 17.9721 10.8147 18Z" fill="#696C7B"/>
<path d="M0 1.08189C0 3.81491 0 6.54794 0 9.28096C0.00709016 9.2914 0.0141803 9.30185 0.0177254 9.31229C0.24461 10.0643 0.680655 10.3846 1.4783 10.3846C3.27211 10.3846 5.06237 10.3846 6.85618 10.3811C7.00862 10.3811 7.1646 10.3707 7.30995 10.3359C7.92325 10.1862 8.30612 9.67438 8.30612 9.00592C8.30966 7.1015 8.30612 5.19709 8.30612 3.2892C8.30612 2.64163 8.30966 1.99058 8.30612 1.34301C8.29903 0.573586 7.7389 0.00609207 6.98026 0.00261021C5.09428 -0.000871658 3.20475 -0.000871658 1.31877 0.00261021C0.716106 0.00261021 0.21625 0.385581 0.046086 0.953074C0.0319057 0.998335 0.0141803 1.04011 0 1.08189Z" fill="#696C7B"/>
<path d="M7.17919 18C7.3991 17.8903 7.6403 17.8099 7.83539 17.6637C8.16526 17.4078 8.3036 17.0313 8.3036 16.6073C8.30714 15.4594 8.31069 14.308 8.3036 13.1601C8.2965 12.3596 7.73607 11.7784 6.95927 11.7747C5.08999 11.7674 3.2207 11.7674 1.35142 11.7747C0.684577 11.7784 0.195087 12.1878 0.0319232 12.8458C0.0248291 12.875 0.0106411 12.9006 0 12.9298C0 14.2422 0 15.5581 0 16.8705C0.0212822 16.9326 0.0461114 16.9911 0.0638465 17.0532C0.184446 17.4224 0.411455 17.6966 0.755517 17.8647C0.865475 17.9196 0.982527 17.9561 1.09603 18C3.11784 18 5.14674 18 7.17919 18Z" fill="#696C7B"/>
<path d="M13.8529 0.00162888C12.9348 0.00162888 12.0132 0.00162888 11.0952 0.00162888C10.2586 0.00162888 9.69504 0.578962 9.69504 1.43765C9.6915 2.55577 9.6915 3.67389 9.69504 4.79201C9.69859 5.6434 10.2586 6.22438 11.0845 6.22803C12.9277 6.23169 14.7745 6.23169 16.6177 6.22803C17.4436 6.22803 18.0001 5.64339 18.0001 4.78836C18.0001 3.67024 18.0001 2.55212 18.0001 1.43399C18.0001 0.582614 17.4365 0.00162888 16.6141 0.00162888C15.689 -0.00202513 14.7709 0.00162888 13.8529 0.00162888Z" fill="#696C7B"/>
</svg>
