<svg width="16" height="19" viewBox="0 0 16 19" fill="none" xmlns="http://www.w3.org/2000/svg">
<path d="M15.6132 15.8598L14.268 13.6175C13.6467 12.5825 13.3184 11.3971 13.3184 10.1906V8.22641C13.3184 5.74674 11.6637 3.64941 9.40106 2.97326V1.56695C9.40106 0.702771 8.69829 0 7.83411 0C6.96993 0 6.26716 0.702771 6.26716 1.56695V2.97326C4.00453 3.64941 2.34985 5.74674 2.34985 8.22641V10.1906C2.34985 11.3971 2.02156 12.5817 1.40105 13.6167L0.0558526 15.859C-0.0170099 15.9804 -0.0185891 16.1309 0.0511518 16.2539C0.120893 16.3768 0.250165 16.4529 0.391189 16.4529H15.2771C15.4181 16.4529 15.5481 16.3769 15.6179 16.2547C15.6876 16.1324 15.6853 15.9804 15.6132 15.8598Z" fill="#fff"/>
<path d="M5.36694 17.2363C5.80882 18.1592 6.74428 18.8032 7.83406 18.8032C8.92384 18.8032 9.85934 18.1592 10.3012 17.2363H5.36694Z" fill="#fff"/>
</svg>
