<svg width="10" height="10" viewBox="0 0 10 10" fill="none" xmlns="http://www.w3.org/2000/svg">
<g clip-path="url(#clip0_39:646)">
<path d="M1.06128 0V10H6.89226L8.93888 7.95338V0L1.06128 0ZM1.64722 0.585938H8.35294V7.41537H6.35423V9.41406H1.6472V0.585938H1.64722ZM8.0623 8.00131L6.94017 9.12344V8.00131H8.0623Z" fill="#FF7A00"/>
<path d="M3.75 1.79041H6.25V2.37634H3.75V1.79041Z" fill="#FF7A00"/>
<path d="M2.60413 3.24866H7.39578V3.83459H2.60413V3.24866Z" fill="#FF7A00"/>
<path d="M2.60413 4.49866H7.39578V5.0846H2.60413V4.49866Z" fill="#FF7A00"/>
<path d="M2.60413 5.74866H7.39578V6.33459H2.60413V5.74866Z" fill="#FF7A00"/>
<path d="M2.60413 7.41541H3.21934V8.00134H2.60413V7.41541Z" fill="#FF7A00"/>
<path d="M3.8053 7.41541H4.99998V8.00134H3.8053V7.41541Z" fill="#FF7A00"/>
</g>
<defs>
<clipPath id="clip0_39:646">
<rect width="10" height="10" fill="white"/>
</clipPath>
</defs>
</svg>
