<svg width="189" height="32" viewBox="0 0 189 32" fill="none" xmlns="http://www.w3.org/2000/svg">
<path d="M26.264 32C25.1497 32 24.0997 32 23.0068 32C23.0068 27.2341 23.0068 22.4683 23.0068 17.6808C20.8318 17.6808 18.6997 17.6808 16.514 17.6808C16.514 22.4359 16.514 27.2017 16.514 31.9892C15.3997 31.9892 14.339 31.9892 13.2247 31.9892C13.2247 31.8595 13.2247 31.7298 13.2247 31.6001C13.2247 23.2896 13.214 14.9791 13.214 6.66856C13.214 3.48052 15.3033 0.822013 18.2818 0.162791C22.4283 -0.755798 26.2533 2.32418 26.264 6.60372C26.2747 12.8933 26.264 19.1722 26.264 25.4618C26.264 27.5043 26.264 29.536 26.264 31.5785C26.264 31.7082 26.264 31.8379 26.264 32ZM22.9854 14.3523C22.9961 14.201 23.0068 14.0713 23.0068 13.9416C23.0068 11.5749 23.0068 9.20819 23.0068 6.84147C23.0068 6.51726 23.0068 6.17144 22.9318 5.85804C22.589 4.26942 21.0354 3.1347 19.4711 3.31841C17.7354 3.51294 16.514 4.8638 16.514 6.58211C16.514 9.02447 16.514 11.4668 16.514 13.92C16.514 14.0605 16.5247 14.201 16.5354 14.3523C18.689 14.3523 20.8211 14.3523 22.9854 14.3523Z" fill="white"/>
<path d="M32.7961 0C33.9179 0 35.0175 0 36.1393 0C36.1393 10.61 36.1393 21.2092 36.1393 31.8408C35.0286 31.8408 33.929 31.8408 32.7961 31.8408C32.7961 21.2308 32.7961 10.6315 32.7961 0Z" fill="white"/>
<path d="M4.65699 18.5242C4.77667 18.535 4.89634 18.5565 5.01602 18.5565C5.66879 18.5565 6.32156 18.5565 6.97433 18.5565C7.40951 18.5565 7.81205 18.8255 7.84469 19.1376C7.92085 19.6971 7.6815 20.0522 7.13752 20.1705C6.23452 20.3857 5.32064 20.5794 4.41764 20.8054C3.66696 20.9883 3.01419 20.6224 2.3179 20.5041C2.2635 20.4933 2.19822 20.3965 2.18734 20.3319C2.1547 19.9446 2.1547 19.568 2.12207 19.1806C2.11119 19.03 2.08943 18.8147 1.99151 18.7287C1.48017 18.2875 1.27346 17.3729 1.53457 16.738C1.59985 16.5874 1.56721 16.2646 1.45841 16.1893C0.968837 15.8342 0.979716 15.35 0.957957 14.8227C0.936198 14.3063 1.05587 13.9081 1.49105 13.6068C1.70864 13.4562 1.68688 13.2733 1.65425 13.0043C1.58897 12.4448 1.61073 11.8422 1.7304 11.2934C1.7848 11.0352 2.13295 10.7877 2.52461 10.8307C3.97158 10.9599 5.41856 11.0675 6.86553 11.1858C7.094 11.2073 7.31159 11.2181 7.54006 11.2289C8.17108 11.2504 8.49746 11.5732 8.49746 12.1973C8.49746 12.5631 8.61714 12.9828 8.09492 13.1334C7.97524 13.1657 7.84469 13.198 7.71414 13.198C6.75674 13.2087 5.79934 13.2087 4.84194 13.2195C4.70051 13.2195 4.5482 13.2518 4.40676 13.2733C4.40676 13.3163 4.40676 13.3594 4.40676 13.4024C4.65699 13.4347 4.90722 13.4777 5.14657 13.51C6.10397 13.5961 7.05049 13.6822 8.00788 13.7683C8.41043 13.8005 8.73681 14.1341 8.74769 14.543C8.78033 15.6728 8.78033 15.6836 7.65974 15.7051C6.7241 15.7266 5.79934 15.7266 4.8637 15.7481C4.72227 15.7481 4.58084 15.7589 4.4394 15.7696C4.42852 15.8127 4.41764 15.8665 4.39588 15.9095C4.52644 15.9526 4.65699 16.0171 4.78755 16.0279C5.81022 16.0924 6.8329 16.1678 7.85557 16.2C8.20371 16.2108 8.46482 16.3184 8.59538 16.6197C8.72593 16.921 8.51922 17.5451 8.31251 17.728C7.75765 18.2229 7.05049 18.0723 6.40859 18.1799C5.83198 18.2767 5.23361 18.309 4.65699 18.3736C4.65699 18.4166 4.65699 18.4704 4.65699 18.5242Z" fill="#FF6600"/>
<path d="M44.8265 18.3978C44.3165 18.3438 43.8174 18.2789 43.3074 18.2248C42.9385 18.1816 42.5696 18.1708 42.2007 18.1167C41.9403 18.0735 41.6907 17.9978 41.452 17.9221C40.8335 17.7167 40.8769 17.1869 40.9203 16.7112C40.9529 16.3976 41.2024 16.2463 41.5497 16.2355C42.6022 16.1814 43.6438 16.1165 44.6963 16.0517C44.8374 16.0408 44.9676 15.976 45.1086 15.9435C45.0978 15.8895 45.0869 15.8462 45.0761 15.7922C44.935 15.7814 44.8048 15.7705 44.6638 15.7705C43.5462 15.7489 42.4286 15.7381 41.3218 15.7057C40.8661 15.6949 40.7467 15.5759 40.7793 15.1218C40.801 14.7434 40.6165 14.3001 41.0288 14.0299C41.1916 13.9217 41.3869 13.8028 41.5822 13.7812C42.7541 13.6514 43.9259 13.5433 45.1086 13.4352C45.1195 13.392 45.1303 13.3595 45.1303 13.3163C45.0001 13.2838 44.8808 13.2298 44.7506 13.2298C43.7849 13.219 42.8083 13.219 41.8426 13.219C41.2241 13.219 41.0288 13.0027 41.0071 12.3973C40.9963 11.9648 41.018 11.5756 41.452 11.3485C41.5388 11.3053 41.6365 11.2404 41.7341 11.2296C43.4485 11.089 45.1737 10.9485 46.899 10.8296C47.4849 10.7863 47.8647 11.1215 47.8538 11.7053C47.843 12.2027 48.0383 12.7216 47.7996 13.219C47.7562 13.2947 47.8972 13.5325 48.0057 13.5974C48.8304 14.1272 48.4832 14.938 48.494 15.6516C48.494 15.803 48.2336 15.9652 48.0925 16.1165C47.9081 16.3111 47.8104 16.5058 47.9623 16.7869C48.2661 17.3599 48.0166 18.3329 47.5175 18.7546C47.409 18.8411 47.409 19.0681 47.3873 19.2411C47.3547 19.6087 47.3547 19.9871 47.3004 20.3547C47.2896 20.4412 47.116 20.5385 46.9966 20.5818C45.8573 21.0683 44.7397 20.8197 43.6113 20.5061C43.1881 20.3872 42.7649 20.3007 42.3309 20.2034C41.886 20.0953 41.6256 19.7709 41.6473 19.3384C41.669 18.906 41.9945 18.6032 42.4503 18.5924C43.123 18.5816 43.8066 18.5924 44.4793 18.5924C44.5987 18.5924 44.718 18.56 44.8265 18.5492C44.8374 18.4951 44.8265 18.4411 44.8265 18.3978Z" fill="#FF6600"/>
<path d="M42.6667 21.6517C43.7541 21.8653 44.7979 22.0683 45.9178 22.2926C45.9178 24.3325 45.9178 26.4686 45.9178 28.6367C48.4187 28.6367 50.8543 28.6367 53.3334 28.6367C53.3334 29.7261 53.3334 30.7728 53.3334 31.8408C49.7778 31.8408 46.244 31.8408 42.6667 31.8408C42.6667 28.4551 42.6667 25.0588 42.6667 21.6517Z" fill="white"/>
<path d="M0 32C0 30.8622 0 29.8111 0 28.7276C0.21571 28.695 0.420634 28.6734 0.625559 28.6409C2.04924 28.3916 3.22486 27.0155 3.23565 25.5635C3.24643 24.5666 3.23565 23.5805 3.23565 22.5836C3.23565 22.4427 3.23565 22.3019 3.23565 22.2044C3.81806 22.1393 4.34655 22.1068 4.87504 22.0202C5.40353 21.9335 5.92123 21.7818 6.48208 21.6517C6.50365 21.7276 6.53601 21.7926 6.52522 21.8468C6.51444 23.2879 6.54679 24.74 6.46051 26.1811C6.28794 28.9768 3.77492 31.5774 1.01384 31.9133C0.690271 31.9458 0.366707 31.9675 0 32Z" fill="white"/>
<path d="M3.34334 0C4.46142 0 5.53565 0 6.67566 0C6.67566 0.151856 6.67566 0.292865 6.67566 0.433874C6.67566 3.14559 6.6647 5.84646 6.68662 8.55817C6.68662 8.87273 6.60989 9.05713 6.30297 9.20898C6.007 9.34999 5.76585 9.58863 5.49181 9.77302C5.39315 9.8381 5.25065 9.87064 5.13008 9.87064C4.53815 9.82726 3.95719 9.77302 3.34334 9.71879C3.34334 6.47558 3.34334 3.25406 3.34334 0Z" fill="white"/>
<path d="M46.01 9.74034C45.4363 9.78377 44.8735 9.83807 44.3108 9.87064C44.2556 9.87064 44.1784 9.84893 44.1232 9.81635C43.715 9.54488 43.2957 9.28427 42.8984 8.99108C42.7881 8.91507 42.6778 8.75219 42.6778 8.62188C42.6667 5.80945 42.6667 2.98617 42.6667 0.173741C42.6667 0.119447 42.6778 0.0760116 42.6888 0C43.7812 0 44.8735 0 45.9879 0C46.01 3.23592 46.01 6.47184 46.01 9.74034Z" fill="white"/>
<path d="M3.34334 10.4093C3.96833 9.74628 4.73587 9.85498 5.48148 9.9202C5.59112 9.93107 5.70077 10.0506 5.78849 10.1485C6.17226 10.5941 6.51217 11.0833 6.91786 11.4963C7.30163 11.8877 7.37839 12.3224 7.29067 12.8116C7.1262 13.7029 6.97269 14.5834 6.77532 15.4747C6.74243 15.6378 6.54506 15.7682 6.42445 15.9204C6.25998 15.7356 6.00779 15.5834 5.942 15.3769C5.85428 15.1051 5.9091 14.8008 5.92007 14.5073C5.93103 14.1921 5.92007 13.9095 5.64595 13.6812C5.56919 13.616 5.58016 13.4094 5.61305 13.2681C5.64595 13.0833 5.7556 12.9203 5.77753 12.7355C5.79945 12.529 5.75559 12.3116 5.76656 12.0942C5.82138 11.0289 5.30604 10.7572 4.36306 10.5724C4.03412 10.4963 3.70518 10.4528 3.34334 10.4093Z" fill="#FF6600"/>
<path d="M43.1441 10.4183C42.7073 10.4835 42.3713 10.5161 42.0466 10.5813C40.9939 10.7878 40.5571 11.0377 40.5795 12.1244C40.5795 12.3743 40.5683 12.6243 40.5683 12.8851C40.5683 12.972 40.5683 13.1024 40.6243 13.1459C40.9491 13.4067 40.8147 13.6023 40.5907 13.8414C40.4899 13.9392 40.4339 14.1131 40.4227 14.2652C40.4004 14.613 40.4339 14.9607 40.4115 15.2976C40.4004 15.4606 40.322 15.6345 40.2212 15.754C40.1428 15.8518 39.9636 15.9388 39.8516 15.917C39.7508 15.8953 39.6164 15.7323 39.594 15.6127C39.4149 14.7977 39.2581 13.9718 39.1013 13.1568C39.0789 13.0481 39.0453 12.9503 39.0341 12.8416C38.9669 12.3743 38.9893 11.9397 39.3813 11.5593C39.6948 11.2659 39.93 10.8964 40.2324 10.5813C40.4451 10.3531 40.6691 9.99446 40.9155 9.96186C41.4866 9.88579 42.1138 9.73364 42.6625 10.1466C42.7633 10.2335 42.9201 10.2987 43.1441 10.4183Z" fill="#FF6600"/>
<rect x="60.6755" width="128" height="32" rx="4" fill="#FF7A00"/>
<path d="M72.712 22.16C71.7093 22.16 70.8453 21.9947 70.12 21.664C69.3947 21.3333 68.8293 20.848 68.424 20.208C68.0293 19.568 67.8107 18.7733 67.768 17.824C67.7573 17.3867 67.752 16.9173 67.752 16.416C67.752 15.9147 67.7573 15.4347 67.768 14.976C67.8107 14.048 68.0347 13.2587 68.44 12.608C68.8453 11.9573 69.4107 11.4667 70.136 11.136C70.8613 10.8053 71.72 10.64 72.712 10.64C73.416 10.64 74.0667 10.7307 74.664 10.912C75.2613 11.0827 75.784 11.3387 76.232 11.68C76.68 12.0107 77.0267 12.416 77.272 12.896C77.528 13.3653 77.6613 13.8987 77.672 14.496C77.6827 14.592 77.6507 14.672 77.576 14.736C77.512 14.8 77.432 14.832 77.336 14.832H75.176C75.0373 14.832 74.9307 14.8053 74.856 14.752C74.7813 14.688 74.7173 14.576 74.664 14.416C74.5147 13.8507 74.2693 13.4667 73.928 13.264C73.5973 13.0507 73.1867 12.944 72.696 12.944C72.1093 12.944 71.6453 13.1093 71.304 13.44C70.9627 13.76 70.776 14.2987 70.744 15.056C70.712 15.9307 70.712 16.8267 70.744 17.744C70.776 18.5013 70.9627 19.0453 71.304 19.376C71.6453 19.696 72.1093 19.856 72.696 19.856C73.1867 19.856 73.6027 19.7493 73.944 19.536C74.2853 19.3227 74.5253 18.9387 74.664 18.384C74.7067 18.224 74.7653 18.1173 74.84 18.064C74.9253 18 75.0373 17.968 75.176 17.968H77.336C77.432 17.968 77.512 18 77.576 18.064C77.6507 18.128 77.6827 18.208 77.672 18.304C77.6613 18.9013 77.528 19.44 77.272 19.92C77.0267 20.3893 76.68 20.7947 76.232 21.136C75.784 21.4667 75.2613 21.7227 74.664 21.904C74.0667 22.0747 73.416 22.16 72.712 22.16ZM90.3304 22.16C89.349 22.16 88.4957 22 87.7704 21.68C87.045 21.36 86.4797 20.88 86.0744 20.24C85.669 19.5893 85.445 18.7787 85.4024 17.808C85.3917 17.3493 85.3864 16.8907 85.3864 16.432C85.3864 15.9627 85.3917 15.4987 85.4024 15.04C85.445 14.08 85.669 13.2747 86.0744 12.624C86.4904 11.9627 87.061 11.4667 87.7864 11.136C88.5224 10.8053 89.3704 10.64 90.3304 10.64C91.301 10.64 92.149 10.8053 92.8744 11.136C93.5997 11.4667 94.1704 11.9627 94.5864 12.624C95.0024 13.2747 95.2264 14.08 95.2584 15.04C95.2797 15.4987 95.2904 15.9627 95.2904 16.432C95.2904 16.8907 95.2797 17.3493 95.2584 17.808C95.2264 18.7787 95.0024 19.5893 94.5864 20.24C94.181 20.88 93.6157 21.36 92.8904 21.68C92.165 22 91.3117 22.16 90.3304 22.16ZM90.3304 19.856C90.8957 19.856 91.3544 19.6853 91.7064 19.344C92.069 19.0027 92.261 18.4587 92.2824 17.712C92.3037 17.2427 92.3144 16.8 92.3144 16.384C92.3144 15.968 92.3037 15.536 92.2824 15.088C92.261 14.5867 92.165 14.1813 91.9944 13.872C91.8344 13.552 91.6104 13.3173 91.3224 13.168C91.0344 13.0187 90.7037 12.944 90.3304 12.944C89.9677 12.944 89.6424 13.0187 89.3544 13.168C89.0664 13.3173 88.837 13.552 88.6664 13.872C88.4957 14.1813 88.3997 14.5867 88.3784 15.088C88.3677 15.536 88.3624 15.968 88.3624 16.384C88.3624 16.8 88.3677 17.2427 88.3784 17.712C88.4104 18.4587 88.6024 19.0027 88.9544 19.344C89.317 19.6853 89.7757 19.856 90.3304 19.856ZM103.945 22C103.828 22 103.732 21.9627 103.657 21.888C103.582 21.8027 103.545 21.7067 103.545 21.6V11.2C103.545 11.0827 103.582 10.9867 103.657 10.912C103.732 10.8373 103.828 10.8 103.945 10.8H105.641C105.822 10.8 105.95 10.8427 106.025 10.928C106.11 11.0027 106.164 11.0613 106.185 11.104L110.089 17.248V11.2C110.089 11.0827 110.126 10.9867 110.201 10.912C110.276 10.8373 110.372 10.8 110.489 10.8H112.409C112.526 10.8 112.622 10.8373 112.697 10.912C112.772 10.9867 112.809 11.0827 112.809 11.2V21.584C112.809 21.7013 112.772 21.8027 112.697 21.888C112.622 21.9627 112.526 22 112.409 22H110.697C110.526 22 110.398 21.9573 110.313 21.872C110.238 21.7867 110.19 21.728 110.169 21.696L106.265 15.776V21.6C106.265 21.7067 106.228 21.8027 106.153 21.888C106.078 21.9627 105.982 22 105.865 22H103.945ZM121.845 22C121.728 22 121.632 21.9627 121.557 21.888C121.482 21.8027 121.445 21.7067 121.445 21.6V11.2C121.445 11.0827 121.482 10.9867 121.557 10.912C121.632 10.8373 121.728 10.8 121.845 10.8H123.541C123.722 10.8 123.85 10.8427 123.925 10.928C124.01 11.0027 124.064 11.0613 124.085 11.104L127.989 17.248V11.2C127.989 11.0827 128.026 10.9867 128.101 10.912C128.176 10.8373 128.272 10.8 128.389 10.8H130.309C130.426 10.8 130.522 10.8373 130.597 10.912C130.672 10.9867 130.709 11.0827 130.709 11.2V21.584C130.709 21.7013 130.672 21.8027 130.597 21.888C130.522 21.9627 130.426 22 130.309 22H128.597C128.426 22 128.298 21.9573 128.213 21.872C128.138 21.7867 128.09 21.728 128.069 21.696L124.165 15.776V21.6C124.165 21.7067 124.128 21.8027 124.053 21.888C123.978 21.9627 123.882 22 123.765 22H121.845ZM139.745 22C139.628 22 139.532 21.9627 139.457 21.888C139.382 21.8027 139.345 21.7067 139.345 21.6V11.2C139.345 11.0827 139.382 10.9867 139.457 10.912C139.532 10.8373 139.628 10.8 139.745 10.8H147.217C147.334 10.8 147.43 10.8373 147.505 10.912C147.58 10.9867 147.617 11.0827 147.617 11.2V12.704C147.617 12.8213 147.58 12.9173 147.505 12.992C147.43 13.0667 147.334 13.104 147.217 13.104H142.113V15.264H146.865C146.982 15.264 147.078 15.3067 147.153 15.392C147.228 15.4667 147.265 15.5627 147.265 15.68V17.072C147.265 17.1787 147.228 17.2747 147.153 17.36C147.078 17.4347 146.982 17.472 146.865 17.472H142.113V19.696H147.345C147.462 19.696 147.558 19.7333 147.633 19.808C147.708 19.8827 147.745 19.9787 147.745 20.096V21.6C147.745 21.7067 147.708 21.8027 147.633 21.888C147.558 21.9627 147.462 22 147.345 22H139.745ZM160.462 22.16C159.459 22.16 158.595 21.9947 157.87 21.664C157.145 21.3333 156.579 20.848 156.174 20.208C155.779 19.568 155.561 18.7733 155.518 17.824C155.507 17.3867 155.502 16.9173 155.502 16.416C155.502 15.9147 155.507 15.4347 155.518 14.976C155.561 14.048 155.785 13.2587 156.19 12.608C156.595 11.9573 157.161 11.4667 157.886 11.136C158.611 10.8053 159.47 10.64 160.462 10.64C161.166 10.64 161.817 10.7307 162.414 10.912C163.011 11.0827 163.534 11.3387 163.982 11.68C164.43 12.0107 164.777 12.416 165.022 12.896C165.278 13.3653 165.411 13.8987 165.422 14.496C165.433 14.592 165.401 14.672 165.326 14.736C165.262 14.8 165.182 14.832 165.086 14.832H162.926C162.787 14.832 162.681 14.8053 162.606 14.752C162.531 14.688 162.467 14.576 162.414 14.416C162.265 13.8507 162.019 13.4667 161.678 13.264C161.347 13.0507 160.937 12.944 160.446 12.944C159.859 12.944 159.395 13.1093 159.054 13.44C158.713 13.76 158.526 14.2987 158.494 15.056C158.462 15.9307 158.462 16.8267 158.494 17.744C158.526 18.5013 158.713 19.0453 159.054 19.376C159.395 19.696 159.859 19.856 160.446 19.856C160.937 19.856 161.353 19.7493 161.694 19.536C162.035 19.3227 162.275 18.9387 162.414 18.384C162.457 18.224 162.515 18.1173 162.59 18.064C162.675 18 162.787 17.968 162.926 17.968H165.086C165.182 17.968 165.262 18 165.326 18.064C165.401 18.128 165.433 18.208 165.422 18.304C165.411 18.9013 165.278 19.44 165.022 19.92C164.777 20.3893 164.43 20.7947 163.982 21.136C163.534 21.4667 163.011 21.7227 162.414 21.904C161.817 22.0747 161.166 22.16 160.462 22.16ZM176.368 22C176.251 22 176.155 21.9627 176.08 21.888C176.006 21.8027 175.968 21.7067 175.968 21.6V13.312H173.12C173.003 13.312 172.907 13.2747 172.832 13.2C172.758 13.1147 172.72 13.0187 172.72 12.912V11.2C172.72 11.0827 172.758 10.9867 172.832 10.912C172.907 10.8373 173.003 10.8 173.12 10.8H181.728C181.846 10.8 181.942 10.8373 182.016 10.912C182.091 10.9867 182.128 11.0827 182.128 11.2V12.912C182.128 13.0187 182.091 13.1147 182.016 13.2C181.942 13.2747 181.846 13.312 181.728 13.312H178.88V21.6C178.88 21.7067 178.843 21.8027 178.768 21.888C178.694 21.9627 178.598 22 178.48 22H176.368Z" fill="white"/>
</svg>
