<svg width="52" height="53" viewBox="0 0 52 53" fill="none" xmlns="http://www.w3.org/2000/svg">
<path d="M1.22616 0C13.9257 0 26.669 0 39.3686 0C40.2444 0.4323 40.5072 1.16722 40.5072 2.11828C40.4634 7.17619 40.5072 12.2341 40.4634 17.3352C40.4634 17.7243 40.5509 17.8972 40.9451 18.0269C43.3974 18.9348 44.8425 20.6207 45.1053 23.2145C45.1928 24.1656 45.1053 25.1166 45.1053 26.1109C45.4118 26.1109 45.587 26.1109 45.7621 26.1109C47.251 26.1109 48.74 26.1109 50.2289 26.1109C51.3237 26.1109 51.9805 26.7162 51.9805 27.7969C51.9805 34.195 52.0243 40.5498 51.9805 46.9478C51.9367 50.4062 49.2217 53 45.6745 53C41.0764 53 36.4783 53 31.8802 53C28.8586 53 26.1873 50.6224 25.8808 47.6395C25.7932 46.991 25.7932 46.3426 25.7494 45.6509C25.5304 45.6509 25.3115 45.6509 25.0925 45.6509C17.3414 45.6509 9.59033 45.6509 1.83924 45.6509C1.31374 45.6509 0.87582 45.5644 0.481696 45.1754C0.0437808 44.7863 0 44.2675 0 43.7055C0 29.8287 0 15.9951 0 2.11828C0.131375 1.16722 0.350327 0.4323 1.22616 0ZM37.3104 3.11257C25.9246 3.11257 14.6264 3.11257 3.32814 3.11257C3.32814 16.2545 3.32814 29.3532 3.32814 42.4519C10.8603 42.4519 18.3486 42.4519 25.8808 42.4519C25.8808 42.1925 25.8808 41.9763 25.8808 41.8034C25.8808 38.6476 25.8808 35.4919 25.8808 32.3361C25.8808 30.823 25.8808 29.31 25.8808 27.7969C25.8808 26.6729 26.5376 26.0677 27.6324 26.0677C29.1213 26.0677 30.6103 26.0677 32.0992 26.0677C32.2743 26.0677 32.4495 26.0677 32.7123 26.0677C32.7123 25.2896 32.7123 24.5979 32.7123 23.9062C32.756 21.1395 34.3325 18.9348 36.9162 18.0269C37.3104 17.8972 37.3104 17.6811 37.3104 17.3785C37.3104 12.7961 37.3104 8.25693 37.3104 3.67455C37.3104 3.50163 37.3104 3.32872 37.3104 3.11257ZM45.2366 29.1803C45.2366 30.3042 45.2366 31.4282 45.2366 32.509C45.2366 32.8116 45.2366 33.1142 45.1929 33.3736C45.0615 34.1949 44.4484 34.7569 43.6601 34.8002C42.8719 34.8002 42.1712 34.1949 42.0836 33.3736C42.0398 33.1574 42.0836 32.898 42.0836 32.6387C42.0836 31.4715 42.0836 30.3475 42.0836 29.1803C40.0254 29.1803 38.011 29.1803 35.9528 29.1803C35.9528 30.4339 35.9528 31.6444 35.9528 32.898C35.9528 33.1574 35.9528 33.3736 35.8652 33.633C35.6901 34.3246 35.077 34.8434 34.3325 34.8434C33.6319 34.8434 32.975 34.3679 32.7998 33.633C32.7561 33.3736 32.7123 33.071 32.7123 32.8116C32.7123 31.6012 32.7123 30.3907 32.7123 29.2235C31.4861 29.2235 30.3037 29.2235 29.1214 29.2235C29.1214 29.3532 29.1214 29.4829 29.1214 29.5693C29.1214 35.3189 29.1214 41.0685 29.1214 46.8613C29.1214 47.1207 29.1214 47.3801 29.2089 47.6395C29.5593 49.0228 30.7416 49.8874 32.3181 49.8874C36.7411 49.8874 41.1202 49.8442 45.5432 49.8874C47.4262 49.8874 48.9589 48.6338 48.9151 46.5587C48.8713 40.9821 48.9151 35.4054 48.9151 29.7855C48.9151 29.6126 48.9151 29.3964 48.9151 29.2235C47.6452 29.1803 46.4628 29.1803 45.2366 29.1803ZM42.0399 26.0245C42.0399 25.1599 42.0836 24.3817 42.0399 23.5604C41.9961 22.0905 40.7699 20.8801 39.281 20.7504C37.7045 20.6207 36.1718 21.7015 35.9966 23.1713C35.8652 24.0791 35.9528 25.0302 35.9528 26.0245C37.9672 26.0245 39.9817 26.0245 42.0399 26.0245Z" fill="#3B3E4C"/>
<path d="M25.4916 8.04109C27.744 8.04109 29.9964 8.04109 32.2921 8.04109C32.9851 8.04109 33.5482 8.28766 33.8514 8.9041C34.1113 9.47945 34.0247 10.0137 33.6349 10.4658C33.245 10.9178 32.6819 11 32.1188 11C28.2638 11 24.4087 11 20.5537 11C19.9472 11 19.3408 11 18.7344 11C17.6949 11 16.9585 10.3425 17.0018 9.47944C17.0018 8.61643 17.7382 8 18.7777 8C20.9435 8.0411 23.1959 8.04109 25.4916 8.04109Z" fill="#3B3E4C"/>
<path d="M22.9892 17.0184C24.4425 17.0184 25.8517 17.0184 27.305 17.0184C28.0096 17.0184 28.5381 17.3083 28.8464 17.888C29.1106 18.4264 29.0225 18.9647 28.6702 19.4202C28.3619 19.8344 27.8775 20 27.3491 20C24.4425 20 21.58 20 18.6735 20C17.7046 20 17 19.3374 17 18.5092C17 17.6396 17.7046 17.0184 18.7175 17.0184C20.1267 16.977 21.58 17.0184 22.9892 17.0184Z" fill="#3B3E4C"/>
<path d="M9.75643 8.22567C10.292 7.65154 10.7864 7.11843 11.322 6.58532C11.9812 5.88817 12.8876 5.80615 13.5056 6.38027C14.1648 6.9544 14.1648 7.89759 13.5056 8.59474C12.6404 9.53794 11.734 10.4811 10.8688 11.4243C10.1272 12.2445 9.17963 12.1625 8.43803 11.3423C8.10844 10.9322 7.73764 10.5222 7.40804 10.0711C6.83125 9.3329 6.87245 8.51272 7.49045 7.9386C8.10844 7.36448 8.93244 7.4465 9.59163 8.06163C9.63283 8.10264 9.67403 8.14365 9.75643 8.22567Z" fill="#3B3E4C"/>
<path d="M9.79413 18.2202C10.3302 17.6475 10.825 17.1157 11.3198 16.5839C11.9795 15.8884 12.8867 15.8066 13.5052 16.3793C14.1649 16.9521 14.1649 17.893 13.5052 18.5884C12.6393 19.5293 11.7321 20.4702 10.8662 21.4111C10.0828 22.2293 9.17561 22.1884 8.43339 21.3293C8.10352 20.9202 7.77365 20.5111 7.44378 20.102C6.82527 19.3657 6.86651 18.5475 7.48502 17.9748C8.10353 17.4021 8.92821 17.4839 9.62919 18.1384C9.71166 18.1384 9.75289 18.1793 9.79413 18.2202Z" fill="#3B3E4C"/>
<path d="M9.76865 27.2426C10.3066 26.6687 10.8032 26.1357 11.3412 25.5617C12.0033 24.8647 12.9137 24.8237 13.5344 25.3977C14.1552 25.9717 14.1552 26.8736 13.5344 27.5706C12.624 28.5136 11.755 29.4975 10.8446 30.4405C10.0997 31.2195 9.14791 31.1785 8.44441 30.3585C8.11335 29.9485 7.74091 29.5385 7.40985 29.0876C6.8305 28.3496 6.87189 27.4886 7.49262 26.9556C8.11336 26.4227 8.94101 26.4637 9.60312 27.1196C9.64451 27.1606 9.68589 27.1606 9.76865 27.2426Z" fill="#3B3E4C"/>
<path d="M19.9989 27C20.4533 27 20.8623 27 21.3166 27C22.2708 27.0412 22.9524 27.6186 22.9979 28.4433C23.0433 29.2268 22.3617 29.9278 21.453 29.9691C20.4987 30.0103 19.5445 30.0103 18.5903 29.9691C17.6361 29.9278 17 29.2268 17 28.4433C17.0454 27.6598 17.727 27.0412 18.6812 27C19.0902 27 19.5446 27 19.9989 27Z" fill="#3B3E4C"/>
</svg>
