<svg width="10" height="10" viewBox="0 0 10 10" fill="none" xmlns="http://www.w3.org/2000/svg">
<g clip-path="url(#clip0_39:619)">
<path d="M5.0712 4.81703C4.40942 4.81703 3.83638 4.57968 3.36817 4.11139C2.89995 3.64317 2.6626 3.07028 2.6626 2.40844C2.6626 1.74682 2.89995 1.17385 3.36824 0.705487C3.83653 0.23735 4.4095 0 5.0712 0C5.73305 0 6.30594 0.23735 6.77415 0.705564C7.24237 1.17378 7.4798 1.74674 7.4798 2.40844C7.4798 3.07028 7.24237 3.64325 6.77408 4.11146C6.30579 4.5796 5.73282 4.81703 5.0712 4.81703Z" fill="#FF7A00"/>
<path d="M0.856857 7.68955C0.870361 7.49469 0.897675 7.28214 0.937881 7.05768C0.97847 6.83155 1.03073 6.61777 1.09329 6.42239C1.15791 6.22044 1.2458 6.02101 1.35445 5.82989C1.46721 5.63153 1.59966 5.4588 1.74828 5.31666C1.90369 5.16797 2.09396 5.04842 2.314 4.96121C2.53326 4.87447 2.77626 4.83052 3.03619 4.83052C3.13828 4.83052 3.237 4.87241 3.42766 4.99654C3.545 5.07306 3.68225 5.16156 3.83545 5.25944C3.96645 5.34291 4.14391 5.42111 4.3631 5.49191C4.57695 5.56111 4.79408 5.5962 5.00839 5.5962C5.2227 5.5962 5.43976 5.56111 5.65384 5.49191C5.8728 5.42119 6.05026 5.34298 6.18111 5.25952C6.33286 5.16255 6.47018 5.07405 6.58928 4.99646C6.77971 4.87233 6.87851 4.83044 6.98059 4.83044C7.2406 4.83044 7.48352 4.87447 7.70271 4.96129C7.92259 5.04834 8.11295 5.16789 8.26851 5.31674C8.41705 5.45895 8.54958 5.6316 8.66219 5.82989C8.77075 6.02101 8.85864 6.22036 8.92334 6.42246C8.98582 6.61785 9.03809 6.83155 9.07867 7.05768C9.11888 7.28183 9.14619 7.49446 9.1597 7.68978C9.17297 7.88112 9.17969 8.07971 9.17969 8.28029C9.17969 8.80229 9.01375 9.22488 8.68652 9.53654C8.36334 9.84408 7.93571 10.0001 7.4157 10.0001H2.60063C2.08061 10.0001 1.65314 9.84415 1.32988 9.53654C1.00258 9.22511 0.836639 8.80244 0.836639 8.28021C0.836716 8.07872 0.843506 7.87998 0.856857 7.68955Z" fill="#FF7A00"/>
</g>
<defs>
<clipPath id="clip0_39:619">
<rect width="10" height="10" fill="white" transform="matrix(-1 0 0 1 10 0)"/>
</clipPath>
</defs>
</svg>
