<svg width="34" height="34" viewBox="0 0 34 34" fill="none" xmlns="http://www.w3.org/2000/svg">
<circle cx="17" cy="17" r="17" fill="#484B58"/>
<path d="M26.8028 12.0703C26.6805 11.9976 26.5292 11.9948 26.4044 12.063L22.045 14.4489V13.0173C22.0437 11.9037 21.1433 11.0013 20.0322 11H10.0127C8.90163 11.0013 8.00126 11.9037 8 13.0173V20.9827C8.00126 22.0963 8.90163 22.9987 10.0127 23H20.0322C21.1433 22.9987 22.0437 22.0963 22.045 20.9827V19.5771L26.4045 21.963C26.5292 22.0312 26.6806 22.0285 26.8028 21.9559C26.9252 21.8831 27 21.7511 27 21.6088V12.4172C27 12.2747 26.925 12.1429 26.8028 12.0703Z" fill="white"/>
</svg>
